<?xml version="1.0" encoding="UTF-8" standalone="no"?>
<!-- Created with Inkscape (http://www.inkscape.org/) -->

<svg
   width="210mm"
   height="297mm"
   viewBox="0 0 210 297"
   version="1.1"
   id="svg1"
   xml:space="preserve"
   inkscape:version="1.3.1 (9b9bdc1480, 2023-11-25, custom)"
   sodipodi:docname="mutorere"
   xmlns:inkscape="http://www.inkscape.org/namespaces/inkscape"
   xmlns:sodipodi="http://sodipodi.sourceforge.net/DTD/sodipodi-0.dtd"
   xmlns="http://www.w3.org/2000/svg"
   xmlns:svg="http://www.w3.org/2000/svg"><sodipodi:namedview
     id="namedview1"
     pagecolor="#ffffff"
     bordercolor="#000000"
     borderopacity="0.25"
     inkscape:showpageshadow="2"
     inkscape:pageopacity="0.0"
     inkscape:pagecheckerboard="0"
     inkscape:deskcolor="#d1d1d1"
     inkscape:document-units="mm"
     inkscape:zoom="0.78929574"
     inkscape:cx="463.07104"
     inkscape:cy="516.91651"
     inkscape:window-width="1854"
     inkscape:window-height="1131"
     inkscape:window-x="0"
     inkscape:window-y="0"
     inkscape:window-maximized="1"
     inkscape:current-layer="layer1" /><defs
     id="defs1" /><g
     inkscape:label="Layer 1"
     inkscape:groupmode="layer"
     id="layer1"><path
       sodipodi:type="star"
       style="fill:#f9f9f9;stroke:#000000;stroke-width:1.11825;stroke-dasharray:none;stroke-opacity:1"
       id="path13"
       inkscape:flatsided="true"
       sodipodi:sides="8"
       sodipodi:cx="28.704044"
       sodipodi:cy="92.490379"
       sodipodi:r1="97.758621"
       sodipodi:r2="35.193104"
       sodipodi:arg1="0.77868291"
       sodipodi:arg2="1.171382"
       inkscape:rounded="3.469447e-18"
       inkscape:randomized="0"
       d="m 98.292463,161.15041 -68.93195,29.09639 -69.3165,-28.168 -29.096386,-68.931952 28.167998,-69.3165 68.93195,-29.0963857 69.316501,28.1679977 29.096384,68.93195 z"
       transform="matrix(0.90061173,-0.35775605,0.35775605,0.90061173,41.131664,24.633576)"
       inkscape:transform-center-x="9.6059012e-06" /><path
       sodipodi:type="star"
       style="fill:#f9f9f9;stroke:#000000;stroke-width:1.11825;stroke-dasharray:none;stroke-opacity:1"
       id="path6-8"
       inkscape:flatsided="true"
       sodipodi:sides="8"
       sodipodi:cx="28.704044"
       sodipodi:cy="92.490379"
       sodipodi:r1="97.758621"
       sodipodi:r2="35.193104"
       sodipodi:arg1="0.77868291"
       sodipodi:arg2="1.171382"
       inkscape:rounded="3.469447e-18"
       inkscape:randomized="0"
       d="m 98.292463,161.15041 -68.93195,29.09639 -69.3165,-28.168 -29.096386,-68.931952 28.167998,-69.3165 68.93195,-29.0963857 69.316501,28.1679977 29.096384,68.93195 z"
       transform="matrix(0.85697701,-0.34042274,0.34042274,0.85697701,43.987322,28.171832)"
       inkscape:transform-center-x="8.9606389e-06" /><path
       sodipodi:type="star"
       style="fill:#f9f9f9;stroke:#000000;stroke-width:1.62066785;stroke-dasharray:none;stroke-opacity:1"
       id="path4"
       inkscape:flatsided="false"
       sodipodi:sides="8"
       sodipodi:cx="28.704044"
       sodipodi:cy="92.490379"
       sodipodi:r1="97.758621"
       sodipodi:r2="48.879311"
       sodipodi:arg1="0.77868291"
       sodipodi:arg2="1.171382"
       inkscape:rounded="0.19"
       inkscape:randomized="3.2092384e-17"
       d="m 98.292463,161.15041 c -7.449834,7.55057 -40.808062,-27.75295 -50.580289,-23.62806 -9.772227,4.12488 -7.744775,52.65322 -18.351661,52.72445 -10.606886,0.0712 -9.231357,-48.47996 -19.058101,-52.47323 -9.82674257,-3.99328 -42.707832,31.75506 -50.258399,24.30523 -7.550568,-7.44984 27.752951,-40.80806 23.628065,-50.58029 -4.124887,-9.77223 -52.653222,-7.74478 -52.724451,-18.351662 -0.07123,-10.606886 48.479959,-9.231357 52.473231,-19.058101 3.993273,-9.826743 -31.755067,-42.707832 -24.305233,-50.258399 7.449835,-7.550568 40.80806314,27.752951 50.58029,23.628065 9.772227,-4.124887 7.744774,-52.6532218 18.35166,-52.7244507 10.606886,-0.071229 9.231358,48.4799587 19.058101,52.4732307 9.826743,3.993273 42.707833,-31.755067 50.2584,-24.305233 7.550564,7.449835 -27.752952,40.808063 -23.628065,50.58029 4.124887,9.772227 52.653219,7.744774 52.724449,18.35166 0.0712,10.60689 -48.479957,9.23136 -52.473229,19.0581 -3.993273,9.82674 31.755069,42.70783 24.305232,50.2584 z"
       inkscape:transform-center-y="-1.126259e-06"
       transform="matrix(0.65302297,0,0,0.65302297,80.873852,38.189871)" /><ellipse
       style="fill:#f9f9f9;stroke-width:1.05833333;stroke-dasharray:none;stroke:#000000;stroke-opacity:1"
       id="path2"
       cx="99.703354"
       cy="95.583"
       rx="10.836989"
       ry="11.061855" /><path
       sodipodi:type="star"
       style="fill:#f9f9f9;stroke:#000000;stroke-width:1.62066785;stroke-dasharray:none;stroke-opacity:1"
       id="path5"
       inkscape:flatsided="false"
       sodipodi:sides="8"
       sodipodi:cx="28.704044"
       sodipodi:cy="92.490379"
       sodipodi:r1="97.758621"
       sodipodi:r2="13.686207"
       sodipodi:arg1="0.77868291"
       sodipodi:arg2="1.171382"
       inkscape:rounded="3.469447e-18"
       inkscape:randomized="0"
       d="M 98.292463,161.15041 34.026321,105.09933 29.360513,190.2468 23.551587,105.16967 -39.955987,162.0788 16.095094,97.812655 -69.052373,93.146848 16.024752,87.337922 -40.884375,23.830348 23.381768,79.881429 28.047575,-5.2660377 33.856501,79.811087 97.364076,22.90196 41.312995,87.168103 126.46046,91.83391 41.383336,97.642836 Z"
       transform="matrix(0.65302297,0,0,0.65302297,81.28344,38.208683)" /><path
       sodipodi:type="star"
       style="fill:#f9f9f9;stroke:#000000;stroke-width:3.34169643;stroke-dasharray:none;stroke-opacity:1"
       id="path6"
       inkscape:flatsided="false"
       sodipodi:sides="8"
       sodipodi:cx="28.704044"
       sodipodi:cy="92.490379"
       sodipodi:r1="97.758621"
       sodipodi:r2="35.193104"
       sodipodi:arg1="0.77868291"
       sodipodi:arg2="1.171382"
       inkscape:rounded="3.469447e-18"
       inkscape:randomized="0"
       d="M 98.292463,161.15041 42.389898,124.9134 29.360513,190.2468 15.454869,125.09427 -39.955987,162.0788 -3.7189718,106.17623 -69.052373,93.146848 -3.8998498,79.241204 -40.884375,23.830348 15.018191,60.067363 28.047575,-5.2660377 41.953219,59.886485 97.364076,22.90196 61.12706,78.804526 126.46046,91.83391 61.307939,105.73955 Z"
       transform="matrix(0.29433321,-0.11691996,0.11691996,0.29433321,79.678067,75.304899)"
       inkscape:transform-center-x="3.3080692e-06" /><ellipse
       style="fill:#f9f9f9;stroke:#000000;stroke-width:1.05833333;stroke-dasharray:none;stroke-opacity:1"
       id="path3-2"
       cx="100.02784"
       cy="98.607033"
       rx="10.341872"
       ry="10.267479" /><g
       id="g13"
       transform="matrix(0.65302297,0,0,0.65302297,24.038665,7.938539)"
       style="stroke-width:1.62066785;stroke-dasharray:none;stroke:#000000;stroke-opacity:1"><g
         id="g6"
         style="stroke-width:1.62066785;stroke-dasharray:none;stroke:#000000;stroke-opacity:1"><ellipse
           style="fill:#f9f9f9;stroke:#000000;stroke-width:1.62066785;stroke-dasharray:none;stroke-opacity:1"
           id="path3-26"
           cx="115.39959"
           cy="30.629023"
           rx="15.836919"
           ry="15.722998" /><ellipse
           style="fill:#f9f9f9;stroke:#000000;stroke-width:1.62066785;stroke-dasharray:none;stroke-opacity:1"
           id="ellipse6"
           cx="116.48772"
           cy="240.02675"
           rx="15.836919"
           ry="15.722998" /></g><g
         id="g8"
         transform="rotate(90,115.94365,135.32789)"
         style="stroke-width:1.62066785;stroke-dasharray:none;stroke:#000000;stroke-opacity:1"><ellipse
           style="fill:#f9f9f9;stroke:#000000;stroke-width:1.62066785;stroke-dasharray:none;stroke-opacity:1"
           id="ellipse7"
           cx="115.39959"
           cy="30.629023"
           rx="15.836919"
           ry="15.722998" /><ellipse
           style="fill:#f9f9f9;stroke:#000000;stroke-width:1.62066785;stroke-dasharray:none;stroke-opacity:1"
           id="ellipse8"
           cx="116.48772"
           cy="240.02675"
           rx="15.836919"
           ry="15.722998" /></g><g
         id="g10"
         transform="rotate(135,115.94365,135.32789)"
         style="stroke-width:1.62066785;stroke-dasharray:none;stroke:#000000;stroke-opacity:1"><ellipse
           style="fill:#f9f9f9;stroke:#000000;stroke-width:1.62066785;stroke-dasharray:none;stroke-opacity:1"
           id="ellipse9"
           cx="115.39959"
           cy="30.629023"
           rx="15.836919"
           ry="15.722998" /><ellipse
           style="fill:#f9f9f9;stroke:#000000;stroke-width:1.62066785;stroke-dasharray:none;stroke-opacity:1"
           id="ellipse10"
           cx="116.48772"
           cy="240.02675"
           rx="15.836919"
           ry="15.722998" /></g><g
         id="g12"
         transform="rotate(-135,115.94365,135.32789)"
         style="stroke-width:1.62066785;stroke-dasharray:none;stroke:#000000;stroke-opacity:1"><ellipse
           style="fill:#f9f9f9;stroke:#000000;stroke-width:1.62066785;stroke-dasharray:none;stroke-opacity:1"
           id="ellipse11"
           cx="115.39959"
           cy="30.629023"
           rx="15.836919"
           ry="15.722998" /><ellipse
           style="fill:#f9f9f9;stroke:#000000;stroke-width:1.62066785;stroke-dasharray:none;stroke-opacity:1"
           id="ellipse12"
           cx="116.48772"
           cy="240.02675"
           rx="15.836919"
           ry="15.722998" /></g></g></g></svg>
