999
"DXF R12 Output" (www.mydxf.blogspot.com)
 0 
SECTION
 2 
HEADER
 9 
$ACADVER
 1 
AC1009
 9 
$EXTMIN
 10 
 0 
 20 
 0 
 9 
$EXTMAX
 10 
 8.5 
 20 
 11 
 0 
ENDSEC
 0 
SECTION
 2 
ENTITIES
0
LINE
8
Layer 1
10
4.366696
20
4.422589
11
5.138974
21
5.562495
0
LINE
8
Layer 1
10
5.138974
20
5.562495
11
5.488341
21
5.801593
0
LINE
8
Layer 1
10
5.488341
20
5.801593
11
5.911154
21
5.709783
0
LINE
8
Layer 1
10
5.911154
20
5.709783
11
7.529257
21
4.827036
0
LINE
8
Layer 1
10
7.529257
20
4.827036
11
8.618694
21
4.440936
0
LINE
8
Layer 1
10
8.618694
20
4.440936
11
9.790908
21
4.312319
0
LINE
8
Layer 1
10
9.790908
20
4.312319
11
10.894093
21
4.477673
0
LINE
8
Layer 1
10
10.894093
20
4.477673
11
11.702995
21
4.882223
0
LINE
8
Layer 1
10
11.702995
20
4.882223
11
12.199553
21
5.452227
0
LINE
8
Layer 1
10
12.199553
20
5.452227
11
12.365004
21
6.077513
0
LINE
8
Layer 1
10
12.365004
20
6.077513
11
12.107446
21
6.776047
0
LINE
8
Layer 1
10
12.107446
20
6.776047
11
11.445734
21
7.235778
0
LINE
8
Layer 1
10
11.445734
20
7.235778
11
11.004362
21
7.401132
0
LINE
8
Layer 1
10
11.004362
20
7.401132
11
10.471081
21
7.548426
0
LINE
8
Layer 1
10
10.471081
20
7.548426
11
9.910309
21
7.677055
0
LINE
8
Layer 1
10
9.910309
20
7.677055
11
9.312713
21
7.787423
0
LINE
8
Layer 1
10
9.312713
20
7.787423
11
8.871539
21
7.870098
0
LINE
8
Layer 1
10
8.871539
20
7.870098
11
8.375081
21
7.971335
0
LINE
8
Layer 1
10
8.375081
20
7.971335
11
7.271797
21
8.247157
0
LINE
8
Layer 1
10
7.271797
20
8.247157
11
6.150251
21
8.706794
0
LINE
8
Layer 1
10
6.150251
20
8.706794
11
5.157336
21
9.423888
0
LINE
8
Layer 1
10
5.157336
20
9.423888
11
4.440142
21
10.453526
0
LINE
8
Layer 1
10
4.440142
20
10.453526
11
4.182882
21
11.850891
0
LINE
8
Layer 1
10
4.182882
20
11.850891
11
4.302244
21
12.921945
0
LINE
8
Layer 1
10
4.302244
20
12.921945
11
4.660779
21
13.818362
0
LINE
8
Layer 1
10
4.660779
20
13.818362
11
5.193948
21
14.503113
0
LINE
8
Layer 1
10
5.193948
20
14.503113
11
5.874431
21
15.050077
0
LINE
8
Layer 1
10
5.874431
20
15.050077
11
7.529257
21
15.675364
0
LINE
8
Layer 1
10
7.529257
20
15.675364
11
9.294351
21
15.859278
0
LINE
8
Layer 1
10
9.294351
20
15.859278
11
10.802086
21
15.748810
0
LINE
8
Layer 1
10
10.802086
20
15.748810
11
11.436504
21
15.611049
0
LINE
8
Layer 1
10
11.436504
20
15.611049
11
12.034001
21
15.436365
0
LINE
8
Layer 1
10
12.034001
20
15.436365
11
12.604003
21
15.188236
0
LINE
8
Layer 1
10
12.604003
20
15.188236
11
13.137185
21
14.903184
0
LINE
8
Layer 1
10
13.137185
20
14.903184
11
13.486649
21
14.682349
0
LINE
8
Layer 1
10
13.486649
20
14.682349
11
13.854374
21
14.461911
0
LINE
8
Layer 1
10
13.854374
20
14.461911
11
14.093274
21
14.094183
0
LINE
8
Layer 1
10
14.093274
20
14.094183
11
13.983110
21
13.671171
0
LINE
8
Layer 1
10
13.983110
20
13.671171
11
13.210930
21
12.567987
0
LINE
8
Layer 1
10
13.210930
20
12.567987
11
12.833772
21
12.328989
0
LINE
8
Layer 1
10
12.833772
20
12.328989
11
12.401728
21
12.420896
0
LINE
8
Layer 1
10
12.401728
20
12.420896
11
11.041184
21
13.119629
0
LINE
8
Layer 1
10
11.041184
20
13.119629
11
10.144704
21
13.381554
0
LINE
8
Layer 1
10
10.144704
20
13.381554
11
9.183983
21
13.468995
0
LINE
8
Layer 1
10
9.183983
20
13.468995
11
8.825485
21
13.450633
0
LINE
8
Layer 1
10
8.825485
20
13.450633
11
8.430165
21
13.395449
0
LINE
8
Layer 1
10
8.430165
20
13.395449
11
7.621164
21
13.119628
0
LINE
8
Layer 1
10
7.621164
20
13.119628
11
7.281028
21
12.917354
0
LINE
8
Layer 1
10
7.281028
20
12.917354
11
6.995976
21
12.659993
0
LINE
8
Layer 1
10
6.995976
20
12.659993
11
6.756978
21
11.961261
0
LINE
8
Layer 1
10
6.756978
20
11.961261
11
6.830499
21
11.588880
0
LINE
8
Layer 1
10
6.830499
20
11.588880
11
7.051259
21
11.280890
0
LINE
8
Layer 1
10
7.051259
20
11.280890
11
7.805078
21
10.821153
0
LINE
8
Layer 1
10
7.805078
20
10.821153
11
8.292206
21
10.655601
0
LINE
8
Layer 1
10
8.292206
20
10.655601
11
8.816256
21
10.508710
0
LINE
8
Layer 1
10
8.816256
20
10.508710
11
9.358667
21
10.379980
0
LINE
8
Layer 1
10
9.358667
20
10.379980
11
9.882716
21
10.251149
0
LINE
8
Layer 1
10
9.882716
20
10.251149
11
10.305728
21
10.159344
0
LINE
8
Layer 1
10
10.305728
20
10.159344
11
10.783724
21
10.067436
0
LINE
8
Layer 1
10
10.783724
20
10.067436
11
11.316906
21
9.966100
0
LINE
8
Layer 1
10
11.316906
20
9.966100
11
11.868548
21
9.809975
0
LINE
8
Layer 1
10
11.868548
20
9.809975
11
12.171960
21
9.718168
0
LINE
8
Layer 1
10
12.171960
20
9.718168
11
12.475273
21
9.607701
0
LINE
8
Layer 1
10
12.475273
20
9.607701
11
12.980962
21
9.368804
0
LINE
8
Layer 1
10
12.980962
20
9.368804
11
13.468189
21
9.074522
0
LINE
8
Layer 1
10
13.468189
20
9.074522
11
13.734780
21
8.881376
0
LINE
8
Layer 1
10
13.734780
20
8.881376
11
13.964748
21
8.670070
0
LINE
8
Layer 1
10
13.964748
20
8.670070
11
14.663477
21
7.603509
0
LINE
8
Layer 1
10
14.663477
20
7.603509
11
14.870268
21
6.895472
0
LINE
8
Layer 1
10
14.870268
20
6.895472
11
14.939196
21
6.058950
0
LINE
8
Layer 1
10
14.939196
20
6.058950
11
14.847267
21
5.088926
0
LINE
8
Layer 1
10
14.847267
20
5.088926
11
14.571476
21
4.238672
0
LINE
8
Layer 1
10
14.571476
20
4.238672
11
14.125397
21
3.535374
0
LINE
8
Layer 1
10
14.125397
20
3.535374
11
13.523373
21
2.969938
0
LINE
8
Layer 1
10
13.523373
20
2.969938
11
12.769370
21
2.510190
0
LINE
8
Layer 1
10
12.769370
20
2.510190
11
11.905271
21
2.197758
0
LINE
8
Layer 1
10
11.905271
20
2.197758
11
9.827632
21
1.940200
0
LINE
8
Layer 1
10
9.827632
20
1.940200
11
7.970531
21
2.105850
0
LINE
8
Layer 1
10
7.970531
20
2.105850
11
6.517980
21
2.528762
0
LINE
8
Layer 1
10
6.517980
20
2.528762
11
5.874431
21
2.813813
0
LINE
8
Layer 1
10
5.874431
20
2.813813
11
5.267704
21
3.153951
0
LINE
8
Layer 1
10
5.267704
20
3.153951
11
4.899976
21
3.383619
0
LINE
8
Layer 1
10
4.899976
20
3.383619
11
4.513788
21
3.650308
0
LINE
8
Layer 1
10
4.513788
20
3.650308
11
4.274689
21
3.999677
0
LINE
8
Layer 1
10
4.274689
20
3.999677
11
4.366696
21
4.422589
0
LINE
8
Layer 1
10
4.366696
20
4.422589
11
4.366696
21
4.422589
0
LINE
8
Layer 1
10
25.290975
20
2.620570
11
20.399936
21
7.916154
0
LINE
8
Layer 1
10
20.399936
20
7.916154
11
20.142578
21
8.035552
0
LINE
8
Layer 1
10
20.142578
20
8.035552
11
20.032216
21
7.750501
0
LINE
8
Layer 1
10
20.032216
20
7.750501
11
20.032216
21
2.767763
0
LINE
8
Layer 1
10
20.032216
20
2.767763
11
19.866759
21
2.363310
0
LINE
8
Layer 1
10
19.866759
20
2.363310
11
19.462208
21
2.197758
0
LINE
8
Layer 1
10
19.462208
20
2.197758
11
18.009656
21
2.197758
0
LINE
8
Layer 1
10
18.009656
20
2.197758
11
17.614440
21
2.363310
0
LINE
8
Layer 1
10
17.614440
20
2.363310
11
17.458109
21
2.767763
0
LINE
8
Layer 1
10
17.458109
20
2.767763
11
17.458109
21
15.086999
0
LINE
8
Layer 1
10
17.458109
20
15.086999
11
17.614440
21
15.491549
0
LINE
8
Layer 1
10
17.614440
20
15.491549
11
18.009656
21
15.657003
0
LINE
8
Layer 1
10
18.009656
20
15.657003
11
19.462208
21
15.657003
0
LINE
8
Layer 1
10
19.462208
20
15.657003
11
19.866759
21
15.491549
0
LINE
8
Layer 1
10
19.866759
20
15.491549
11
20.032216
21
15.086999
0
LINE
8
Layer 1
10
20.032216
20
15.086999
11
20.032216
21
9.387164
0
LINE
8
Layer 1
10
20.032216
20
9.387164
11
20.133453
21
9.111243
0
LINE
8
Layer 1
10
20.133453
20
9.111243
11
20.381574
21
9.258333
0
LINE
8
Layer 1
10
20.381574
20
9.258333
11
25.033607
21
15.197367
0
LINE
8
Layer 1
10
25.033607
20
15.197367
11
25.438059
21
15.509911
0
LINE
8
Layer 1
10
25.438059
20
15.509911
11
25.934522
21
15.638641
0
LINE
8
Layer 1
10
25.934522
20
15.638641
11
27.975432
21
15.638641
0
LINE
8
Layer 1
10
27.975432
20
15.638641
11
28.278946
21
15.509911
0
LINE
8
Layer 1
10
28.278946
20
15.509911
11
28.196068
21
15.197367
0
LINE
8
Layer 1
10
28.196068
20
15.197367
11
23.360318
21
9.129605
0
LINE
8
Layer 1
10
23.360318
20
9.129605
11
23.222459
21
8.697562
0
LINE
8
Layer 1
10
23.222459
20
8.697562
11
23.397150
21
8.283879
0
LINE
8
Layer 1
10
23.397150
20
8.283879
11
28.692534
21
2.602210
0
LINE
8
Layer 1
10
28.692534
20
2.602210
11
28.793573
21
2.317157
0
LINE
8
Layer 1
10
28.793573
20
2.317157
11
28.508620
21
2.197758
0
LINE
8
Layer 1
10
28.508620
20
2.197758
11
26.228601
21
2.197758
0
LINE
8
Layer 1
10
26.228601
20
2.197758
11
25.713887
21
2.317157
0
LINE
8
Layer 1
10
25.713887
20
2.317157
11
25.290975
21
2.620570
0
LINE
8
Layer 1
10
25.290975
20
2.620570
11
25.290975
21
2.620570
0
LINE
8
Layer 1
10
64.664577
20
6.555408
11
67.385866
21
6.555408
0
LINE
8
Layer 1
10
67.385866
20
6.555408
11
67.707441
21
6.711830
0
LINE
8
Layer 1
10
67.707441
20
6.711830
11
67.698418
21
7.070327
0
LINE
8
Layer 1
10
67.698418
20
7.070327
11
66.264127
21
10.104260
0
LINE
8
Layer 1
10
66.264127
20
10.104260
11
66.025132
21
10.324698
0
LINE
8
Layer 1
10
66.025132
20
10.324698
11
65.786134
21
10.104260
0
LINE
8
Layer 1
10
65.786134
20
10.104260
11
64.333581
21
7.070327
0
LINE
8
Layer 1
10
64.333581
20
7.070327
11
64.333581
21
6.702601
0
LINE
8
Layer 1
10
64.333581
20
6.702601
11
64.664591
21
6.555408
0
LINE
8
Layer 1
10
64.664591
20
6.555408
11
64.664577
21
6.555408
0
LINE
8
Layer 1
10
59.120368
20
2.694116
11
65.500572
21
15.436365
0
LINE
8
Layer 1
10
65.500572
20
15.436365
11
65.868303
21
15.657003
0
LINE
8
Layer 1
10
65.868303
20
15.657003
11
66.236023
21
15.436365
0
LINE
8
Layer 1
10
66.236023
20
15.436365
11
72.616336
21
2.694116
0
LINE
8
Layer 1
10
72.616336
20
2.694116
11
72.643922
21
2.344850
0
LINE
8
Layer 1
10
72.643922
20
2.344850
11
72.322146
21
2.197758
0
LINE
8
Layer 1
10
72.322146
20
2.197758
11
70.648860
21
2.197758
0
LINE
8
Layer 1
10
70.648860
20
2.197758
11
70.170965
21
2.344850
0
LINE
8
Layer 1
10
70.170965
20
2.344850
11
69.839956
21
2.712579
0
LINE
8
Layer 1
10
69.839956
20
2.712579
11
69.288321
21
3.815760
0
LINE
8
Layer 1
10
69.288321
20
3.815760
11
68.948184
21
4.165129
0
LINE
8
Layer 1
10
68.948184
20
4.165129
11
68.479414
21
4.312319
0
LINE
8
Layer 1
10
68.479414
20
4.312319
11
63.257377
21
4.312319
0
LINE
8
Layer 1
10
63.257377
20
4.312319
11
62.779384
21
4.165129
0
LINE
8
Layer 1
10
62.779384
20
4.165129
11
62.448375
21
3.797401
0
LINE
8
Layer 1
10
62.448375
20
3.797401
11
61.915100
21
2.712579
0
LINE
8
Layer 1
10
61.915100
20
2.712579
11
61.575063
21
2.344850
0
LINE
8
Layer 1
10
61.575063
20
2.344850
11
61.106195
21
2.197758
0
LINE
8
Layer 1
10
61.106195
20
2.197758
11
59.433007
21
2.197758
0
LINE
8
Layer 1
10
59.433007
20
2.197758
11
59.111134
21
2.344850
0
LINE
8
Layer 1
10
59.111134
20
2.344850
11
59.120368
21
2.694116
0
LINE
8
Layer 1
10
59.120368
20
2.694116
11
59.120368
21
2.694116
0
LINE
8
Layer 1
10
60.446169
20
15.482320
11
60.096909
21
15.638641
0
LINE
8
Layer 1
10
60.096909
20
15.638641
11
58.497163
21
15.638641
0
LINE
8
Layer 1
10
58.497163
20
15.638641
11
58.037628
21
15.482320
0
LINE
8
Layer 1
10
58.037628
20
15.482320
11
57.743340
21
15.105361
0
LINE
8
Layer 1
10
57.743340
20
15.105361
11
55.426516
21
8.780239
0
LINE
8
Layer 1
10
55.426516
20
8.780239
11
55.224327
21
8.559604
0
LINE
8
Layer 1
10
55.224327
20
8.559604
11
55.003692
21
8.761877
0
LINE
8
Layer 1
10
55.003692
20
8.761877
11
52.080139
21
15.417805
0
LINE
8
Layer 1
10
52.080139
20
15.417805
11
51.739994
21
15.620180
0
LINE
8
Layer 1
10
51.739994
20
15.620180
11
51.399859
21
15.417805
0
LINE
8
Layer 1
10
51.399859
20
15.417805
11
50.752742
21
13.948679
0
LINE
8
Layer 1
10
50.752742
20
13.948679
11
49.706222
21
11.273138
0
LINE
8
Layer 1
10
49.706222
20
11.273138
11
48.710880
21
9.171837
0
LINE
8
Layer 1
10
48.710880
20
9.171837
11
47.641324
21
7.510768
0
LINE
8
Layer 1
10
47.641324
20
7.510768
11
46.372158
21
6.155923
0
LINE
8
Layer 1
10
46.372158
20
6.155923
11
47.649030
21
2.455216
0
LINE
8
Layer 1
10
47.649030
20
2.455216
11
47.970604
21
2.234480
0
LINE
8
Layer 1
10
47.970604
20
2.234480
11
48.310850
21
2.436857
0
LINE
8
Layer 1
10
48.310850
20
2.436857
11
51.510233
21
9.515695
0
LINE
8
Layer 1
10
51.510233
20
9.515695
11
51.749130
21
9.736532
0
LINE
8
Layer 1
10
51.749130
20
9.736532
11
51.988125
21
9.515695
0
LINE
8
Layer 1
10
51.988125
20
9.515695
11
55.169146
21
2.381672
0
LINE
8
Layer 1
10
55.169146
20
2.381672
11
55.500155
21
2.179396
0
LINE
8
Layer 1
10
55.500155
20
2.179396
11
55.831056
21
2.400035
0
LINE
8
Layer 1
10
55.831056
20
2.400035
11
60.464629
21
15.105361
0
LINE
8
Layer 1
10
60.464629
20
15.105361
11
60.446161
21
15.482320
0
LINE
8
Layer 1
10
60.446161
20
15.482320
11
60.446169
21
15.482320
0
LINE
8
Layer 1
10
28.820090
20
36.509539
11
25.756971
21
36.360149
0
LINE
8
Layer 1
10
25.756971
20
36.360149
11
23.675317
21
36.027259
0
LINE
8
Layer 1
10
23.675317
20
36.027259
11
22.115875
21
35.587511
0
LINE
8
Layer 1
10
22.115875
20
35.587511
11
21.003235
21
35.087521
0
LINE
8
Layer 1
10
21.003235
20
35.087521
11
20.261991
21
34.573906
0
LINE
8
Layer 1
10
20.261991
20
34.573906
11
19.816734
21
34.093281
0
LINE
8
Layer 1
10
19.816734
20
34.093281
11
19.592056
21
33.692262
0
LINE
8
Layer 1
10
19.592056
20
33.692262
11
19.502803
21
33.315508
0
LINE
8
Layer 1
10
19.502803
20
33.315508
11
19.325701
21
33.812638
0
LINE
8
Layer 1
10
19.325701
20
33.812638
11
19.207701
21
35.973253
0
LINE
8
Layer 1
10
19.207701
20
35.973253
11
18.003484
21
35.885688
0
LINE
8
Layer 1
10
18.003484
20
35.885688
11
16.828656
21
35.638459
0
LINE
8
Layer 1
10
16.828656
20
35.638459
11
14.588362
21
34.757807
0
LINE
8
Layer 1
10
14.588362
20
34.757807
11
12.639807
21
33.574685
0
LINE
8
Layer 1
10
12.639807
20
33.574685
11
10.903032
21
32.088151
0
LINE
8
Layer 1
10
10.903032
20
32.088151
11
9.457958
21
30.285191
0
LINE
8
Layer 1
10
9.457958
20
30.285191
11
8.299451
21
28.198472
0
LINE
8
Layer 1
10
8.299451
20
28.198472
11
7.430809
21
26.049467
0
LINE
8
Layer 1
10
7.430809
20
26.049467
11
6.855329
21
24.059645
0
LINE
8
Layer 1
10
6.855329
20
24.059645
11
6.445100
21
21.317710
0
LINE
8
Layer 1
10
6.445100
20
21.317710
11
6.461545
21
19.867685
0
LINE
8
Layer 1
10
6.461545
20
19.867685
11
6.793404
21
18.823433
0
LINE
8
Layer 1
10
6.793404
20
18.823433
11
7.443887
21
18.207638
0
LINE
8
Layer 1
10
7.443887
20
18.207638
11
8.163521
21
17.904704
0
LINE
8
Layer 1
10
8.163521
20
17.904704
11
9.566390
21
17.732671
0
LINE
8
Layer 1
10
9.566390
20
17.732671
11
11.062158
21
17.669430
0
LINE
8
Layer 1
10
11.062158
20
17.669430
11
12.990975
21
17.761386
0
LINE
8
Layer 1
10
12.990975
20
17.761386
11
18.187805
21
18.444864
0
LINE
8
Layer 1
10
18.187805
20
18.444864
11
22.525496
21
19.129571
0
LINE
8
Layer 1
10
22.525496
20
19.129571
11
25.823462
21
19.491246
0
LINE
8
Layer 1
10
25.823462
20
19.491246
11
29.545589
21
19.690413
0
LINE
8
Layer 1
10
29.545589
20
19.690413
11
31.787240
21
19.617711
0
LINE
8
Layer 1
10
31.787240
20
19.617711
11
34.231789
21
19.324545
0
LINE
8
Layer 1
10
34.231789
20
19.324545
11
36.572589
21
18.815786
0
LINE
8
Layer 1
10
36.572589
20
18.815786
11
38.502991
21
18.096304
0
LINE
8
Layer 1
10
38.502991
20
18.096304
11
39.985892
21
17.219417
0
LINE
8
Layer 1
10
39.985892
20
17.219417
11
41.379634
21
15.957914
0
LINE
8
Layer 1
10
41.379634
20
15.957914
11
41.958635
21
15.141238
0
LINE
8
Layer 1
10
41.958635
20
15.141238
11
42.414022
21
14.178373
0
LINE
8
Layer 1
10
42.414022
20
14.178373
11
42.712022
21
13.052643
0
LINE
8
Layer 1
10
42.712022
20
13.052643
11
42.818861
21
11.747370
0
LINE
8
Layer 1
10
42.818861
20
11.747370
11
42.704432
21
10.583247
0
LINE
8
Layer 1
10
42.704432
20
10.583247
11
42.382605
21
9.474292
0
LINE
8
Layer 1
10
42.382605
20
9.474292
11
41.885568
21
8.480401
0
LINE
8
Layer 1
10
41.885568
20
8.480401
11
41.245513
21
7.661469
0
LINE
8
Layer 1
10
41.245513
20
7.661469
11
37.352542
21
15.436373
0
LINE
8
Layer 1
10
37.352542
20
15.436373
11
36.984811
21
15.656991
0
LINE
8
Layer 1
10
36.984811
20
15.656991
11
36.617091
21
15.436373
0
LINE
8
Layer 1
10
36.617091
20
15.436373
11
32.844434
21
7.901768
0
LINE
8
Layer 1
10
32.844434
20
7.901768
11
31.521895
21
9.125914
0
LINE
8
Layer 1
10
31.521895
20
9.125914
11
30.218690
21
10.943516
0
LINE
8
Layer 1
10
30.218690
20
10.943516
11
29.813304
21
11.854121
0
LINE
8
Layer 1
10
29.813304
20
11.854121
11
29.562287
21
12.849252
0
LINE
8
Layer 1
10
29.562287
20
12.849252
11
29.262238
21
12.323396
0
LINE
8
Layer 1
10
29.262238
20
12.323396
11
29.112835
21
11.623002
0
LINE
8
Layer 1
10
29.112835
20
11.623002
11
29.122376
21
10.786465
0
LINE
8
Layer 1
10
29.122376
20
10.786465
11
29.299163
21
9.852178
0
LINE
8
Layer 1
10
29.299163
20
9.852178
11
29.651496
21
8.858535
0
LINE
8
Layer 1
10
29.651496
20
8.858535
11
30.187674
21
7.843931
0
LINE
8
Layer 1
10
30.187674
20
7.843931
11
30.915998
21
6.846759
0
LINE
8
Layer 1
10
30.915998
20
6.846759
11
31.844768
21
5.905413
0
LINE
8
Layer 1
10
31.844768
20
5.905413
11
30.236889
21
2.694121
0
LINE
8
Layer 1
10
30.236889
20
2.694121
11
30.227655
21
2.344956
0
LINE
8
Layer 1
10
30.227655
20
2.344956
11
30.549420
21
2.197753
0
LINE
8
Layer 1
10
30.549420
20
2.197753
11
32.222619
21
2.197753
0
LINE
8
Layer 1
10
32.222619
20
2.197753
11
32.691587
21
2.344956
0
LINE
8
Layer 1
10
32.691587
20
2.344956
11
33.031579
21
2.712684
0
LINE
8
Layer 1
10
33.031579
20
2.712684
11
33.564796
21
3.797398
0
LINE
8
Layer 1
10
33.564796
20
3.797398
11
33.709668
21
4.014946
0
LINE
8
Layer 1
10
33.709668
20
4.014946
11
33.968160
21
4.528295
0
LINE
8
Layer 1
10
33.968160
20
4.528295
11
35.502148
21
3.997722
0
LINE
8
Layer 1
10
35.502148
20
3.997722
11
37.088284
21
3.761737
0
LINE
8
Layer 1
10
37.088284
20
3.761737
11
38.694835
21
3.799874
0
LINE
8
Layer 1
10
38.694835
20
3.799874
11
40.290067
21
4.091664
0
LINE
8
Layer 1
10
40.290067
20
4.091664
11
41.150806
21
2.447776
0
LINE
8
Layer 1
10
41.150806
20
2.447776
11
41.287354
21
2.344956
0
LINE
8
Layer 1
10
41.287354
20
2.344956
11
41.765260
21
2.197753
0
LINE
8
Layer 1
10
41.765260
20
2.197753
11
43.438734
21
2.197753
0
LINE
8
Layer 1
10
43.438734
20
2.197753
11
43.760311
21
2.344956
0
LINE
8
Layer 1
10
43.760311
20
2.344956
11
43.732813
21
2.694121
0
LINE
8
Layer 1
10
43.732813
20
2.694121
11
42.596686
21
4.962923
0
LINE
8
Layer 1
10
42.596686
20
4.962923
11
44.519220
21
6.149943
0
LINE
8
Layer 1
10
44.519220
20
6.149943
11
45.753638
21
7.240518
0
LINE
8
Layer 1
10
45.753638
20
7.240518
11
46.782532
21
8.474361
0
LINE
8
Layer 1
10
46.782532
20
8.474361
11
47.618518
21
9.816457
0
LINE
8
Layer 1
10
47.618518
20
9.816457
11
48.274214
21
11.231789
0
LINE
8
Layer 1
10
48.274214
20
11.231789
11
48.762237
21
12.685340
0
LINE
8
Layer 1
10
48.762237
20
12.685340
11
49.095203
21
14.142095
0
LINE
8
Layer 1
10
49.095203
20
14.142095
11
49.346436
21
16.925149
0
LINE
8
Layer 1
10
49.346436
20
16.925149
11
49.106904
21
19.749884
0
LINE
8
Layer 1
10
49.106904
20
19.749884
11
48.401581
21
22.594076
0
LINE
8
Layer 1
10
48.401581
20
22.594076
11
47.250375
21
25.373786
0
LINE
8
Layer 1
10
47.250375
20
25.373786
11
45.673192
21
28.005075
0
LINE
8
Layer 1
10
45.673192
20
28.005075
11
43.689942
21
30.404003
0
LINE
8
Layer 1
10
43.689942
20
30.404003
11
41.320531
21
32.486630
0
LINE
8
Layer 1
10
41.320531
20
32.486630
11
38.584868
21
34.169019
0
LINE
8
Layer 1
10
38.584868
20
34.169019
11
37.085913
21
34.833892
0
LINE
8
Layer 1
10
37.085913
20
34.833892
11
35.502861
21
35.367228
0
LINE
8
Layer 1
10
35.502861
20
35.367228
11
32.545992
21
36.110570
0
LINE
8
Layer 1
10
32.545992
20
36.110570
11
30.798391
21
36.381457
0
LINE
8
Layer 1
10
30.798391
20
36.381457
11
28.820071
21
36.509539
0
LINE
8
Layer 1
10
28.820071
20
36.509539
11
28.820090
21
36.509539
0
LINE
8
Layer 1
10
13.006209
20
29.883320
11
13.483453
21
29.841402
0
LINE
8
Layer 1
10
13.483453
20
29.841402
11
14.641073
21
29.370809
0
LINE
8
Layer 1
10
14.641073
20
29.370809
11
15.499775
21
28.481433
0
LINE
8
Layer 1
10
15.499775
20
28.481433
11
15.978707
21
27.298545
0
LINE
8
Layer 1
10
15.978707
20
27.298545
11
15.997015
21
25.947414
0
LINE
8
Layer 1
10
15.997015
20
25.947414
11
15.529671
21
24.679554
0
LINE
8
Layer 1
10
15.529671
20
24.679554
11
14.684048
21
23.723755
0
LINE
8
Layer 1
10
14.684048
20
23.723755
11
13.578148
21
23.171209
0
LINE
8
Layer 1
10
13.578148
20
23.171209
11
12.329978
21
23.113109
0
LINE
8
Layer 1
10
12.329978
20
23.113109
11
11.172374
21
23.583696
0
LINE
8
Layer 1
10
11.172374
20
23.583696
11
10.313696
21
24.473056
0
LINE
8
Layer 1
10
10.313696
20
24.473056
11
9.834767
21
25.655928
0
LINE
8
Layer 1
10
9.834767
20
25.655928
11
9.816412
21
27.007051
0
LINE
8
Layer 1
10
9.816412
20
27.007051
11
10.222039
21
28.167888
0
LINE
8
Layer 1
10
10.222039
20
28.167888
11
10.947422
21
29.079452
0
LINE
8
Layer 1
10
10.947422
20
29.079452
11
11.904749
21
29.673882
0
LINE
8
Layer 1
10
11.904749
20
29.673882
11
13.006209
21
29.883320
0
LINE
8
Layer 1
10
13.006209
20
29.883320
11
13.006209
21
29.883320
0
LINE
8
Layer 1
10
36.984811
20
10.324706
11
37.223809
21
10.104273
0
LINE
8
Layer 1
10
37.223809
20
10.104273
11
37.983091
21
8.497977
0
LINE
8
Layer 1
10
37.983091
20
8.497977
11
39.015605
21
6.525952
0
LINE
8
Layer 1
10
39.015605
20
6.525952
11
37.302950
21
6.307298
0
LINE
8
Layer 1
10
37.302950
20
6.307298
11
35.720049
21
6.447512
0
LINE
8
Layer 1
10
35.720049
20
6.447512
11
35.041772
21
6.660035
0
LINE
8
Layer 1
10
35.041772
20
6.660035
11
36.159241
21
8.879011
0
LINE
8
Layer 1
10
36.159241
20
8.879011
11
36.745814
21
10.104273
0
LINE
8
Layer 1
10
36.745814
20
10.104273
11
36.984811
21
10.324706
0
LINE
8
Layer 1
10
36.984811
20
10.324706
11
36.984811
21
10.324706
0
LINE
8
Layer 1
10
15.644091
20
25.927781
11
15.557628
21
25.396570
0
LINE
8
Layer 1
10
15.557628
20
25.396570
11
15.321831
21
24.962781
0
LINE
8
Layer 1
10
15.321831
20
24.962781
11
14.972087
21
24.670313
0
LINE
8
Layer 1
10
14.972087
20
24.670313
11
14.543782
21
24.563069
0
LINE
8
Layer 1
10
14.543782
20
24.563069
11
14.115462
21
24.670313
0
LINE
8
Layer 1
10
14.115462
20
24.670313
11
13.765684
21
24.962781
0
LINE
8
Layer 1
10
13.765684
20
24.962781
11
13.529854
21
25.396570
0
LINE
8
Layer 1
10
13.529854
20
25.396570
11
13.443377
21
25.927781
0
LINE
8
Layer 1
10
13.443377
20
25.927781
11
13.529854
21
26.458951
0
LINE
8
Layer 1
10
13.529854
20
26.458951
11
13.765684
21
26.892745
0
LINE
8
Layer 1
10
13.765684
20
26.892745
11
14.115462
21
27.185236
0
LINE
8
Layer 1
10
14.115462
20
27.185236
11
14.543782
21
27.292495
0
LINE
8
Layer 1
10
14.543782
20
27.292495
11
14.972087
21
27.185236
0
LINE
8
Layer 1
10
14.972087
20
27.185236
11
15.321831
21
26.892745
0
LINE
8
Layer 1
10
15.321831
20
26.892745
11
15.557628
21
26.458951
0
LINE
8
Layer 1
10
15.557628
20
26.458951
11
15.644091
21
25.927781
0
LINE
8
Layer 1
10
15.644091
20
25.927781
11
15.644091
21
25.927781
 0 
ENDSEC
 0 
EOF