<?xml version="1.0" encoding="UTF-8" standalone="no"?>
<svg
   width="100%"
   height="100%"
   viewBox="0 0 2880 1455"
   version="1.1"
   xml:space="preserve"
   style="fill-rule:evenodd;clip-rule:evenodd;stroke-linejoin:round;stroke-miterlimit:2;"
   id="svg7"
   sodipodi:docname="cookiecutter6_5.svg"
   inkscape:version="1.3.1 (9b9bdc1480, 2023-11-25, custom)"
   xmlns:inkscape="http://www.inkscape.org/namespaces/inkscape"
   xmlns:sodipodi="http://sodipodi.sourceforge.net/DTD/sodipodi-0.dtd"
   xmlns="http://www.w3.org/2000/svg"
   xmlns:svg="http://www.w3.org/2000/svg"><defs
   id="defs7" /><sodipodi:namedview
   id="namedview7"
   pagecolor="#ffffff"
   bordercolor="#000000"
   borderopacity="0.25"
   inkscape:showpageshadow="2"
   inkscape:pageopacity="0.0"
   inkscape:pagecheckerboard="0"
   inkscape:deskcolor="#d1d1d1"
   inkscape:zoom="0.16"
   inkscape:cx="156.25"
   inkscape:cy="943.75"
   inkscape:window-width="1854"
   inkscape:window-height="1043"
   inkscape:window-x="0"
   inkscape:window-y="0"
   inkscape:window-maximized="1"
   inkscape:current-layer="svg7" />
    <g
   transform="matrix(3.5597609,0,0,3.5597609,0,0.40393353)"
   id="g7">
        <path
   d="m 1.852,323.989 7.781,-11.485 c 0.862,-1.357 2.037,-2.159 3.52,-2.409 1.482,-0.247 2.899,0.064 4.26,0.925 5.557,3.46 10.992,6.425 16.303,8.894 7.04,3.459 14.635,5.186 22.787,5.186 4.197,0 7.902,-0.555 11.115,-1.666 2.963,-0.864 5.68,-2.224 8.15,-4.076 2.223,-1.728 3.89,-3.643 5.003,-5.743 1.112,-1.975 1.667,-4.075 1.667,-6.3 0,-2.593 -0.865,-4.937 -2.595,-7.038 -1.605,-1.73 -3.828,-3.272 -6.667,-4.632 -1.361,-0.618 -2.843,-1.173 -4.447,-1.666 -1.606,-0.494 -3.399,-0.988 -5.373,-1.484 -1.852,-0.491 -3.736,-0.926 -5.65,-1.296 -1.916,-0.37 -3.921,-0.74 -6.021,-1.112 -1.36,-0.245 -2.842,-0.523 -4.445,-0.833 -1.607,-0.307 -3.275,-0.649 -5.002,-1.02 -3.583,-0.492 -7.289,-1.418 -11.116,-2.779 -3.954,-1.111 -7.72,-2.653 -11.3,-4.631 -3.705,-1.852 -7.04,-4.26 -10.004,-7.225 C 6.854,270.884 4.445,267.426 2.592,263.225 0.862,259.15 0,254.457 0,249.146 c 0,-7.782 1.602,-14.387 4.815,-19.823 3.087,-5.062 7.162,-9.199 12.228,-12.41 4.817,-2.842 10.374,-4.939 16.673,-6.3 5.804,-1.234 11.731,-1.853 17.784,-1.853 5.68,0 10.745,0.37 15.191,1.113 2.224,0.37 4.354,0.833 6.392,1.388 2.038,0.555 4.043,1.144 6.02,1.76 1.975,0.742 3.89,1.575 5.743,2.5 1.852,0.927 3.642,1.885 5.372,2.872 1.234,0.741 2.408,1.483 3.521,2.225 1.112,0.74 2.344,1.48 3.705,2.221 1.357,0.99 2.159,2.224 2.407,3.705 0.248,1.484 -0.123,2.904 -1.11,4.262 l -7.78,11.115 c -0.991,1.36 -2.256,2.161 -3.8,2.408 -1.545,0.25 -2.995,-0.06 -4.353,-0.926 -4.817,-3.085 -9.387,-5.432 -13.708,-7.04 -5.807,-2.344 -12.042,-3.52 -18.712,-3.52 -1.11,0 -2.315,0.065 -3.612,0.185 -1.296,0.125 -2.625,0.31 -3.983,0.556 -2.843,0.62 -5.557,1.545 -8.151,2.779 -1.237,0.62 -2.38,1.296 -3.427,2.038 -1.05,0.742 -2.008,1.606 -2.872,2.593 -1.606,1.977 -2.408,4.325 -2.408,7.04 0,2.718 0.987,5.002 2.965,6.855 1.973,1.852 4.505,3.399 7.595,4.632 1.602,0.618 3.243,1.174 4.908,1.668 1.668,0.493 3.428,0.988 5.28,1.48 1.853,0.495 3.674,0.927 5.465,1.297 1.79,0.371 3.549,0.804 5.28,1.298 1.357,0.248 2.78,0.555 4.262,0.925 1.481,0.37 3.085,0.68 4.816,0.926 1.729,0.249 3.52,0.589 5.372,1.021 1.853,0.431 3.705,0.956 5.558,1.573 0.987,0.25 2.007,0.555 3.057,0.925 1.047,0.372 2.067,0.743 3.056,1.113 1.482,0.62 3.179,1.421 5.095,2.407 1.914,0.991 3.549,1.978 4.909,2.965 0.988,0.62 1.882,1.268 2.686,1.946 0.802,0.68 1.575,1.389 2.317,2.129 3.085,3.089 5.433,6.67 7.04,10.746 1.852,4.325 2.778,9.511 2.778,15.562 0,6.918 -1.235,13.031 -3.705,18.34 -2.473,5.187 -5.992,9.448 -10.56,12.783 -4.696,3.583 -10.128,6.176 -16.303,7.78 -6.547,1.727 -13.523,2.595 -20.933,2.595 -7.165,0 -13.403,-0.558 -18.711,-1.669 -5.065,-0.864 -9.943,-2.284 -14.635,-4.261 -2.223,-0.862 -4.385,-1.82 -6.484,-2.872 -2.101,-1.046 -4.139,-2.19 -6.113,-3.427 -1.236,-0.741 -2.473,-1.511 -3.705,-2.314 -1.236,-0.802 -2.533,-1.697 -3.891,-2.687 -1.36,-0.862 -2.162,-2.038 -2.409,-3.52 -0.249,-1.481 0.062,-2.9 0.927,-4.261 z"
   style="fill:#3d87c7;fill-rule:nonzero"
   id="path1" />
        <path
   d="M 212.672,342.145 163.393,288.79 c -0.99,-1.111 -1.852,-1.51 -2.593,-1.203 -0.742,0.308 -1.112,1.268 -1.112,2.872 v 50.203 c 0,1.606 -0.555,2.964 -1.667,4.075 -1.111,1.113 -2.471,1.668 -4.076,1.668 H 139.31 c -1.605,0 -2.935,-0.555 -3.982,-1.668 -1.051,-1.111 -1.575,-2.469 -1.575,-4.075 V 216.541 c 0,-1.603 0.524,-2.963 1.575,-4.076 1.047,-1.111 2.377,-1.667 3.982,-1.667 h 14.635 c 1.605,0 2.965,0.556 4.076,1.667 1.112,1.113 1.667,2.473 1.667,4.076 v 57.428 c 0,1.608 0.34,2.533 1.02,2.78 0.677,0.25 1.51,-0.247 2.5,-1.482 l 46.871,-59.838 c 0.987,-1.233 2.344,-2.283 4.075,-3.149 1.728,-0.862 3.395,-1.297 5.002,-1.297 h 20.563 c 1.604,0 2.622,0.435 3.058,1.297 0.43,0.866 0.152,1.916 -0.835,3.149 l -48.722,61.135 c -0.99,1.235 -1.452,2.687 -1.389,4.353 0.06,1.667 0.648,3.057 1.76,4.168 l 53.353,57.245 c 0.987,1.111 1.325,2.07 1.018,2.872 -0.308,0.803 -1.266,1.203 -2.871,1.203 h -22.972 c -1.606,0 -3.333,-0.4 -5.186,-1.203 -1.852,-0.802 -3.274,-1.822 -4.261,-3.057 z"
   style="fill:#3d87c7;fill-rule:nonzero"
   id="path2" />
        <path
   d="m 609.376,302.5 h 27.418 c 1.603,0 2.686,-0.525 3.24,-1.576 0.558,-1.047 0.525,-2.252 -0.091,-3.612 l -14.451,-30.568 c -0.619,-1.48 -1.421,-2.221 -2.408,-2.221 -0.99,0 -1.791,0.741 -2.408,2.221 l -14.635,30.568 c -0.62,1.483 -0.62,2.719 0,3.705 0.617,0.99 1.728,1.483 3.335,1.483 z m -55.86,38.904 64.283,-128.383 c 0.742,-1.482 1.975,-2.223 3.705,-2.223 1.728,0 2.965,0.741 3.705,2.223 l 64.284,128.383 c 0.742,1.361 0.834,2.533 0.278,3.519 -0.556,0.99 -1.638,1.482 -3.242,1.482 H 669.67 c -1.605,0 -3.213,-0.492 -4.815,-1.482 -1.608,-0.986 -2.718,-2.223 -3.335,-3.705 l -5.558,-11.115 c -0.74,-1.358 -1.885,-2.53 -3.427,-3.52 -1.546,-0.986 -3.121,-1.483 -4.723,-1.483 h -52.614 c -1.606,0 -3.212,0.497 -4.816,1.483 -1.606,0.99 -2.719,2.222 -3.335,3.705 l -5.373,10.93 c -0.74,1.482 -1.883,2.719 -3.426,3.705 -1.547,0.99 -3.12,1.482 -4.724,1.482 h -16.858 c -1.607,0 -2.687,-0.492 -3.243,-1.482 -0.555,-0.986 -0.527,-2.158 0.093,-3.519 z"
   style="fill:#3d87c7;fill-rule:nonzero"
   id="path3" />
        <path
   d="m 566.874,212.558 c -0.74,-1.047 -1.915,-1.575 -3.519,-1.575 h -16.118 c -1.606,0 -3.148,0.528 -4.63,1.575 -1.483,1.05 -2.473,2.316 -2.965,3.798 l -23.343,63.728 c -0.493,1.481 -1.174,2.223 -2.037,2.223 -0.866,0 -1.607,-0.678 -2.223,-2.038 l -29.456,-67.061 c -0.62,-1.359 -1.76,-2.039 -3.427,-2.039 -1.668,0 -2.81,0.68 -3.427,2.039 l -6.52,14.802 c -14.964,40.4 -25.184,61.771 -44.136,78.515 l 12.865,37.286 c 0.615,1.484 1.695,2.224 3.24,2.224 1.544,0 2.687,-0.679 3.428,-2.039 l 32.235,-71.322 c 0.617,-1.483 1.417,-2.225 2.407,-2.225 0.988,0 1.79,0.742 2.408,2.225 l 32.05,71.878 c 0.617,1.361 1.728,2.038 3.335,2.038 1.602,0 2.714,-0.74 3.334,-2.223 L 567.06,216.356 c 0.617,-1.482 0.555,-2.748 -0.186,-3.798 z"
   style="fill:#3d87c7;fill-rule:nonzero"
   id="path4" />
        <path
   d="m 317.749,303.587 c -2.155,-0.499 -4.457,-1.235 -6.834,-2.141 l 11.259,-22.357 5.91,-12.345 c 0.617,-1.48 1.418,-2.221 2.408,-2.221 0.987,0 1.789,0.741 2.408,2.221 l 7.65,16.184 10.403,19.869 c -11.17,2.639 -23.777,2.972 -33.204,0.79 z M 315.561,12.21 C 291.605,5.365 262.139,-2.785 217.367,2.206 c -63.62,7.091 -63.013,30.676 -63.013,30.676 0,0 -3.767,-4.431 -2.973,-26.778 -16.351,0 -32.055,4.913 -46.542,12.246 -14.011,7.09 -25.965,15.732 -37.131,26.898 -21.323,21.323 -35.035,56.22 -40.782,80.89 -3.05,13.09 -7.764,42.994 -0.624,52.757 8.001,10.939 19.498,10.082 27.939,10.99 17.23,1.854 45.826,-0.234 86.864,-7.176 15.713,-2.659 62.686,-11.554 114.434,-12.549 27.378,-0.526 68.446,5.002 90.249,16.061 19.31,9.794 43.484,26.337 43.484,63.968 0,15.741 -6.437,31.609 -15.852,41.167 l -39.223,-78.335 c -0.74,-1.482 -1.978,-2.223 -3.705,-2.223 -1.731,0 -2.963,0.741 -3.705,2.223 l -38.011,75.914 c -4.974,-3.744 -9.591,-7.933 -13.325,-12.334 -11.057,-13.032 -17.376,-23.298 -19.744,-37.514 -10.011,11.44 -4.724,45.764 22.997,69.962 l -16.2,32.355 c -0.621,1.361 -0.649,2.533 -0.093,3.518 0.555,0.991 1.635,1.483 3.242,1.483 h 16.858 c 1.604,0 3.178,-0.492 4.725,-1.483 1.542,-0.985 2.685,-2.222 3.426,-3.705 l 5.372,-10.929 c 0.336,-0.807 0.831,-1.533 1.46,-2.192 l 2.604,-5.172 c 20.115,9.198 42.484,9.931 63.696,4.399 l 8.672,16.563 c 0.414,0.368 0.86,0.72 1.376,1.036 1.603,0.991 3.21,1.483 4.815,1.483 h 16.861 c 1.602,0 2.684,-0.492 3.24,-1.483 0.557,-0.985 0.465,-2.157 -0.277,-3.518 l -11.447,-22.859 c 6.787,-3.389 13.293,-7.397 19.37,-11.96 36.04,-27.063 48.636,-73.286 48.636,-108.564 0,-74.881 -52.198,-160.874 -139.479,-185.811 z"
   style="fill:#3d87c7;fill-rule:nonzero"
   id="path5" />
        <path
   d="m 119.032,107.118 c 3.21,-18.72 -8.128,-36.285 -25.325,-39.233 -17.196,-2.948 -33.738,9.837 -36.947,28.557 -3.209,18.72 8.128,36.285 25.325,39.233 17.195,2.949 33.738,-9.837 36.947,-28.557 z"
   style="fill:#ffffff;fill-rule:nonzero"
   id="path6" />
        <path
   d="m 115.476,107.316 c 0,7.594 -4.963,13.75 -11.086,13.75 -6.123,0 -11.087,-6.156 -11.087,-13.75 0,-7.593 4.964,-13.75 11.087,-13.75 6.123,0 11.086,6.157 11.086,13.75 z"
   style="fill:#3d87c7;fill-rule:nonzero"
   id="path7" />
    </g>
</svg>
