<?xml version="1.0" encoding="UTF-8" standalone="no"?>
<svg
   width="75mm"
   height="38mm"
   viewBox="0 0 283.46457 143.62205"
   version="1.1"
   xml:space="preserve"
   style="clip-rule:evenodd;fill-rule:evenodd;stroke-linejoin:round;stroke-miterlimit:2"
   id="svg7"
   sodipodi:docname="skawa_logo_circle.svg"
   inkscape:version="1.3.1 (9b9bdc1480, 2023-11-25, custom)"
   xmlns:inkscape="http://www.inkscape.org/namespaces/inkscape"
   xmlns:sodipodi="http://sodipodi.sourceforge.net/DTD/sodipodi-0.dtd"
   xmlns="http://www.w3.org/2000/svg"
   xmlns:svg="http://www.w3.org/2000/svg"><defs
   id="defs7">
        
        
        
        
        
        
        
    </defs><sodipodi:namedview
   id="namedview7"
   pagecolor="#ffffff"
   bordercolor="#000000"
   borderopacity="0.25"
   inkscape:showpageshadow="2"
   inkscape:pageopacity="0.0"
   inkscape:pagecheckerboard="0"
   inkscape:deskcolor="#d1d1d1"
   showgrid="false"
   inkscape:zoom="1.6277778"
   inkscape:cx="40.853242"
   inkscape:cy="156.65529"
   inkscape:window-width="1854"
   inkscape:window-height="1043"
   inkscape:window-x="0"
   inkscape:window-y="0"
   inkscape:window-maximized="1"
   inkscape:current-layer="svg7"
   inkscape:document-units="mm" />
    
<path
   id="circle10"
   style="fill:#000000;stroke-width:0.831099"
   d="M 128.26194,0.33061832 A 132.28346,132.28346 0 0 0 -4.0215298,132.61408 132.28346,132.28346 0 0 0 128.26194,264.89754 132.28346,132.28346 0 0 0 260.5454,132.61408 132.28346,132.28346 0 0 0 128.26194,0.33061832 Z M 104.94181,62.119742 c 8.87647,0.159156 15.48472,1.999915 21.12057,3.610239 27.37767,7.822069 43.75,34.795809 43.75,58.283949 0,11.06575 -3.95088,25.56543 -15.25566,34.05437 -1.9062,1.43128 -3.94616,2.68844 -6.07505,3.75148 l 3.58957,7.17053 c 0.2327,0.42689 0.26256,0.79339 0.0878,1.10235 -0.17438,0.31087 -0.51373,0.46679 -1.01623,0.46679 h -5.28962 c -0.50344,0 -1.00778,-0.15594 -1.51058,-0.46679 -0.16188,-0.0991 -0.30074,-0.2084 -0.43061,-0.32383 l -2.72146,-5.19487 c -6.65362,1.73524 -13.66906,1.50376 -19.97859,-1.3814 l -0.81817,1.62254 c -0.19729,0.20671 -0.35104,0.43412 -0.45644,0.68725 l -1.68627,3.42938 c -0.23244,0.46517 -0.59112,0.85197 -1.07481,1.16093 -0.48524,0.31086 -0.97816,0.46678 -1.48129,0.46678 h -5.2879 c -0.50409,0 -0.84216,-0.15594 -1.01624,-0.46678 -0.17453,-0.30898 -0.16724,-0.67547 0.0276,-1.10237 l 5.08292,-10.14861 c -8.69534,-7.59027 -10.35379,-18.35721 -7.21359,-21.94562 0.74277,4.45917 2.72388,7.67993 6.19218,11.76771 1.17124,1.38048 2.62015,2.69422 4.18036,3.8686 l 11.92274,-23.81274 c 0.23274,-0.46485 0.61968,-0.69759 1.16265,-0.69759 0.54171,0 0.92882,0.23275 1.16092,0.69759 l 12.3034,24.57234 c 2.95324,-2.99809 4.97268,-7.97561 4.97268,-12.91314 0,-11.80383 -7.58297,-16.99432 -13.64,-20.06643 -6.83903,-3.46891 -19.72058,-5.20141 -28.30832,-5.03642 -16.231944,0.31211 -30.966933,3.10172 -35.895675,3.93578 -12.872511,2.17751 -21.840986,2.83278 -27.245567,2.25123 -2.647699,-0.28483 -6.254082,-0.017 -8.763779,-3.44833 -2.239612,-3.06238 -0.76207,-12.44151 0.194645,-16.54748 1.802672,-7.73831 6.104134,-18.684829 12.792571,-25.373285 3.502477,-3.502469 7.252282,-6.214288 11.647154,-8.438237 4.544172,-2.300153 9.470552,-3.841036 14.599401,-3.841036 -0.249033,7.009648 0.931838,8.400344 0.931838,8.400344 0,0 -0.189127,-7.399018 19.766728,-9.623278 3.51095,-0.391374 6.721314,-0.524954 9.680134,-0.471953 z M 54.963457,83.061174 c -4.821706,-0.02381 -9.169247,3.769588 -10.081447,9.091046 -1.006579,5.87196 2.549669,11.38041 7.943905,12.30512 5.393601,0.92502 10.583724,-3.08474 11.590295,-8.95669 1.006908,-5.871961 -2.549665,-11.382134 -7.943894,-12.306848 -0.505682,-0.0867 -1.010063,-0.130167 -1.508859,-0.132624 z m 4.85901,8.188491 c 1.920624,0 3.477607,1.931265 3.477607,4.312995 0,2.38203 -1.556983,4.31299 -3.477607,4.31299 -1.920616,0 -3.477608,-1.93096 -3.477608,-4.31299 0,-2.38173 1.556992,-4.312995 3.477608,-4.312995 z m -16.59055,36.133365 c 1.781681,0 3.371403,0.1166 4.765996,0.34964 0.697602,0.11607 1.365634,0.25996 2.004914,0.43406 0.639266,0.17408 1.267665,0.3597 1.887799,0.5529 0.619502,0.23274 1.220432,0.49355 1.801674,0.78371 0.580921,0.29076 1.14189,0.59124 1.684543,0.90084 0.387069,0.23244 0.756688,0.46484 1.10581,0.69758 0.348813,0.2321 0.734015,0.46516 1.160928,0.6976 0.425661,0.31052 0.678368,0.69809 0.756151,1.16264 0.07778,0.4655 -0.04002,0.91064 -0.349644,1.33662 l -2.438975,3.48622 c -0.310828,0.4266 -0.707618,0.67691 -1.191927,0.75443 -0.484614,0.0784 -0.939934,-0.0178 -1.365894,-0.28936 -1.510969,-0.96769 -2.943837,-1.70378 -4.299213,-2.20817 -1.821528,-0.73525 -3.777883,-1.10409 -5.870079,-1.10409 -0.34817,0 -0.726519,0.0193 -1.13337,0.0569 -0.406515,0.0392 -0.822796,0.0985 -1.248764,0.17567 -0.891776,0.19446 -1.744157,0.4845 -2.557825,0.87157 -0.388007,0.19445 -0.746389,0.40627 -1.074804,0.63902 -0.329348,0.23275 -0.62982,0.5034 -0.900842,0.81299 -0.503762,0.62014 -0.754428,1.35654 -0.754428,2.20818 0,0.85255 0.309657,1.5701 0.930119,2.15132 0.618867,0.58093 1.412893,1.06525 2.382134,1.45201 0.5025,0.19386 1.017585,0.36866 1.539867,0.52363 0.5232,0.15462 1.074326,0.30901 1.655263,0.46333 0.581227,0.15527 1.152049,0.29216 1.71383,0.40822 0.561464,0.11637 1.11402,0.25153 1.656983,0.4065 0.425661,0.0778 0.871767,0.17333 1.336618,0.28936 0.464553,0.11607 0.96762,0.21392 1.510579,0.2911 0.542355,0.0781 1.103626,0.18485 1.684551,0.32035 0.581227,0.13519 1.163592,0.29911 1.74483,0.49262 0.309619,0.0784 0.628309,0.17503 0.957679,0.2911 0.328403,0.11672 0.649176,0.23358 0.959399,0.34965 0.464852,0.19449 0.997418,0.44516 1.598423,0.75443 0.600367,0.31087 1.113264,0.62051 1.539859,0.93012 0.309921,0.19445 0.590082,0.39707 0.842275,0.60974 0.251566,0.21331 0.494117,0.43619 0.726871,0.66831 0.96768,0.96892 1.704095,2.09229 2.208174,3.37081 0.580917,1.35665 0.871555,2.98336 0.871555,4.88141 0,2.16998 -0.387874,4.08766 -1.16265,5.75294 -0.77571,1.62703 -1.879393,2.96375 -3.312253,4.00985 -1.473011,1.1239 -3.176992,1.93757 -5.113928,2.4407 -2.053614,0.54173 -4.241635,0.81299 -6.565943,0.81299 -2.24748,0 -4.205091,-0.17511 -5.870078,-0.52363 -1.588751,-0.27103 -3.118556,-0.71647 -4.590308,-1.33661 -0.6973,-0.27038 -1.375809,-0.57085 -2.034202,-0.90084 -0.659029,-0.3281 -1.297894,-0.68679 -1.917079,-1.0748 -0.387704,-0.23244 -0.774486,-0.47327 -1.16092,-0.72514 -0.387715,-0.25157 -0.795242,-0.53346 -1.221214,-0.844 -0.426588,-0.27039 -0.678675,-0.63923 -0.756151,-1.10409 -0.07812,-0.46455 0.01965,-0.90969 0.291099,-1.33661 l 2.44069,-3.60163 c 0.270388,-0.42566 0.638922,-0.67775 1.104091,-0.75615 0.464863,-0.0774 0.909698,0.0212 1.336611,0.2911 1.74308,1.08532 3.448014,2.01417 5.113928,2.78863 2.208253,1.08499 4.591056,1.62771 7.148133,1.62771 1.316485,0 2.478391,-0.17511 3.486214,-0.52362 0.929408,-0.271 1.781329,-0.69713 2.556105,-1.27806 0.697293,-0.54201 1.220032,-1.14298 1.569147,-1.80167 0.348812,-0.6195 0.523623,-1.27772 0.523623,-1.97564 0,-0.81336 -0.27205,-1.54916 -0.814719,-2.20817 -0.503444,-0.54266 -1.200514,-1.02543 -2.091038,-1.45201 -0.426913,-0.19386 -0.892059,-0.369 -1.395175,-0.52363 -0.503762,-0.15496 -1.065369,-0.30946 -1.684551,-0.46505 -0.580936,-0.15402 -1.172016,-0.29046 -1.772398,-0.4065 -0.60099,-0.11607 -1.230799,-0.23297 -1.88951,-0.34964 -0.426603,-0.0768 -0.890653,-0.16282 -1.393455,-0.26011 -0.50408,-0.0963 -1.027427,-0.20402 -1.569147,-0.32035 -1.123899,-0.15432 -2.287506,-0.44465 -3.487944,-0.87156 -1.240256,-0.34851 -2.420107,-0.83158 -3.543062,-1.45201 -1.162163,-0.58093 -2.20857,-1.3367 -3.138285,-2.26674 -0.929734,-0.85163 -1.685495,-1.93595 -2.26673,-3.25369 -0.542646,-1.27823 -0.812995,-2.75042 -0.812995,-4.41634 0,-2.441 0.502756,-4.51288 1.510579,-6.21801 0.968322,-1.58781 2.245088,-2.8855 3.834156,-3.89271 1.510969,-0.89147 3.255224,-1.55045 5.231052,-1.97737 1.820549,-0.38706 3.678602,-0.58045 5.577267,-0.58045 z m 27.545269,0.63902 h 4.590308 c 0.503444,0 0.929555,0.17511 1.278051,0.52363 0.348812,0.34911 0.523623,0.77522 0.523623,1.27804 V 147.837 c 0,0.50439 0.105411,0.79404 0.318652,0.87156 0.212371,0.0784 0.474905,-0.076 0.785427,-0.46334 l 14.701039,-18.77115 c 0.30962,-0.38677 0.73508,-0.71531 1.27805,-0.98696 0.54202,-0.27039 1.06506,-0.4065 1.56914,-0.4065 h 6.450544 c 0.50314,0 0.82264,0.1361 0.9594,0.4065 0.13489,0.27163 0.0477,0.60019 -0.26181,0.98696 l -15.283219,19.17765 c -0.310526,0.38739 -0.455543,0.84332 -0.435779,1.3659 0.0189,0.52289 0.204094,0.95883 0.552903,1.30733 l 16.735245,17.95473 c 0.30958,0.34847 0.41495,0.64927 0.31865,0.90083 -0.0966,0.25191 -0.39738,0.37894 -0.90083,0.37894 h -7.204974 c -0.50375,0 -1.04647,-0.12707 -1.62771,-0.37894 -0.58093,-0.25156 -1.02703,-0.5703 -1.33661,-0.95768 L 78.330103,152.48588 c -0.310526,-0.34847 -0.580558,-0.47351 -0.812996,-0.37724 -0.232743,0.0967 -0.347943,0.39773 -0.347943,0.90084 v 15.74828 c 0,0.50376 -0.174803,0.92956 -0.523623,1.27805 -0.34851,0.34912 -0.774607,0.52363 -1.278051,0.52363 h -4.590308 c -0.503445,0 -0.922069,-0.1745 -1.250483,-0.52363 -0.329689,-0.34851 -0.492624,-0.77429 -0.492624,-1.27805 v -38.93404 c 0,-0.50282 0.162935,-0.92893 0.492624,-1.27804 0.328403,-0.34851 0.747038,-0.52363 1.250487,-0.52363 z m 151.250984,0 c 0.54203,0 0.93053,0.23271 1.16265,0.69759 l 20.1629,40.27067 c 0.23274,0.42689 0.2623,0.7948 0.0878,1.10407 -0.17439,0.31053 -0.5131,0.46507 -1.01625,0.46507 h -5.28962 c -0.50345,0 -1.00634,-0.15454 -1.50885,-0.46507 -0.50439,-0.30927 -0.85371,-0.69778 -1.04724,-1.16264 l -1.74312,-3.48622 c -0.23212,-0.42598 -0.59112,-0.79354 -1.07481,-1.10408 -0.48493,-0.30929 -0.97878,-0.46507 -1.48129,-0.46507 h -16.50443 c -0.50377,0 -1.00744,0.1558 -1.51058,0.46507 -0.50375,0.31053 -0.85228,0.69574 -1.04552,1.16092 l -1.68627,3.42938 c -0.2321,0.46486 -0.58907,0.85337 -1.07308,1.16264 -0.48525,0.31053 -0.97988,0.46507 -1.48302,0.46507 h -5.2879 c -0.50406,0 -0.84183,-0.15454 -1.01624,-0.46507 -0.17408,-0.30927 -0.1652,-0.67718 0.0291,-1.10407 l 20.1629,-40.27067 c 0.23274,-0.46486 0.61999,-0.69759 1.16264,-0.69759 z m -23.29601,0.0585 h 5.05536 c 0.50313,0 0.87196,0.16592 1.10409,0.49434 0.23236,0.32935 0.25209,0.72534 0.0585,1.19021 l -14.64419,40.15354 c -0.19449,0.46518 -0.54302,0.69759 -1.04551,0.69759 -0.50407,0 -0.85199,-0.21211 -1.04553,-0.63903 L 178.161,147.43045 c -0.19386,-0.46518 -0.44453,-0.69759 -0.75444,-0.69759 -0.31052,0 -0.56262,0.23241 -0.75615,0.69759 l -10.11073,22.37279 c -0.23244,0.42661 -0.59049,0.63903 -1.0748,0.63903 -0.48463,0 -0.82333,-0.2321 -1.01624,-0.6976 l -4.03568,-11.69537 c 5.94474,-5.25214 9.14944,-11.95505 13.84325,-24.62746 l 2.04627,-4.6437 c 0.19355,-0.42629 0.55159,-0.63903 1.0748,-0.63903 0.52289,0 0.88033,0.21275 1.07481,0.63903 l 9.23917,21.03445 c 0.19325,0.42661 0.42593,0.64075 0.69758,0.64075 0.27069,0 0.48438,-0.23305 0.63903,-0.6976 l 7.3221,-19.99064 c 0.15432,-0.46486 0.46493,-0.86086 0.93011,-1.19021 0.46487,-0.3284 0.94827,-0.49434 1.45202,-0.49434 z m -67.98647,16.7938 c -0.31052,0 -0.56262,0.23165 -0.75615,0.69586 l -1.85334,3.87377 -3.53101,7.01206 c 0.7456,0.28418 1.46677,0.51523 2.14272,0.67175 2.95698,0.68444 6.91187,0.57975 10.4156,-0.24805 l -3.26403,-6.23179 -2.39936,-5.07776 c -0.19415,-0.46422 -0.44482,-0.69586 -0.75443,-0.69586 z m 91.77854,0 c -0.31052,0 -0.56262,0.23165 -0.75615,0.69586 l -4.5903,9.58883 c -0.1945,0.46518 -0.1945,0.85338 0,1.16265 0.19351,0.31053 0.54145,0.46506 1.04552,0.46506 h 8.60015 c 0.5028,0 0.84246,-0.16468 1.01624,-0.49435 0.17507,-0.3284 0.1657,-0.70676 -0.0276,-1.13336 l -4.53347,-9.58883 c -0.19415,-0.46423 -0.44483,-0.69586 -0.75443,-0.69586 z" /></svg>
