999
"DXF R12 Output" (www.mydxf.blogspot.com)
 0 
SECTION
 2 
HEADER
 9 
$ACADVER
 1 
AC1009
 9 
$EXTMIN
 10 
 0 
 20 
 0 
 9 
$EXTMAX
 10 
 8.5 
 20 
 11 
 0 
ENDSEC
 0 
SECTION
 2 
ENTITIES
0
LINE
8
Layer 1
10
33.935929
20
37.912524
11
30.476613
21
37.741258
0
LINE
8
Layer 1
10
30.476613
20
37.741258
11
27.075891
21
37.233796
0
LINE
8
Layer 1
10
27.075891
20
37.233796
11
23.756711
21
36.399645
0
LINE
8
Layer 1
10
23.756711
20
36.399645
11
20.542025
21
35.248312
0
LINE
8
Layer 1
10
20.542025
20
35.248312
11
17.454783
21
33.789302
0
LINE
8
Layer 1
10
17.454783
20
33.789302
11
14.517935
21
32.032121
0
LINE
8
Layer 1
10
14.517935
20
32.032121
11
11.754431
21
29.986277
0
LINE
8
Layer 1
10
11.754431
20
29.986277
11
9.187222
21
27.661276
0
LINE
8
Layer 1
10
9.187222
20
27.661276
11
6.862220
21
25.094066
0
LINE
8
Layer 1
10
6.862220
20
25.094066
11
4.816376
21
22.330563
0
LINE
8
Layer 1
10
4.816376
20
22.330563
11
3.059195
21
19.393715
0
LINE
8
Layer 1
10
3.059195
20
19.393715
11
1.600185
21
16.306473
0
LINE
8
Layer 1
10
1.600185
20
16.306473
11
0.448851
21
13.091787
0
LINE
8
Layer 1
10
0.448851
20
13.091787
11
-0.385300
21
9.772608
0
LINE
8
Layer 1
10
-0.385300
20
9.772608
11
-0.892762
21
6.371885
0
LINE
8
Layer 1
10
-0.892762
20
6.371885
11
-1.064028
21
2.912569
0
LINE
8
Layer 1
10
-1.064028
20
2.912569
11
-0.892762
21
-0.546746
0
LINE
8
Layer 1
10
-0.892762
20
-0.546746
11
-0.385300
21
-3.947469
0
LINE
8
Layer 1
10
-0.385300
20
-3.947469
11
0.448851
21
-7.266649
0
LINE
8
Layer 1
10
0.448851
20
-7.266649
11
1.600185
21
-10.481334
0
LINE
8
Layer 1
10
1.600185
20
-10.481334
11
3.059195
21
-13.568577
0
LINE
8
Layer 1
10
3.059195
20
-13.568577
11
4.816376
21
-16.505424
0
LINE
8
Layer 1
10
4.816376
20
-16.505424
11
6.862220
21
-19.268928
0
LINE
8
Layer 1
10
6.862220
20
-19.268928
11
9.187222
21
-21.836137
0
LINE
8
Layer 1
10
9.187222
20
-21.836137
11
11.754431
21
-24.161139
0
LINE
8
Layer 1
10
11.754431
20
-24.161139
11
14.517935
21
-26.206983
0
LINE
8
Layer 1
10
14.517935
20
-26.206983
11
17.454783
21
-27.964164
0
LINE
8
Layer 1
10
17.454783
20
-27.964164
11
20.542025
21
-29.423174
0
LINE
8
Layer 1
10
20.542025
20
-29.423174
11
23.756711
21
-30.574507
0
LINE
8
Layer 1
10
23.756711
20
-30.574507
11
27.075891
21
-31.408658
0
LINE
8
Layer 1
10
27.075891
20
-31.408658
11
30.476613
21
-31.916120
0
LINE
8
Layer 1
10
30.476613
20
-31.916120
11
33.935929
21
-32.087386
0
LINE
8
Layer 1
10
33.935929
20
-32.087386
11
37.395244
21
-31.916119
0
LINE
8
Layer 1
10
37.395244
20
-31.916119
11
40.795967
21
-31.408658
0
LINE
8
Layer 1
10
40.795967
20
-31.408658
11
44.115146
21
-30.574507
0
LINE
8
Layer 1
10
44.115146
20
-30.574507
11
47.329832
21
-29.423173
0
LINE
8
Layer 1
10
47.329832
20
-29.423173
11
50.417074
21
-27.964163
0
LINE
8
Layer 1
10
50.417074
20
-27.964163
11
53.353921
21
-26.206982
0
LINE
8
Layer 1
10
53.353921
20
-26.206982
11
56.117425
21
-24.161138
0
LINE
8
Layer 1
10
56.117425
20
-24.161138
11
58.684634
21
-21.836136
0
LINE
8
Layer 1
10
58.684634
20
-21.836136
11
61.009636
21
-19.268927
0
LINE
8
Layer 1
10
61.009636
20
-19.268927
11
63.055480
21
-16.505424
0
LINE
8
Layer 1
10
63.055480
20
-16.505424
11
64.812660
21
-13.568576
0
LINE
8
Layer 1
10
64.812660
20
-13.568576
11
66.271671
21
-10.481334
0
LINE
8
Layer 1
10
66.271671
20
-10.481334
11
67.423004
21
-7.266648
0
LINE
8
Layer 1
10
67.423004
20
-7.266648
11
68.257155
21
-3.947469
0
LINE
8
Layer 1
10
68.257155
20
-3.947469
11
68.764617
21
-0.546747
0
LINE
8
Layer 1
10
68.764617
20
-0.546747
11
68.935884
21
2.912569
0
LINE
8
Layer 1
10
68.935884
20
2.912569
11
68.755183
21
6.491111
0
LINE
8
Layer 1
10
68.755183
20
6.491111
11
68.224809
21
9.966281
0
LINE
8
Layer 1
10
68.224809
20
9.966281
11
67.362355
21
13.320485
0
LINE
8
Layer 1
10
67.362355
20
13.320485
11
66.185414
21
16.536131
0
LINE
8
Layer 1
10
66.185414
20
16.536131
11
64.711578
21
19.595626
0
LINE
8
Layer 1
10
64.711578
20
19.595626
11
62.958441
21
22.481377
0
LINE
8
Layer 1
10
62.958441
20
22.481377
11
60.943595
21
25.175791
0
LINE
8
Layer 1
10
60.943595
20
25.175791
11
58.684634
21
27.661275
0
LINE
8
Layer 1
10
58.684634
20
27.661275
11
56.199150
21
29.920236
0
LINE
8
Layer 1
10
56.199150
20
29.920236
11
53.504736
21
31.935081
0
LINE
8
Layer 1
10
53.504736
20
31.935081
11
50.618986
21
33.688218
0
LINE
8
Layer 1
10
50.618986
20
33.688218
11
47.559491
21
35.162054
0
LINE
8
Layer 1
10
47.559491
20
35.162054
11
44.343845
21
36.338995
0
LINE
8
Layer 1
10
44.343845
20
36.338995
11
40.989641
21
37.201449
0
LINE
8
Layer 1
10
40.989641
20
37.201449
11
37.514471
21
37.731823
0
LINE
8
Layer 1
10
37.514471
20
37.731823
11
33.935929
21
37.912524
0
LINE
8
Layer 1
10
33.935929
20
37.912524
11
33.935929
21
37.912524
0
LINE
8
Layer 1
10
27.765819
20
21.564172
11
29.420073
21
21.457071
0
LINE
8
Layer 1
10
29.420073
20
21.457071
11
30.881421
21
21.230551
0
LINE
8
Layer 1
10
30.881421
20
21.230551
11
33.353963
21
20.608964
0
LINE
8
Layer 1
10
33.353963
20
20.608964
11
35.931072
21
19.607042
0
LINE
8
Layer 1
10
35.931072
20
19.607042
11
38.218557
21
18.200258
0
LINE
8
Layer 1
10
38.218557
20
18.200258
11
40.199777
21
16.458801
0
LINE
8
Layer 1
10
40.199777
20
16.458801
11
41.858091
21
14.452859
0
LINE
8
Layer 1
10
41.858091
20
14.452859
11
43.176857
21
12.252622
0
LINE
8
Layer 1
10
43.176857
20
12.252622
11
44.139437
21
9.928278
0
LINE
8
Layer 1
10
44.139437
20
9.928278
11
44.729187
21
7.550015
0
LINE
8
Layer 1
10
44.729187
20
7.550015
11
44.929469
21
5.188022
0
LINE
8
Layer 1
10
44.929469
20
5.188022
11
44.719400
21
2.860856
0
LINE
8
Layer 1
10
44.719400
20
2.860856
11
44.032920
21
0.427251
0
LINE
8
Layer 1
10
44.032920
20
0.427251
11
43.484647
21
-0.756256
0
LINE
8
Layer 1
10
43.484647
20
-0.756256
11
42.785617
21
-1.878520
0
LINE
8
Layer 1
10
42.785617
20
-1.878520
11
41.925278
21
-2.910258
0
LINE
8
Layer 1
10
41.925278
20
-2.910258
11
40.893081
21
-3.822185
0
LINE
8
Layer 1
10
40.893081
20
-3.822185
11
39.285726
21
-4.814763
0
LINE
8
Layer 1
10
39.285726
20
-4.814763
11
40.235465
21
-6.711963
0
LINE
8
Layer 1
10
40.235465
20
-6.711963
11
40.258695
21
-7.003626
0
LINE
8
Layer 1
10
40.258695
20
-7.003626
11
39.989818
21
-7.127131
0
LINE
8
Layer 1
10
39.989818
20
-7.127131
11
38.590275
21
-7.127131
0
LINE
8
Layer 1
10
38.590275
20
-7.127131
11
38.190601
21
-7.003626
0
LINE
8
Layer 1
10
38.190601
20
-7.003626
11
38.076669
21
-6.917946
0
LINE
8
Layer 1
10
38.076669
20
-6.917946
11
37.356617
21
-5.543472
0
LINE
8
Layer 1
10
37.356617
20
-5.543472
11
36.022755
21
-5.787401
0
LINE
8
Layer 1
10
36.022755
20
-5.787401
11
34.679479
21
-5.819154
0
LINE
8
Layer 1
10
34.679479
20
-5.819154
11
33.353273
21
-5.621693
0
LINE
8
Layer 1
10
33.353273
20
-5.621693
11
32.070621
21
-5.177977
0
LINE
8
Layer 1
10
32.070621
20
-5.177977
11
31.854147
21
-5.607274
0
LINE
8
Layer 1
10
31.854147
20
-5.607274
11
31.733381
21
-5.789108
0
LINE
8
Layer 1
10
31.733381
20
-5.789108
11
31.287223
21
-6.696464
0
LINE
8
Layer 1
10
31.287223
20
-6.696464
11
31.002846
21
-7.003626
0
LINE
8
Layer 1
10
31.002846
20
-7.003626
11
30.610922
21
-7.127128
0
LINE
8
Layer 1
10
30.610922
20
-7.127128
11
29.211834
21
-7.127128
0
LINE
8
Layer 1
10
29.211834
20
-7.127128
11
28.942954
21
-7.003626
0
LINE
8
Layer 1
10
28.942954
20
-7.003626
11
28.950256
21
-6.711958
0
LINE
8
Layer 1
10
28.950256
20
-6.711958
11
30.295111
21
-4.026808
0
LINE
8
Layer 1
10
30.295111
20
-4.026808
11
29.518488
21
-3.239665
0
LINE
8
Layer 1
10
29.518488
20
-3.239665
11
28.909473
21
-2.405833
0
LINE
8
Layer 1
10
28.909473
20
-2.405833
11
28.166508
21
-0.726530
0
LINE
8
Layer 1
10
28.166508
20
-0.726530
11
28.010696
21
0.754243
0
LINE
8
Layer 1
10
28.010696
20
0.754243
11
28.135622
21
1.339913
0
LINE
8
Layer 1
10
28.135622
20
1.339913
11
28.386517
21
1.779630
0
LINE
8
Layer 1
10
28.386517
20
1.779630
11
28.935267
21
0.186013
0
LINE
8
Layer 1
10
28.935267
20
0.186013
11
30.024863
21
-1.333906
0
LINE
8
Layer 1
10
30.024863
20
-1.333906
11
31.130915
21
-2.357472
0
LINE
8
Layer 1
10
31.130915
20
-2.357472
11
34.285469
21
3.942974
0
LINE
8
Layer 1
10
34.285469
20
3.942974
11
34.593087
21
4.127545
0
LINE
8
Layer 1
10
34.593087
20
4.127545
11
34.900247
21
3.942974
0
LINE
8
Layer 1
10
34.900247
20
3.942974
11
38.155517
21
-2.558449
0
LINE
8
Layer 1
10
38.155517
20
-2.558449
11
38.690737
21
-1.873667
0
LINE
8
Layer 1
10
38.690737
20
-1.873667
11
39.106377
21
-1.042579
0
LINE
8
Layer 1
10
39.106377
20
-1.042579
11
39.375509
21
-0.115277
0
LINE
8
Layer 1
10
39.375509
20
-0.115277
11
39.471204
21
0.858148
0
LINE
8
Layer 1
10
39.471204
20
0.858148
11
39.381864
21
1.949610
0
LINE
8
Layer 1
10
39.381864
20
1.949610
11
39.132675
21
2.890967
0
LINE
8
Layer 1
10
39.132675
20
2.890967
11
38.751878
21
3.696157
0
LINE
8
Layer 1
10
38.751878
20
3.696157
11
38.267718
21
4.379115
0
LINE
8
Layer 1
10
38.267718
20
4.379115
11
37.102276
21
5.434089
0
LINE
8
Layer 1
10
37.102276
20
5.434089
11
35.862292
21
6.167384
0
LINE
8
Layer 1
10
35.862292
20
6.167384
11
34.248139
21
6.768937
0
LINE
8
Layer 1
10
34.248139
20
6.768937
11
32.290846
21
7.194210
0
LINE
8
Layer 1
10
32.290846
20
7.194210
11
30.246800
21
7.439208
0
LINE
8
Layer 1
10
30.246800
20
7.439208
11
28.372391
21
7.499935
0
LINE
8
Layer 1
10
28.372391
20
7.499935
11
25.259983
21
7.333421
0
LINE
8
Layer 1
10
25.259983
20
7.333421
11
22.502210
21
7.031052
0
LINE
8
Layer 1
10
22.502210
20
7.031052
11
18.875006
21
6.458595
0
LINE
8
Layer 1
10
18.875006
20
6.458595
11
14.529691
21
5.887026
0
LINE
8
Layer 1
10
14.529691
20
5.887026
11
11.666292
21
5.862958
0
LINE
8
Layer 1
10
11.666292
20
5.862958
11
10.493226
21
6.006951
0
LINE
8
Layer 1
10
10.493226
20
6.006951
11
9.891471
21
6.260359
0
LINE
8
Layer 1
10
9.891471
20
6.260359
11
9.347545
21
6.775327
0
LINE
8
Layer 1
10
9.347545
20
6.775327
11
9.070008
21
7.648473
0
LINE
8
Layer 1
10
9.070008
20
7.648473
11
9.056160
21
8.860875
0
LINE
8
Layer 1
10
9.056160
20
8.860875
11
9.399045
21
11.153509
0
LINE
8
Layer 1
10
9.399045
20
11.153509
11
9.880263
21
12.817369
0
LINE
8
Layer 1
10
9.880263
20
12.817369
11
10.606634
21
14.614344
0
LINE
8
Layer 1
10
10.606634
20
14.614344
11
11.575385
21
16.359237
0
LINE
8
Layer 1
10
11.575385
20
16.359237
11
12.783742
21
17.866849
0
LINE
8
Layer 1
10
12.783742
20
17.866849
11
14.236019
21
19.110009
0
LINE
8
Layer 1
10
14.236019
20
19.110009
11
15.865381
21
20.099463
0
LINE
8
Layer 1
10
15.865381
20
20.099463
11
17.738746
21
20.835817
0
LINE
8
Layer 1
10
17.738746
20
20.835817
11
19.728134
21
21.115736
0
LINE
8
Layer 1
10
19.728134
20
21.115736
11
19.826700
21
19.308954
0
LINE
8
Layer 1
10
19.826700
20
19.308954
11
19.974682
21
18.893148
0
LINE
8
Layer 1
10
19.974682
20
18.893148
11
20.049363
21
19.208226
0
LINE
8
Layer 1
10
20.049363
20
19.208226
11
20.609660
21
19.945538
0
LINE
8
Layer 1
10
20.609660
20
19.945538
11
21.229533
21
20.375065
0
LINE
8
Layer 1
10
21.229533
20
20.375065
11
22.159953
21
20.793193
0
LINE
8
Layer 1
10
22.159953
20
20.793193
11
23.463967
21
21.160934
0
LINE
8
Layer 1
10
23.463967
20
21.160934
11
25.204623
21
21.439303
0
LINE
8
Layer 1
10
25.204623
20
21.439303
11
27.765822
21
21.564174
0
LINE
8
Layer 1
10
27.765822
20
21.564174
11
27.765819
21
21.564172
0
LINE
8
Layer 1
10
14.542396
20
16.023425
11
13.621355
21
15.848245
0
LINE
8
Layer 1
10
13.621355
20
15.848245
11
12.820811
21
15.351107
0
LINE
8
Layer 1
10
12.820811
20
15.351107
11
12.214214
21
14.588795
0
LINE
8
Layer 1
10
12.214214
20
14.588795
11
11.875017
21
13.618089
0
LINE
8
Layer 1
10
11.875017
20
13.618089
11
11.890368
21
12.488354
0
LINE
8
Layer 1
10
11.890368
20
12.488354
11
12.290848
21
11.499367
0
LINE
8
Layer 1
10
12.290848
20
11.499367
11
13.008868
21
10.755810
0
LINE
8
Layer 1
10
13.008868
20
10.755810
11
13.976839
21
10.362364
0
LINE
8
Layer 1
10
13.976839
20
10.362364
11
15.020582
21
10.410914
0
LINE
8
Layer 1
10
15.020582
20
10.410914
11
15.945412
21
10.872872
0
LINE
8
Layer 1
10
15.945412
20
10.872872
11
16.652604
21
11.672022
0
LINE
8
Layer 1
10
16.652604
20
11.672022
11
17.043434
21
12.732152
0
LINE
8
Layer 1
10
17.043434
20
12.732152
11
17.028120
21
13.861958
0
LINE
8
Layer 1
10
17.028120
20
13.861958
11
16.627636
21
14.851102
0
LINE
8
Layer 1
10
16.627636
20
14.851102
11
15.909597
21
15.594816
0
LINE
8
Layer 1
10
15.909597
20
15.594816
11
14.941615
21
15.988334
0
LINE
8
Layer 1
10
14.941615
20
15.988334
11
14.542396
21
16.023424
0
LINE
8
Layer 1
10
14.542396
20
16.023424
11
14.542396
21
16.023425
0
LINE
8
Layer 1
10
15.828008
20
13.856890
11
16.186158
21
13.767203
0
LINE
8
Layer 1
10
16.186158
20
13.767203
11
16.478627
21
13.522629
0
LINE
8
Layer 1
10
16.478627
20
13.522629
11
16.748123
21
12.715745
0
LINE
8
Layer 1
10
16.748123
20
12.715745
11
16.478627
21
11.908831
0
LINE
8
Layer 1
10
16.478627
20
11.908831
11
16.186158
21
11.664276
0
LINE
8
Layer 1
10
16.186158
20
11.664276
11
15.828008
21
11.574601
0
LINE
8
Layer 1
10
15.828008
20
11.574601
11
15.469859
21
11.664276
0
LINE
8
Layer 1
10
15.469859
20
11.664276
11
15.177389
21
11.908831
0
LINE
8
Layer 1
10
15.177389
20
11.908831
11
14.907892
21
12.715745
0
LINE
8
Layer 1
10
14.907892
20
12.715745
11
15.177389
21
13.522629
0
LINE
8
Layer 1
10
15.177389
20
13.522629
11
15.469859
21
13.767203
0
LINE
8
Layer 1
10
15.469859
20
13.767203
11
15.828008
21
13.856890
0
LINE
8
Layer 1
10
15.828008
20
13.856890
11
15.828008
21
13.856890
0
LINE
8
Layer 1
10
11.438430
20
4.296616
11
12.699432
21
4.204107
0
LINE
8
Layer 1
10
12.699432
20
4.204107
11
13.229898
21
4.089262
0
LINE
8
Layer 1
10
13.229898
20
4.089262
11
13.729377
21
3.942974
0
LINE
8
Layer 1
10
13.729377
20
3.942974
11
14.206070
21
3.735618
0
LINE
8
Layer 1
10
14.206070
20
3.735618
11
14.651771
21
3.497271
0
LINE
8
Layer 1
10
14.651771
20
3.497271
11
14.944350
21
3.312703
0
LINE
8
Layer 1
10
14.944350
20
3.312703
11
15.251512
21
3.128130
0
LINE
8
Layer 1
10
15.251512
20
3.128130
11
15.451576
21
2.820515
0
LINE
8
Layer 1
10
15.451576
20
2.820515
11
15.359066
21
2.466868
0
LINE
8
Layer 1
10
15.359066
20
2.466868
11
14.713755
21
1.544474
0
LINE
8
Layer 1
10
14.713755
20
1.544474
11
14.398391
21
1.344864
0
LINE
8
Layer 1
10
14.398391
20
1.344864
11
14.036999
21
1.421424
0
LINE
8
Layer 1
10
14.036999
20
1.421424
11
12.899500
21
2.005668
0
LINE
8
Layer 1
10
12.899500
20
2.005668
11
12.149794
21
2.224681
0
LINE
8
Layer 1
10
12.149794
20
2.224681
11
11.346377
21
2.297792
0
LINE
8
Layer 1
10
11.346377
20
2.297792
11
11.046507
21
2.282737
0
LINE
8
Layer 1
10
11.046507
20
2.282737
11
10.716105
21
2.236258
0
LINE
8
Layer 1
10
10.716105
20
2.236258
11
10.039348
21
2.005655
0
LINE
8
Layer 1
10
10.039348
20
2.005655
11
9.754973
21
1.836581
0
LINE
8
Layer 1
10
9.754973
20
1.836581
11
9.516626
21
1.621478
0
LINE
8
Layer 1
10
9.516626
20
1.621478
11
9.317017
21
1.037231
0
LINE
8
Layer 1
10
9.317017
20
1.037231
11
9.563111
21
0.468028
0
LINE
8
Layer 1
10
9.563111
20
0.468028
11
10.193383
21
0.083851
0
LINE
8
Layer 1
10
10.193383
20
0.083851
11
10.600805
21
-0.054692
0
LINE
8
Layer 1
10
10.600805
20
-0.054692
11
11.038760
21
-0.177282
0
LINE
8
Layer 1
10
11.038760
20
-0.177282
11
11.492210
21
-0.285290
0
LINE
8
Layer 1
10
11.492210
20
-0.285290
11
11.930620
21
-0.392843
0
LINE
8
Layer 1
10
11.930620
20
-0.392843
11
12.284266
21
-0.469402
0
LINE
8
Layer 1
10
12.284266
20
-0.469402
11
12.683940
21
-0.546423
0
LINE
8
Layer 1
10
12.683940
20
-0.546423
11
13.129643
21
-0.631182
0
LINE
8
Layer 1
10
13.129643
20
-0.631182
11
13.591296
21
-0.761521
0
LINE
8
Layer 1
10
13.591296
20
-0.761521
11
13.844681
21
-0.838541
0
LINE
8
Layer 1
10
13.844681
20
-0.838541
11
14.098522
21
-0.931052
0
LINE
8
Layer 1
10
14.098522
20
-0.931052
11
14.521437
21
-1.130662
0
LINE
8
Layer 1
10
14.521437
20
-1.130662
11
14.928858
21
-1.376755
0
LINE
8
Layer 1
10
14.928858
20
-1.376755
11
15.151710
21
-1.538082
0
LINE
8
Layer 1
10
15.151710
20
-1.538082
11
15.344027
21
-1.714906
0
LINE
8
Layer 1
10
15.344027
20
-1.714906
11
15.928273
21
-2.606765
0
LINE
8
Layer 1
10
15.928273
20
-2.606765
11
16.158871
21
-3.898303
0
LINE
8
Layer 1
10
16.158871
20
-3.898303
11
16.081935
21
-4.709444
0
LINE
8
Layer 1
10
16.081935
20
-4.709444
11
15.851254
21
-5.420433
0
LINE
8
Layer 1
10
15.851254
20
-5.420433
11
15.478272
21
-6.008541
0
LINE
8
Layer 1
10
15.478272
20
-6.008541
11
14.974888
21
-6.481371
0
LINE
8
Layer 1
10
14.974888
20
-6.481371
11
14.344389
21
-6.865847
0
LINE
8
Layer 1
10
14.344389
20
-6.865847
11
13.621830
21
-7.127139
0
LINE
8
Layer 1
10
13.621830
20
-7.127139
11
11.884593
21
-7.342242
0
LINE
8
Layer 1
10
11.884593
20
-7.342242
11
10.331470
21
-7.203699
0
LINE
8
Layer 1
10
10.331470
20
-7.203699
11
9.116952
21
-6.850054
0
LINE
8
Layer 1
10
9.116952
20
-6.850054
11
8.578737
21
-6.611707
0
LINE
8
Layer 1
10
8.578737
20
-6.611707
11
8.071511
21
-6.327334
0
LINE
8
Layer 1
10
8.071511
20
-6.327334
11
7.764351
21
-6.135474
0
LINE
8
Layer 1
10
7.764351
20
-6.135474
11
7.441238
21
-5.912166
0
LINE
8
Layer 1
10
7.441238
20
-5.912166
11
7.241174
21
-5.620042
0
LINE
8
Layer 1
10
7.241174
20
-5.620042
11
7.318194
21
-5.266398
0
LINE
8
Layer 1
10
7.318194
20
-5.266398
11
7.963959
21
-4.313468
0
LINE
8
Layer 1
10
7.963959
20
-4.313468
11
8.256082
21
-4.113404
0
LINE
8
Layer 1
10
8.256082
20
-4.113404
11
8.609727
21
-4.190424
0
LINE
8
Layer 1
10
8.609727
20
-4.190424
11
9.962785
21
-4.928248
0
LINE
8
Layer 1
10
9.962785
20
-4.928248
11
10.873813
21
-5.251231
0
LINE
8
Layer 1
10
10.873813
20
-5.251231
11
11.854060
21
-5.358912
0
LINE
8
Layer 1
10
11.854060
20
-5.358912
11
12.776453
21
-5.220371
0
LINE
8
Layer 1
10
12.776453
20
-5.220371
11
13.452755
21
-4.882218
0
LINE
8
Layer 1
10
13.452755
20
-4.882218
11
13.867924
21
-4.405527
0
LINE
8
Layer 1
10
13.867924
20
-4.405527
11
14.006466
21
-3.882806
0
LINE
8
Layer 1
10
14.006466
20
-3.882806
11
13.790905
21
-3.298562
0
LINE
8
Layer 1
10
13.790905
20
-3.298562
11
13.237652
21
-2.914385
0
LINE
8
Layer 1
10
13.237652
20
-2.914385
11
12.868513
21
-2.775841
0
LINE
8
Layer 1
10
12.868513
20
-2.775841
11
12.422809
21
-2.652797
0
LINE
8
Layer 1
10
12.422809
20
-2.652797
11
11.953863
21
-2.545244
0
LINE
8
Layer 1
10
11.953863
20
-2.545244
11
11.453930
21
-2.452735
0
LINE
8
Layer 1
10
11.453930
20
-2.452735
11
11.085246
21
-2.383914
0
LINE
8
Layer 1
10
11.085246
20
-2.383914
11
10.670076
21
-2.299155
0
LINE
8
Layer 1
10
10.670076
20
-2.299155
11
9.747226
21
-2.068555
0
LINE
8
Layer 1
10
9.747226
20
-2.068555
11
8.809792
21
-1.684378
0
LINE
8
Layer 1
10
8.809792
20
-1.684378
11
7.979455
21
-1.084637
0
LINE
8
Layer 1
10
7.979455
20
-1.084637
11
7.379716
21
-0.223766
0
LINE
8
Layer 1
10
7.379716
20
-0.223766
11
7.164612
21
0.944722
0
LINE
8
Layer 1
10
7.164612
20
0.944722
11
7.264454
21
1.840324
0
LINE
8
Layer 1
10
7.264454
20
1.840324
11
7.564285
21
2.589902
0
LINE
8
Layer 1
10
7.564285
20
2.589902
11
8.009922
21
3.162481
0
LINE
8
Layer 1
10
8.009922
20
3.162481
11
8.578738
21
3.619847
0
LINE
8
Layer 1
10
8.578738
20
3.619847
11
9.962785
21
4.143025
0
LINE
8
Layer 1
10
9.962785
20
4.143025
11
11.438435
21
4.296603
0
LINE
8
Layer 1
10
11.438435
20
4.296603
11
11.438430
21
4.296616
0
LINE
8
Layer 1
10
18.726440
20
4.127542
11
19.940958
21
4.127542
0
LINE
8
Layer 1
10
19.940958
20
4.127542
11
20.279108
21
3.988998
0
LINE
8
Layer 1
10
20.279108
20
3.988998
11
20.417650
21
3.650851
0
LINE
8
Layer 1
10
20.417650
20
3.650851
11
20.417650
21
-1.115157
0
LINE
8
Layer 1
10
20.417650
20
-1.115157
11
20.501960
21
-1.345757
0
LINE
8
Layer 1
10
20.501960
20
-1.345757
11
20.709771
21
-1.223165
0
LINE
8
Layer 1
10
20.709771
20
-1.223165
11
24.599416
21
3.743362
0
LINE
8
Layer 1
10
24.599416
20
3.743362
11
24.937566
21
4.004495
0
LINE
8
Layer 1
10
24.937566
20
4.004495
11
25.352734
21
4.112048
0
LINE
8
Layer 1
10
25.352734
20
4.112048
11
27.059438
21
4.112048
0
LINE
8
Layer 1
10
27.059438
20
4.112048
11
27.313279
21
4.004495
0
LINE
8
Layer 1
10
27.313279
20
4.004495
11
27.244008
21
3.743362
0
LINE
8
Layer 1
10
27.244008
20
3.743362
11
23.200328
21
-1.330718
0
LINE
8
Layer 1
10
23.200328
20
-1.330718
11
23.085029
21
-1.692112
0
LINE
8
Layer 1
10
23.085029
20
-1.692112
11
23.231317
21
-2.038009
0
LINE
8
Layer 1
10
23.231317
20
-2.038009
11
27.659179
21
-6.788526
0
LINE
8
Layer 1
10
27.659179
20
-6.788526
11
27.743488
21
-7.026870
0
LINE
8
Layer 1
10
27.743488
20
-7.026870
11
27.505144
21
-7.127131
0
LINE
8
Layer 1
10
27.505144
20
-7.127131
11
25.598830
21
-7.127131
0
LINE
8
Layer 1
10
25.598830
20
-7.127131
11
25.168166
21
-7.026870
0
LINE
8
Layer 1
10
25.168166
20
-7.026870
11
24.814521
21
-6.773484
0
LINE
8
Layer 1
10
24.814521
20
-6.773484
11
20.724814
21
-2.345172
0
LINE
8
Layer 1
10
20.724814
20
-2.345172
11
20.509709
21
-2.245360
0
LINE
8
Layer 1
10
20.509709
20
-2.245360
11
20.417649
21
-2.483707
0
LINE
8
Layer 1
10
20.417649
20
-2.483707
11
20.417649
21
-6.650434
0
LINE
8
Layer 1
10
20.417649
20
-6.650434
11
20.279107
21
-6.988585
0
LINE
8
Layer 1
10
20.279107
20
-6.988585
11
19.940957
21
-7.127128
0
LINE
8
Layer 1
10
19.940957
20
-7.127128
11
18.726439
21
-7.127128
0
LINE
8
Layer 1
10
18.726439
20
-7.127128
11
18.395583
21
-6.988585
0
LINE
8
Layer 1
10
18.395583
20
-6.988585
11
18.265243
21
-6.650434
0
LINE
8
Layer 1
10
18.265243
20
-6.650434
11
18.265243
21
3.650851
0
LINE
8
Layer 1
10
18.265243
20
3.650851
11
18.395583
21
3.988998
0
LINE
8
Layer 1
10
18.395583
20
3.988998
11
18.726440
21
4.127542
0
LINE
8
Layer 1
10
18.726440
20
4.127542
11
18.726440
21
4.127542
0
LINE
8
Layer 1
10
58.744879
20
4.127542
11
59.052497
21
3.942971
0
LINE
8
Layer 1
10
59.052497
20
3.942971
11
64.387257
21
-6.711963
0
LINE
8
Layer 1
10
64.387257
20
-6.711963
11
64.410488
21
-7.004081
0
LINE
8
Layer 1
10
64.410488
20
-7.004081
11
64.141605
21
-7.127131
0
LINE
8
Layer 1
10
64.141605
20
-7.127131
11
62.742062
21
-7.127131
0
LINE
8
Layer 1
10
62.742062
20
-7.127131
11
62.342846
21
-7.004081
0
LINE
8
Layer 1
10
62.342846
20
-7.004081
11
62.065764
21
-6.696467
0
LINE
8
Layer 1
10
62.065764
20
-6.696467
11
61.604564
21
-5.774072
0
LINE
8
Layer 1
10
61.604564
20
-5.774072
11
61.320187
21
-5.481951
0
LINE
8
Layer 1
10
61.320187
20
-5.481951
11
60.928263
21
-5.358902
0
LINE
8
Layer 1
10
60.928263
20
-5.358902
11
56.561472
21
-5.358902
0
LINE
8
Layer 1
10
56.561472
20
-5.358902
11
56.161798
21
-5.481951
0
LINE
8
Layer 1
10
56.161798
20
-5.481951
11
55.885171
21
-5.789111
0
LINE
8
Layer 1
10
55.885171
20
-5.789111
11
55.439013
21
-6.696467
0
LINE
8
Layer 1
10
55.439013
20
-6.696467
11
55.155094
21
-7.004081
0
LINE
8
Layer 1
10
55.155094
20
-7.004081
11
54.762712
21
-7.127131
0
LINE
8
Layer 1
10
54.762712
20
-7.127131
11
53.363624
21
-7.127131
0
LINE
8
Layer 1
10
53.363624
20
-7.127131
11
53.094744
21
-7.004081
0
LINE
8
Layer 1
10
53.094744
20
-7.004081
11
53.102443
21
-6.711963
0
LINE
8
Layer 1
10
53.102443
20
-6.711963
11
58.437204
21
3.942971
0
LINE
8
Layer 1
10
58.437204
20
3.942971
11
58.744818
21
4.127542
0
LINE
8
Layer 1
10
58.744818
20
4.127542
11
58.744879
21
4.127542
0
LINE
8
Layer 1
10
52.581151
20
4.112064
11
53.918713
21
4.112064
0
LINE
8
Layer 1
10
53.918713
20
4.112064
11
54.210837
21
3.981270
0
LINE
8
Layer 1
10
54.210837
20
3.981270
11
54.226315
21
3.666361
0
LINE
8
Layer 1
10
54.226315
20
3.666361
11
50.351711
21
-6.957584
0
LINE
8
Layer 1
10
50.351711
20
-6.957584
11
50.075087
21
-7.142154
0
LINE
8
Layer 1
10
50.075087
20
-7.142154
11
49.798458
21
-6.973078
0
LINE
8
Layer 1
10
49.798458
20
-6.973078
11
47.138372
21
-1.007591
0
LINE
8
Layer 1
10
47.138372
20
-1.007591
11
46.938760
21
-0.823020
0
LINE
8
Layer 1
10
46.938760
20
-0.823020
11
46.738695
21
-1.007591
0
LINE
8
Layer 1
10
46.738695
20
-1.007591
11
44.063568
21
-6.927051
0
LINE
8
Layer 1
10
44.063568
20
-6.927051
11
43.779194
21
-7.096127
0
LINE
8
Layer 1
10
43.779194
20
-7.096127
11
43.510315
21
-6.911554
0
LINE
8
Layer 1
10
43.510315
20
-6.911554
11
42.442542
21
-3.817158
0
LINE
8
Layer 1
10
42.442542
20
-3.817158
11
43.503752
21
-2.684285
0
LINE
8
Layer 1
10
43.503752
20
-2.684285
11
44.398002
21
-1.295383
0
LINE
8
Layer 1
10
44.398002
20
-1.295383
11
45.230194
21
0.461633
0
LINE
8
Layer 1
10
45.230194
20
0.461633
11
46.105231
21
2.698849
0
LINE
8
Layer 1
10
46.105231
20
2.698849
11
46.646639
21
3.927493
0
LINE
8
Layer 1
10
46.646639
20
3.927493
11
46.931013
21
4.096570
0
LINE
8
Layer 1
10
46.931013
20
4.096570
11
47.215389
21
3.927493
0
LINE
8
Layer 1
10
47.215389
20
3.927493
11
49.659917
21
-1.637864
0
LINE
8
Layer 1
10
49.659917
20
-1.637864
11
49.844484
21
-1.807396
0
LINE
8
Layer 1
10
49.844484
20
-1.807396
11
50.013561
21
-1.622823
0
LINE
8
Layer 1
10
50.013561
20
-1.622823
11
51.950864
21
3.666361
0
LINE
8
Layer 1
10
51.950864
20
3.666361
11
52.196955
21
3.981270
0
LINE
8
Layer 1
10
52.196955
20
3.981270
11
52.581135
21
4.112064
0
LINE
8
Layer 1
10
52.581135
20
4.112064
11
52.581151
21
4.112064
0
LINE
8
Layer 1
10
34.593087
20
-0.331290
11
34.393022
21
-0.515403
0
LINE
8
Layer 1
10
34.393022
20
-0.515403
11
33.902660
21
-1.540337
0
LINE
8
Layer 1
10
33.902660
20
-1.540337
11
32.968415
21
-3.395608
0
LINE
8
Layer 1
10
32.968415
20
-3.395608
11
33.535342
21
-3.573342
0
LINE
8
Layer 1
10
33.535342
20
-3.573342
11
34.858990
21
-3.690570
0
LINE
8
Layer 1
10
34.858990
20
-3.690570
11
36.291133
21
-3.507712
0
LINE
8
Layer 1
10
36.291133
20
-3.507712
11
35.427526
21
-1.858887
0
LINE
8
Layer 1
10
35.427526
20
-1.858887
11
34.792696
21
-0.515398
0
LINE
8
Layer 1
10
34.792696
20
-0.515398
11
34.593087
21
-0.331285
0
LINE
8
Layer 1
10
34.593087
20
-0.331285
11
34.593087
21
-0.331290
0
LINE
8
Layer 1
10
58.876128
20
-0.331290
11
58.676064
21
-0.515403
0
LINE
8
Layer 1
10
58.676064
20
-0.515403
11
57.461549
21
-3.052444
0
LINE
8
Layer 1
10
57.461549
20
-3.052444
11
57.461549
21
-3.360062
0
LINE
8
Layer 1
10
57.461549
20
-3.360062
11
57.738175
21
-3.483109
0
LINE
8
Layer 1
10
57.738175
20
-3.483109
11
60.013629
21
-3.483109
0
LINE
8
Layer 1
10
60.013629
20
-3.483109
11
60.282509
21
-3.352312
0
LINE
8
Layer 1
10
60.282509
20
-3.352312
11
60.275206
21
-3.052444
0
LINE
8
Layer 1
10
60.275206
20
-3.052444
11
59.075727
21
-0.515403
0
LINE
8
Layer 1
10
59.075727
20
-0.515403
11
58.876118
21
-0.331290
0
LINE
8
Layer 1
10
58.876118
20
-0.331290
11
58.876128
21
-0.331290
 0 
ENDSEC
 0 
EOF