999
"DXF R12 Output" (www.mydxf.blogspot.com)
 0 
SECTION
 2 
HEADER
 9 
$ACADVER
 1 
AC1009
 9 
$EXTMIN
 10 
 0 
 20 
 0 
 9 
$EXTMAX
 10 
 8.5 
 20 
 11 
 0 
ENDSEC
 0 
SECTION
 2 
ENTITIES
0
LINE
8
Layer 1
10
2.041700
20
27.793807
11
10.619708
21
40.455215
0
LINE
8
Layer 1
10
10.619708
20
40.455215
11
11.397042
21
41.462543
0
LINE
8
Layer 1
10
11.397042
20
41.462543
11
12.303257
21
42.240738
0
LINE
8
Layer 1
10
12.303257
20
42.240738
11
13.337835
21
42.790110
0
LINE
8
Layer 1
10
13.337835
20
42.790110
11
14.500262
21
43.110969
0
LINE
8
Layer 1
10
14.500262
20
43.110969
11
15.712332
21
43.199990
0
LINE
8
Layer 1
10
15.712332
20
43.199990
11
16.898460
21
43.059155
0
LINE
8
Layer 1
10
16.898460
20
43.059155
11
18.059578
21
42.689290
0
LINE
8
Layer 1
10
18.059578
20
42.689290
11
19.196614
21
42.091221
0
LINE
8
Layer 1
10
19.196614
20
42.091221
11
23.766014
21
39.332752
0
LINE
8
Layer 1
10
23.766014
20
39.332752
11
28.284771
21
36.779025
0
LINE
8
Layer 1
10
28.284771
20
36.779025
11
32.752679
21
34.430142
0
LINE
8
Layer 1
10
32.752679
20
34.430142
11
37.169530
21
32.286209
0
LINE
8
Layer 1
10
37.169530
20
32.286209
11
40.108630
21
30.945712
0
LINE
8
Layer 1
10
40.108630
20
30.945712
11
43.105116
21
29.784158
0
LINE
8
Layer 1
10
43.105116
20
29.784158
11
46.159015
21
28.801482
0
LINE
8
Layer 1
10
46.159015
20
28.801482
11
49.270353
21
27.997618
0
LINE
8
Layer 1
10
49.270353
20
27.997618
11
52.439154
21
27.372504
0
LINE
8
Layer 1
10
52.439154
20
27.372504
11
55.665446
21
26.926074
0
LINE
8
Layer 1
10
55.665446
20
26.926074
11
58.949253
21
26.658263
0
LINE
8
Layer 1
10
58.949253
20
26.658263
11
62.290602
21
26.569007
0
LINE
8
Layer 1
10
62.290602
20
26.569007
11
65.659077
21
26.683746
0
LINE
8
Layer 1
10
65.659077
20
26.683746
11
68.824154
21
27.028031
0
LINE
8
Layer 1
10
68.824154
20
27.028031
11
71.785832
21
27.601967
0
LINE
8
Layer 1
10
71.785832
20
27.601967
11
74.544112
21
28.405655
0
LINE
8
Layer 1
10
74.544112
20
28.405655
11
76.943120
21
29.222487
0
LINE
8
Layer 1
10
76.943120
20
29.222487
11
79.240326
21
30.243957
0
LINE
8
Layer 1
10
79.240326
20
30.243957
11
81.435626
21
31.469653
0
LINE
8
Layer 1
10
81.435626
20
31.469653
11
83.528916
21
32.899160
0
LINE
8
Layer 1
10
83.528916
20
32.899160
11
85.252049
21
34.366529
0
LINE
8
Layer 1
10
85.252049
20
34.366529
11
86.745531
21
35.910999
0
LINE
8
Layer 1
10
86.745531
20
35.910999
11
88.009571
21
37.532363
0
LINE
8
Layer 1
10
88.009571
20
37.532363
11
89.044374
21
39.230416
0
LINE
8
Layer 1
10
89.044374
20
39.230416
11
89.848700
21
40.889228
0
LINE
8
Layer 1
10
89.848700
20
40.889228
11
90.422962
21
42.599717
0
LINE
8
Layer 1
10
90.422962
20
42.599717
11
90.767368
21
44.361883
0
LINE
8
Layer 1
10
90.767368
20
44.361883
11
90.882124
21
46.175725
0
LINE
8
Layer 1
10
90.882124
20
46.175725
11
90.703324
21
48.268309
0
LINE
8
Layer 1
10
90.703324
20
48.268309
11
90.166923
21
50.258574
0
LINE
8
Layer 1
10
90.166923
20
50.258574
11
89.272921
21
52.147140
0
LINE
8
Layer 1
10
89.272921
20
52.147140
11
88.021318
21
53.934627
0
LINE
8
Layer 1
10
88.021318
20
53.934627
11
86.566559
21
55.326273
0
LINE
8
Layer 1
10
86.566559
20
55.326273
11
84.856518
21
56.640817
0
LINE
8
Layer 1
10
84.856518
20
56.640817
11
82.891402
21
57.878880
0
LINE
8
Layer 1
10
82.891402
20
57.878880
11
80.671418
21
59.041083
0
LINE
8
Layer 1
10
80.671418
20
59.041083
11
78.320624
21
60.011083
0
LINE
8
Layer 1
10
78.320624
20
60.011083
11
75.768911
21
60.877731
0
LINE
8
Layer 1
10
75.768911
20
60.877731
11
69.845555
21
62.513737
0
LINE
8
Layer 1
10
69.845555
20
62.513737
11
63.616826
21
63.942486
0
LINE
8
Layer 1
10
63.616826
20
63.942486
11
56.979095
21
65.168389
0
LINE
8
Layer 1
10
56.979095
20
65.168389
11
52.078793
21
66.086713
0
LINE
8
Layer 1
10
52.078793
20
66.086713
11
46.564438
21
67.211191
0
LINE
8
Layer 1
10
46.564438
20
67.211191
11
43.576543
21
67.707716
0
LINE
8
Layer 1
10
43.576543
20
67.707716
11
40.538005
21
68.383763
0
LINE
8
Layer 1
10
40.538005
20
68.383763
11
37.449030
21
69.239439
0
LINE
8
Layer 1
10
37.449030
20
69.239439
11
34.309826
21
70.274844
0
LINE
8
Layer 1
10
34.309826
20
70.274844
11
31.079397
21
71.282620
0
LINE
8
Layer 1
10
31.079397
20
71.282620
11
27.926481
21
72.469093
0
LINE
8
Layer 1
10
27.926481
20
72.469093
11
24.850874
21
73.834780
0
LINE
8
Layer 1
10
24.850874
20
73.834780
11
21.852367
21
75.380198
0
LINE
8
Layer 1
10
21.852367
20
75.380198
11
18.865488
21
77.026419
0
LINE
8
Layer 1
10
18.865488
20
77.026419
11
16.031675
21
78.902599
0
LINE
8
Layer 1
10
16.031675
20
78.902599
11
13.351030
21
81.008844
0
LINE
8
Layer 1
10
13.351030
20
81.008844
11
10.823658
21
83.345254
0
LINE
8
Layer 1
10
10.823658
20
83.345254
11
8.487695
21
85.743660
0
LINE
8
Layer 1
10
8.487695
20
85.743660
11
6.381278
21
88.449230
0
LINE
8
Layer 1
10
6.381278
20
88.449230
11
4.504512
21
91.461964
0
LINE
8
Layer 1
10
4.504512
20
91.461964
11
2.857499
21
94.781863
0
LINE
8
Layer 1
10
2.857499
20
94.781863
11
1.606413
21
98.278909
0
LINE
8
Layer 1
10
1.606413
20
98.278909
11
0.713548
21
102.031443
0
LINE
8
Layer 1
10
0.713548
20
102.031443
11
0.178284
21
106.039465
0
LINE
8
Layer 1
10
0.178284
20
106.039465
11
0.000000
21
110.302975
0
LINE
8
Layer 1
10
0.000000
20
110.302975
11
0.082805
21
113.459336
0
LINE
8
Layer 1
10
0.082805
20
113.459336
11
0.331297
21
116.494153
0
LINE
8
Layer 1
10
0.331297
20
116.494153
11
0.745594
21
119.407531
0
LINE
8
Layer 1
10
0.745594
20
119.407531
11
1.325810
21
122.199573
0
LINE
8
Layer 1
10
1.325810
20
122.199573
11
2.072062
21
124.870382
0
LINE
8
Layer 1
10
2.072062
20
124.870382
11
2.984467
21
127.420061
0
LINE
8
Layer 1
10
2.984467
20
127.420061
11
4.063141
21
129.848715
0
LINE
8
Layer 1
10
4.063141
20
129.848715
11
5.308200
21
132.156445
0
LINE
8
Layer 1
10
5.308200
20
132.156445
11
8.064878
21
136.150601
0
LINE
8
Layer 1
10
8.064878
20
136.150601
11
11.230317
21
139.762247
0
LINE
8
Layer 1
10
11.230317
20
139.762247
11
14.804825
21
142.991282
0
LINE
8
Layer 1
10
14.804825
20
142.991282
11
18.788714
21
145.837601
0
LINE
8
Layer 1
10
18.788714
20
145.837601
11
22.924515
21
148.033590
0
LINE
8
Layer 1
10
22.924515
20
148.033590
11
27.366447
21
149.922518
0
LINE
8
Layer 1
10
27.366447
20
149.922518
11
32.114716
21
151.505315
0
LINE
8
Layer 1
10
32.114716
20
151.505315
11
37.169530
21
152.782910
0
LINE
8
Layer 1
10
37.169530
20
152.782910
11
41.993884
21
153.676017
0
LINE
8
Layer 1
10
41.993884
20
153.676017
11
46.869398
21
154.314461
0
LINE
8
Layer 1
10
46.869398
20
154.314461
11
51.796382
21
154.697831
0
LINE
8
Layer 1
10
51.796382
20
154.697831
11
56.775145
21
154.825713
0
LINE
8
Layer 1
10
56.775145
20
154.825713
11
61.344304
21
154.749180
0
LINE
8
Layer 1
10
61.344304
20
154.749180
11
65.658802
21
154.519375
0
LINE
8
Layer 1
10
65.658802
20
154.519375
11
69.718224
21
154.135988
0
LINE
8
Layer 1
10
69.718224
20
154.135988
11
73.522159
21
153.598709
0
LINE
8
Layer 1
10
73.522159
20
153.598709
11
77.122420
21
152.910103
0
LINE
8
Layer 1
10
77.122420
20
152.910103
11
80.568892
21
152.068536
0
LINE
8
Layer 1
10
80.568892
20
152.068536
11
87.205520
21
150.128259
0
LINE
8
Layer 1
10
87.205520
20
150.128259
11
90.421584
21
148.825876
0
LINE
8
Layer 1
10
90.421584
20
148.825876
11
93.536776
21
147.372184
0
LINE
8
Layer 1
10
93.536776
20
147.372184
11
99.459030
21
144.206005
0
LINE
8
Layer 1
10
99.459030
20
144.206005
11
103.340686
21
141.753098
0
LINE
8
Layer 1
10
103.340686
20
141.753098
11
107.425189
21
139.304601
0
LINE
8
Layer 1
10
107.425189
20
139.304601
11
108.432483
21
138.435559
0
LINE
8
Layer 1
10
108.432483
20
138.435559
11
109.210437
21
137.465335
0
LINE
8
Layer 1
10
109.210437
20
137.465335
11
109.759154
21
136.393618
0
LINE
8
Layer 1
10
109.759154
20
136.393618
11
110.078738
21
135.220098
0
LINE
8
Layer 1
10
110.078738
20
135.220098
11
110.155891
21
134.006288
0
LINE
8
Layer 1
10
110.155891
20
134.006288
11
109.977452
21
132.818730
0
LINE
8
Layer 1
10
109.977452
20
132.818730
11
109.543732
21
131.657217
0
LINE
8
Layer 1
10
109.543732
20
131.657217
11
108.855041
21
130.521541
0
LINE
8
Layer 1
10
108.855041
20
130.521541
11
100.278135
21
118.268032
0
LINE
8
Layer 1
10
100.278135
20
118.268032
11
99.402031
21
117.259016
0
LINE
8
Layer 1
10
99.402031
20
117.259016
11
98.412135
21
116.480580
0
LINE
8
Layer 1
10
98.412135
20
116.480580
11
97.307930
21
115.932207
0
LINE
8
Layer 1
10
97.307930
20
115.932207
11
96.088901
21
115.613381
0
LINE
8
Layer 1
10
96.088901
20
115.613381
11
94.831046
21
115.522361
0
LINE
8
Layer 1
10
94.831046
20
115.522361
11
93.612154
21
115.662439
0
LINE
8
Layer 1
10
93.612154
20
115.662439
11
92.431917
21
116.033200
0
LINE
8
Layer 1
10
92.431917
20
116.033200
11
91.290023
21
116.634231
0
LINE
8
Layer 1
10
91.290023
20
116.634231
11
87.358310
21
119.032412
0
LINE
8
Layer 1
10
87.358310
20
119.032412
11
83.528916
21
121.125393
0
LINE
8
Layer 1
10
83.528916
20
121.125393
11
79.802048
21
122.913069
0
LINE
8
Layer 1
10
79.802048
20
122.913069
11
76.177913
21
124.395338
0
LINE
8
Layer 1
10
76.177913
20
124.395338
11
71.287964
21
126.091840
0
LINE
8
Layer 1
10
71.287964
20
126.091840
11
66.220352
21
127.304651
0
LINE
8
Layer 1
10
66.220352
20
127.304651
11
60.974353
21
128.032943
0
LINE
8
Layer 1
10
60.974353
20
128.032943
11
55.549243
21
128.275892
0
LINE
8
Layer 1
10
55.549243
20
128.275892
11
51.567266
21
128.071942
0
LINE
8
Layer 1
10
51.567266
20
128.071942
11
47.176287
21
127.458991
0
LINE
8
Layer 1
10
47.176287
20
127.458991
11
42.580394
21
126.180999
0
LINE
8
Layer 1
10
42.580394
20
126.180999
11
38.190380
21
124.395338
0
LINE
8
Layer 1
10
38.190380
20
124.395338
11
36.222818
21
123.322398
0
LINE
8
Layer 1
10
36.222818
20
123.322398
11
34.412352
21
122.148586
0
LINE
8
Layer 1
10
34.412352
20
122.148586
11
32.752368
21
120.820571
0
LINE
8
Layer 1
10
32.752368
20
120.820571
11
31.246173
21
119.289985
0
LINE
8
Layer 1
10
31.246173
20
119.289985
11
30.084453
21
117.578738
0
LINE
8
Layer 1
10
30.084453
20
117.578738
11
29.254909
21
115.714528
0
LINE
8
Layer 1
10
29.254909
20
115.714528
11
28.757334
21
113.697771
0
LINE
8
Layer 1
10
28.757334
20
113.697771
11
28.591522
21
111.528877
0
LINE
8
Layer 1
10
28.591522
20
111.528877
11
28.795609
21
109.371232
0
LINE
8
Layer 1
10
28.795609
20
109.371232
11
29.408147
21
107.392698
0
LINE
8
Layer 1
10
29.408147
20
107.392698
11
30.429548
21
105.592964
0
LINE
8
Layer 1
10
30.429548
20
105.592964
11
31.860227
21
103.971720
0
LINE
8
Layer 1
10
31.860227
20
103.971720
11
33.607079
21
102.503645
0
LINE
8
Layer 1
10
33.607079
20
102.503645
11
35.584925
21
101.162590
0
LINE
8
Layer 1
10
35.584925
20
101.162590
11
37.793660
21
99.949487
0
LINE
8
Layer 1
10
37.793660
20
99.949487
11
40.233183
21
98.865264
0
LINE
8
Layer 1
10
40.233183
20
98.865264
11
45.643909
21
97.026411
0
LINE
8
Layer 1
10
45.643909
20
97.026411
11
51.464740
21
95.394814
0
LINE
8
Layer 1
10
51.464740
20
95.394814
11
57.489520
21
93.964963
0
LINE
8
Layer 1
10
57.489520
20
93.964963
11
63.310350
21
92.534008
0
LINE
8
Layer 1
10
63.310350
20
92.534008
11
68.008907
21
91.514261
0
LINE
8
Layer 1
10
68.008907
20
91.514261
11
73.318210
21
90.493411
0
LINE
8
Layer 1
10
73.318210
20
90.493411
11
79.240464
21
89.367830
0
LINE
8
Layer 1
10
79.240464
20
89.367830
11
85.367769
21
87.633707
0
LINE
8
Layer 1
10
85.367769
20
87.633707
11
88.737898
21
86.613959
0
LINE
8
Layer 1
10
88.737898
20
86.613959
11
92.106924
21
85.386955
0
LINE
8
Layer 1
10
92.106924
20
85.386955
11
97.723805
21
82.733406
0
LINE
8
Layer 1
10
97.723805
20
82.733406
11
100.658749
21
81.097400
0
LINE
8
Layer 1
10
100.658749
20
81.097400
11
103.135634
21
79.464701
0
LINE
8
Layer 1
10
103.135634
20
79.464701
11
106.096761
21
77.319372
0
LINE
8
Layer 1
10
106.096761
20
77.319372
11
108.651091
21
74.972299
0
LINE
8
Layer 1
10
108.651091
20
74.972299
11
111.049428
21
72.316493
0
LINE
8
Layer 1
10
111.049428
20
72.316493
11
113.142667
21
69.456979
0
LINE
8
Layer 1
10
113.142667
20
69.456979
11
114.930395
21
66.393447
0
LINE
8
Layer 1
10
114.930395
20
66.393447
11
116.412198
21
63.125586
0
LINE
8
Layer 1
10
116.412198
20
63.125586
11
117.752064
21
59.371536
0
LINE
8
Layer 1
10
117.752064
20
59.371536
11
118.709111
21
55.261126
0
LINE
8
Layer 1
10
118.709111
20
55.261126
11
119.283339
21
50.793942
0
LINE
8
Layer 1
10
119.283339
20
50.793942
11
119.474749
21
45.969570
0
LINE
8
Layer 1
10
119.474749
20
45.969570
11
119.219467
21
40.415993
0
LINE
8
Layer 1
10
119.219467
20
40.415993
11
118.453623
21
35.195108
0
LINE
8
Layer 1
10
118.453623
20
35.195108
11
117.177216
21
30.306813
0
LINE
8
Layer 1
10
117.177216
20
30.306813
11
115.390246
21
25.751004
0
LINE
8
Layer 1
10
115.390246
20
25.751004
11
113.129248
21
21.653685
0
LINE
8
Layer 1
10
113.129248
20
21.653685
11
110.435512
21
17.939185
0
LINE
8
Layer 1
10
110.435512
20
17.939185
11
107.308728
21
14.607504
0
LINE
8
Layer 1
10
107.308728
20
14.607504
11
103.748585
21
11.658641
0
LINE
8
Layer 1
10
103.748585
20
11.658641
11
99.713570
21
8.900758
0
LINE
8
Layer 1
10
99.713570
20
8.900758
11
95.373562
21
6.552048
0
LINE
8
Layer 1
10
95.373562
20
6.552048
11
90.727836
21
4.612408
0
LINE
8
Layer 1
10
90.727836
20
4.612408
11
85.775669
21
3.081736
0
LINE
8
Layer 1
10
85.775669
20
3.081736
11
80.273699
21
1.831529
0
LINE
8
Layer 1
10
80.273699
20
1.831529
11
74.593859
21
0.937372
0
LINE
8
Layer 1
10
74.593859
20
0.937372
11
68.735632
21
0.400195
0
LINE
8
Layer 1
10
68.735632
20
0.400195
11
62.698501
21
0.220930
0
LINE
8
Layer 1
10
62.698501
20
0.220930
11
56.965986
21
0.336186
0
LINE
8
Layer 1
10
56.965986
20
0.336186
11
51.617013
21
0.681608
0
LINE
8
Layer 1
10
51.617013
20
0.681608
11
46.651892
21
1.256680
0
LINE
8
Layer 1
10
46.651892
20
1.256680
11
42.070934
21
2.060886
0
LINE
8
Layer 1
10
42.070934
20
2.060886
11
37.921714
21
2.890206
0
LINE
8
Layer 1
10
37.921714
20
2.890206
11
33.849700
21
3.949486
0
LINE
8
Layer 1
10
33.849700
20
3.949486
11
29.854786
21
5.238830
0
LINE
8
Layer 1
10
29.854786
20
5.238830
11
25.936871
21
6.758340
0
LINE
8
Layer 1
10
25.936871
20
6.758340
11
22.311530
21
8.262881
0
LINE
8
Layer 1
10
22.311530
20
8.262881
11
18.788714
21
9.924519
0
LINE
8
Layer 1
10
18.788714
20
9.924519
11
15.366634
21
11.734571
0
LINE
8
Layer 1
10
15.366634
20
11.734571
11
12.049560
21
13.702546
0
LINE
8
Layer 1
10
12.049560
20
13.702546
11
7.965057
21
16.253569
0
LINE
8
Layer 1
10
7.965057
20
16.253569
11
3.675502
21
19.215799
0
LINE
8
Layer 1
10
3.675502
20
19.215799
11
2.666313
21
19.993288
0
LINE
8
Layer 1
10
2.666313
20
19.993288
11
1.887498
21
20.899761
0
LINE
8
Layer 1
10
1.887498
20
20.899761
11
1.338746
21
21.934391
0
LINE
8
Layer 1
10
1.338746
20
21.934391
11
1.019748
21
23.096352
0
LINE
8
Layer 1
10
1.019748
20
23.096352
11
0.929521
21
24.308130
0
LINE
8
Layer 1
10
0.929521
20
24.308130
11
1.070184
21
25.494689
0
LINE
8
Layer 1
10
1.070184
20
25.494689
11
1.441117
21
26.656443
0
LINE
8
Layer 1
10
1.441117
20
26.656443
11
2.041700
21
27.793807
0
LINE
8
Layer 1
10
2.041700
20
27.793807
11
2.041700
21
27.793807
0
LINE
8
Layer 1
10
234.455993
20
7.778088
11
180.129345
21
66.598240
0
LINE
8
Layer 1
10
180.129345
20
66.598240
11
179.337128
21
67.369769
0
LINE
8
Layer 1
10
179.337128
20
67.369769
11
178.597105
21
67.847569
0
LINE
8
Layer 1
10
178.597105
20
67.847569
11
177.908551
21
68.032261
0
LINE
8
Layer 1
10
177.908551
20
68.032261
11
177.270744
21
67.924464
0
LINE
8
Layer 1
10
177.270744
20
67.924464
11
176.734102
21
67.535168
0
LINE
8
Layer 1
10
176.734102
20
67.535168
11
176.351042
21
66.877155
0
LINE
8
Layer 1
10
176.351042
20
66.877155
11
176.121357
21
65.951252
0
LINE
8
Layer 1
10
176.121357
20
65.951252
11
176.044842
21
64.758285
0
LINE
8
Layer 1
10
176.044842
20
64.758285
11
176.044842
21
9.412991
0
LINE
8
Layer 1
10
176.044842
20
9.412991
11
175.930086
21
8.136360
0
LINE
8
Layer 1
10
175.930086
20
8.136360
11
175.585680
21
6.962152
0
LINE
8
Layer 1
10
175.585680
20
6.962152
11
175.011417
21
5.890262
0
LINE
8
Layer 1
10
175.011417
20
5.890262
11
174.207091
21
4.920589
0
LINE
8
Layer 1
10
174.207091
20
4.920589
11
173.237090
21
4.115626
0
LINE
8
Layer 1
10
173.237090
20
4.115626
11
172.164564
21
3.541036
0
LINE
8
Layer 1
10
172.164564
20
3.541036
11
170.989925
21
3.196509
0
LINE
8
Layer 1
10
170.989925
20
3.196509
11
169.713586
21
3.081736
0
LINE
8
Layer 1
10
169.713586
20
3.081736
11
153.579523
21
3.081736
0
LINE
8
Layer 1
10
153.579523
20
3.081736
11
152.309455
21
3.196509
0
LINE
8
Layer 1
10
152.309455
20
3.196509
11
151.153902
21
3.541036
0
LINE
8
Layer 1
10
151.153902
20
3.541036
11
150.113690
21
4.115626
0
LINE
8
Layer 1
10
150.113690
20
4.115626
11
149.189647
21
4.920589
0
LINE
8
Layer 1
10
149.189647
20
4.920589
11
148.429539
21
5.890262
0
LINE
8
Layer 1
10
148.429539
20
5.890262
11
147.886988
21
6.962152
0
LINE
8
Layer 1
10
147.886988
20
6.962152
11
147.561685
21
8.136360
0
LINE
8
Layer 1
10
147.561685
20
8.136360
11
147.453320
21
9.412991
0
LINE
8
Layer 1
10
147.453320
20
9.412991
11
147.453320
21
146.247705
0
LINE
8
Layer 1
10
147.453320
20
146.247705
11
147.561685
21
147.522803
0
LINE
8
Layer 1
10
147.561685
20
147.522803
11
147.886988
21
148.697029
0
LINE
8
Layer 1
10
147.886988
20
148.697029
11
148.429539
21
149.769969
0
LINE
8
Layer 1
10
148.429539
20
149.769969
11
149.189647
21
150.741210
0
LINE
8
Layer 1
10
149.189647
20
150.741210
11
150.113690
21
151.545071
0
LINE
8
Layer 1
10
150.113690
20
151.545071
11
151.153902
21
152.119385
0
LINE
8
Layer 1
10
151.153902
20
152.119385
11
152.309455
21
152.464050
0
LINE
8
Layer 1
10
152.309455
20
152.464050
11
153.579523
21
152.578961
0
LINE
8
Layer 1
10
153.579523
20
152.578961
11
169.713586
21
152.578961
0
LINE
8
Layer 1
10
169.713586
20
152.578961
11
170.989925
21
152.464050
0
LINE
8
Layer 1
10
170.989925
20
152.464050
11
172.164564
21
152.119385
0
LINE
8
Layer 1
10
172.164564
20
152.119385
11
173.237090
21
151.545071
0
LINE
8
Layer 1
10
173.237090
20
151.545071
11
174.207091
21
150.741210
0
LINE
8
Layer 1
10
174.207091
20
150.741210
11
175.011417
21
149.769969
0
LINE
8
Layer 1
10
175.011417
20
149.769969
11
175.585680
21
148.697029
0
LINE
8
Layer 1
10
175.585680
20
148.697029
11
175.930086
21
147.522803
0
LINE
8
Layer 1
10
175.930086
20
147.522803
11
176.044842
21
146.247705
0
LINE
8
Layer 1
10
176.044842
20
146.247705
11
176.044842
21
82.937355
0
LINE
8
Layer 1
10
176.044842
20
82.937355
11
176.115122
21
81.748919
0
LINE
8
Layer 1
10
176.115122
20
81.748919
11
176.325961
21
80.842325
0
LINE
8
Layer 1
10
176.325961
20
80.842325
11
176.677361
21
80.217058
0
LINE
8
Layer 1
10
176.677361
20
80.217058
11
177.169320
21
79.872600
0
LINE
8
Layer 1
10
177.169320
20
79.872600
11
177.761343
21
79.820148
0
LINE
8
Layer 1
10
177.761343
20
79.820148
11
178.417960
21
80.075585
0
LINE
8
Layer 1
10
178.417960
20
80.075585
11
179.139277
21
80.637979
0
LINE
8
Layer 1
10
179.139277
20
80.637979
11
179.925395
21
81.506401
0
LINE
8
Layer 1
10
179.925395
20
81.506401
11
231.597392
21
147.473608
0
LINE
8
Layer 1
10
231.597392
20
147.473608
11
232.490016
21
148.455235
0
LINE
8
Layer 1
10
232.490016
20
148.455235
11
233.536015
21
149.361105
0
LINE
8
Layer 1
10
233.536015
20
149.361105
11
236.089794
21
150.945160
0
LINE
8
Layer 1
10
236.089794
20
150.945160
11
237.505952
21
151.569479
0
LINE
8
Layer 1
10
237.505952
20
151.569479
11
238.896994
21
152.016446
0
LINE
8
Layer 1
10
238.896994
20
152.016446
11
240.263026
21
152.285232
0
LINE
8
Layer 1
10
240.263026
20
152.285232
11
241.604149
21
152.375011
0
LINE
8
Layer 1
10
241.604149
20
152.375011
11
264.273417
21
152.375011
0
LINE
8
Layer 1
10
264.273417
20
152.375011
11
265.478580
21
152.285232
0
LINE
8
Layer 1
10
265.478580
20
152.285232
11
266.441897
21
152.016446
0
LINE
8
Layer 1
10
266.441897
20
152.016446
11
267.163782
21
151.569479
0
LINE
8
Layer 1
10
267.163782
20
151.569479
11
267.644648
21
150.945160
0
LINE
8
Layer 1
10
267.644648
20
150.945160
11
267.853817
21
150.191115
0
LINE
8
Layer 1
10
267.853817
20
150.191115
11
267.770187
21
149.361105
0
LINE
8
Layer 1
10
267.770187
20
149.361105
11
267.393656
21
148.455235
0
LINE
8
Layer 1
10
267.393656
20
148.455235
11
266.724119
21
147.473608
0
LINE
8
Layer 1
10
266.724119
20
147.473608
11
213.011525
21
80.076549
0
LINE
8
Layer 1
10
213.011525
20
80.076549
11
212.302059
21
79.010620
0
LINE
8
Layer 1
10
212.302059
20
79.010620
11
211.810565
21
77.855291
0
LINE
8
Layer 1
10
211.810565
20
77.855291
11
211.536732
21
76.610871
0
LINE
8
Layer 1
10
211.536732
20
76.610871
11
211.480249
21
75.277672
0
LINE
8
Layer 1
10
211.480249
20
75.277672
11
211.638930
21
73.956650
0
LINE
8
Layer 1
10
211.638930
20
73.956650
11
212.015479
21
72.750351
0
LINE
8
Layer 1
10
212.015479
20
72.750351
11
212.609482
21
71.658980
0
LINE
8
Layer 1
10
212.609482
20
71.658980
11
213.420526
21
70.682743
0
LINE
8
Layer 1
10
213.420526
20
70.682743
11
272.238474
21
7.574138
0
LINE
8
Layer 1
10
272.238474
20
7.574138
11
272.920465
21
6.687044
0
LINE
8
Layer 1
10
272.920465
20
6.687044
11
273.334565
21
5.863305
0
LINE
8
Layer 1
10
273.334565
20
5.863305
11
273.481188
21
5.103437
0
LINE
8
Layer 1
10
273.481188
20
5.103437
11
273.360748
21
4.407959
0
LINE
8
Layer 1
10
273.360748
20
4.407959
11
272.971779
21
3.827271
0
LINE
8
Layer 1
10
272.971779
20
3.827271
11
272.314404
21
3.412878
0
LINE
8
Layer 1
10
272.314404
20
3.412878
11
271.388931
21
3.164470
0
LINE
8
Layer 1
10
271.388931
20
3.164470
11
270.195671
21
3.081736
0
LINE
8
Layer 1
10
270.195671
20
3.081736
11
244.870649
21
3.081736
0
LINE
8
Layer 1
10
244.870649
20
3.081736
11
243.517675
21
3.164470
0
LINE
8
Layer 1
10
243.517675
20
3.164470
11
242.114161
21
3.412878
0
LINE
8
Layer 1
10
242.114161
20
3.412878
11
239.153447
21
4.407959
0
LINE
8
Layer 1
10
239.153447
20
4.407959
11
237.711141
21
5.116081
0
LINE
8
Layer 1
10
237.711141
20
5.116081
11
236.447119
21
5.914016
0
LINE
8
Layer 1
10
236.447119
20
5.914016
11
235.361898
21
6.801455
0
LINE
8
Layer 1
10
235.361898
20
6.801455
11
234.455993
21
7.778088
0
LINE
8
Layer 1
10
234.455993
20
7.778088
11
234.455993
21
7.778088
0
LINE
8
Layer 1
10
671.794384
20
51.483925
11
702.020809
21
51.483925
0
LINE
8
Layer 1
10
702.020809
20
51.483925
11
703.238564
21
51.592463
0
LINE
8
Layer 1
10
703.238564
20
51.592463
11
704.240414
21
51.918145
0
LINE
8
Layer 1
10
704.240414
20
51.918145
11
705.025431
21
52.461074
0
LINE
8
Layer 1
10
705.025431
20
52.461074
11
705.592683
21
53.221355
0
LINE
8
Layer 1
10
705.592683
20
53.221355
11
705.932024
21
54.119646
0
LINE
8
Layer 1
10
705.932024
20
54.119646
11
706.027867
21
55.082946
0
LINE
8
Layer 1
10
706.027867
20
55.082946
11
705.881037
21
56.110944
0
LINE
8
Layer 1
10
705.881037
20
56.110944
11
705.492361
21
57.203332
0
LINE
8
Layer 1
10
705.492361
20
57.203332
11
689.561146
21
90.902412
0
LINE
8
Layer 1
10
689.561146
20
90.902412
11
689.011481
21
91.973319
0
LINE
8
Layer 1
10
689.011481
20
91.973319
11
688.385955
21
92.738509
0
LINE
8
Layer 1
10
688.385955
20
92.738509
11
687.684362
21
93.197775
0
LINE
8
Layer 1
10
687.684362
20
93.197775
11
686.906494
21
93.350909
0
LINE
8
Layer 1
10
686.906494
20
93.350909
11
686.126921
21
93.197775
0
LINE
8
Layer 1
10
686.126921
20
93.197775
11
685.424966
21
92.738509
0
LINE
8
Layer 1
10
685.424966
20
92.738509
11
684.800112
21
91.973319
0
LINE
8
Layer 1
10
684.800112
20
91.973319
11
684.251843
21
90.902412
0
LINE
8
Layer 1
10
684.251843
20
90.902412
11
668.117780
21
57.203332
0
LINE
8
Layer 1
10
668.117780
20
57.203332
11
667.733307
21
56.028262
0
LINE
8
Layer 1
10
667.733307
20
56.028262
11
667.605150
21
54.955615
0
LINE
8
Layer 1
10
667.605150
20
54.955615
11
667.733307
21
53.985700
0
LINE
8
Layer 1
10
667.733307
20
53.985700
11
668.117780
21
53.118829
0
LINE
8
Layer 1
10
668.117780
20
53.118829
11
668.730076
21
52.402938
0
LINE
8
Layer 1
10
668.730076
20
52.402938
11
669.546805
21
51.892100
0
LINE
8
Layer 1
10
669.546805
20
51.892100
11
670.568171
21
51.585900
0
LINE
8
Layer 1
10
670.568171
20
51.585900
11
671.794384
21
51.483925
0
LINE
8
Layer 1
10
671.794384
20
51.483925
11
671.794384
21
51.483925
0
LINE
8
Layer 1
10
610.212644
20
8.594988
11
681.080152
21
150.128259
0
LINE
8
Layer 1
10
681.080152
20
150.128259
11
681.795250
21
151.200441
0
LINE
8
Layer 1
10
681.795250
20
151.200441
11
682.713953
21
151.966285
0
LINE
8
Layer 1
10
682.713953
20
151.966285
11
683.836881
21
152.425792
0
LINE
8
Layer 1
10
683.836881
20
152.425792
11
685.164655
21
152.578961
0
LINE
8
Layer 1
10
685.164655
20
152.578961
11
686.491808
21
152.425792
0
LINE
8
Layer 1
10
686.491808
20
152.425792
11
687.615357
21
151.966285
0
LINE
8
Layer 1
10
687.615357
20
151.966285
11
688.534680
21
151.200441
0
LINE
8
Layer 1
10
688.534680
20
151.200441
11
689.249158
21
150.128259
0
LINE
8
Layer 1
10
689.249158
20
150.128259
11
760.117768
21
8.594988
0
LINE
8
Layer 1
10
760.117768
20
8.594988
11
760.596946
21
7.508699
0
LINE
8
Layer 1
10
760.596946
20
7.508699
11
760.807614
21
6.500233
0
LINE
8
Layer 1
10
760.807614
20
6.500233
11
760.749977
21
5.569283
0
LINE
8
Layer 1
10
760.749977
20
5.569283
11
760.424244
21
4.715537
0
LINE
8
Layer 1
10
760.424244
20
4.715537
11
759.855872
21
3.999819
0
LINE
8
Layer 1
10
759.855872
20
3.999819
11
759.070459
21
3.489359
0
LINE
8
Layer 1
10
759.070459
20
3.489359
11
758.068420
21
3.183538
0
LINE
8
Layer 1
10
758.068420
20
3.183538
11
756.850165
21
3.081736
0
LINE
8
Layer 1
10
756.850165
20
3.081736
11
738.264298
21
3.081736
0
LINE
8
Layer 1
10
738.264298
20
3.081736
11
736.936783
21
3.183538
0
LINE
8
Layer 1
10
736.936783
20
3.183538
11
735.608958
21
3.489359
0
LINE
8
Layer 1
10
735.608958
20
3.489359
11
734.281752
21
3.999819
0
LINE
8
Layer 1
10
734.281752
20
3.999819
11
732.956098
21
4.715537
0
LINE
8
Layer 1
10
732.956098
20
4.715537
11
731.729420
21
5.582564
0
LINE
8
Layer 1
10
731.729420
20
5.582564
11
730.708105
21
6.552737
0
LINE
8
Layer 1
10
730.708105
20
6.552737
11
729.891635
21
7.625436
0
LINE
8
Layer 1
10
729.891635
20
7.625436
11
729.279494
21
8.800040
0
LINE
8
Layer 1
10
729.279494
20
8.800040
11
723.152188
21
21.053550
0
LINE
8
Layer 1
10
723.152188
20
21.053550
11
722.456761
21
22.137996
0
LINE
8
Layer 1
10
722.456761
20
22.137996
11
721.594730
21
23.145962
0
LINE
8
Layer 1
10
721.594730
20
23.145962
11
720.566920
21
24.077860
0
LINE
8
Layer 1
10
720.566920
20
24.077860
11
719.374160
21
24.934103
0
LINE
8
Layer 1
10
719.374160
20
24.934103
11
718.089932
21
25.648133
0
LINE
8
Layer 1
10
718.089932
20
25.648133
11
716.793923
21
26.159179
0
LINE
8
Layer 1
10
716.793923
20
26.159179
11
715.486337
21
26.466412
0
LINE
8
Layer 1
10
715.486337
20
26.466412
11
714.167383
21
26.569007
0
LINE
8
Layer 1
10
714.167383
20
26.569007
11
656.164131
21
26.569007
0
LINE
8
Layer 1
10
656.164131
20
26.569007
11
654.836289
21
26.466412
0
LINE
8
Layer 1
10
654.836289
20
26.466412
11
653.508653
21
26.159179
0
LINE
8
Layer 1
10
653.508653
20
26.159179
11
652.181431
21
25.648133
0
LINE
8
Layer 1
10
652.181431
20
25.648133
11
650.854828
21
24.934103
0
LINE
8
Layer 1
10
650.854828
20
24.934103
11
649.628926
21
24.065371
0
LINE
8
Layer 1
10
649.628926
20
24.065371
11
648.607249
21
23.095663
0
LINE
8
Layer 1
10
648.607249
20
23.095663
11
647.790211
21
22.024050
0
LINE
8
Layer 1
10
647.790211
20
22.024050
11
647.178224
21
20.849600
0
LINE
8
Layer 1
10
647.178224
20
20.849600
11
641.254868
21
8.800040
0
LINE
8
Layer 1
10
641.254868
20
8.800040
11
640.559768
21
7.625436
0
LINE
8
Layer 1
10
640.559768
20
7.625436
11
639.698374
21
6.552737
0
LINE
8
Layer 1
10
639.698374
20
6.552737
11
638.670996
21
5.582564
0
LINE
8
Layer 1
10
638.670996
20
5.582564
11
637.477943
21
4.715537
0
LINE
8
Layer 1
10
637.477943
20
4.715537
11
636.193388
21
3.999819
0
LINE
8
Layer 1
10
636.193388
20
3.999819
11
634.897567
21
3.489359
0
LINE
8
Layer 1
10
634.897567
20
3.489359
11
633.589965
21
3.183538
0
LINE
8
Layer 1
10
633.589965
20
3.183538
11
632.270063
21
3.081736
0
LINE
8
Layer 1
10
632.270063
20
3.081736
11
613.685298
21
3.081736
0
LINE
8
Layer 1
10
613.685298
20
3.081736
11
612.465477
21
3.183538
0
LINE
8
Layer 1
10
612.465477
20
3.183538
11
611.463213
21
3.489359
0
LINE
8
Layer 1
10
611.463213
20
3.489359
11
610.678197
21
3.999819
0
LINE
8
Layer 1
10
610.678197
20
3.999819
11
610.110118
21
4.715537
0
LINE
8
Layer 1
10
610.110118
20
4.715537
11
609.771896
21
5.569283
0
LINE
8
Layer 1
10
609.771896
20
5.569283
11
609.675623
21
6.500233
0
LINE
8
Layer 1
10
609.675623
20
6.500233
11
609.822229
21
7.508699
0
LINE
8
Layer 1
10
609.822229
20
7.508699
11
610.212644
21
8.594988
0
LINE
8
Layer 1
10
610.212644
20
8.594988
11
610.212644
21
8.594988
0
LINE
8
Layer 1
10
624.938904
20
150.638684
11
624.237242
21
151.396932
0
LINE
8
Layer 1
10
624.237242
20
151.396932
11
623.356366
21
151.939689
0
LINE
8
Layer 1
10
623.356366
20
151.939689
11
622.296896
21
152.266026
0
LINE
8
Layer 1
10
622.296896
20
152.266026
11
621.059453
21
152.375011
0
LINE
8
Layer 1
10
621.059453
20
152.375011
11
603.290486
21
152.375011
0
LINE
8
Layer 1
10
603.290486
20
152.375011
11
601.975769
21
152.266026
0
LINE
8
Layer 1
10
601.975769
20
152.266026
11
600.687097
21
151.939689
0
LINE
8
Layer 1
10
600.687097
20
151.939689
11
599.424057
21
151.396932
0
LINE
8
Layer 1
10
599.424057
20
151.396932
11
598.186235
21
150.638684
0
LINE
8
Layer 1
10
598.186235
20
150.638684
11
597.062049
21
149.725872
0
LINE
8
Layer 1
10
597.062049
20
149.725872
11
596.142192
21
148.723763
0
LINE
8
Layer 1
10
596.142192
20
148.723763
11
595.427180
21
147.632357
0
LINE
8
Layer 1
10
595.427180
20
147.632357
11
594.917530
21
146.451655
0
LINE
8
Layer 1
10
594.917530
20
146.451655
11
569.183507
21
76.195996
0
LINE
8
Layer 1
10
569.183507
20
76.195996
11
568.737126
21
75.124279
0
LINE
8
Layer 1
10
568.737126
20
75.124279
11
568.213644
21
74.358383
0
LINE
8
Layer 1
10
568.213644
20
74.358383
11
567.613681
21
73.898618
0
LINE
8
Layer 1
10
567.613681
20
73.898618
11
566.937857
21
73.745294
0
LINE
8
Layer 1
10
566.937857
20
73.745294
11
566.247667
21
73.885509
0
LINE
8
Layer 1
10
566.247667
20
73.885509
11
565.609153
21
74.306431
0
LINE
8
Layer 1
10
565.609153
20
74.306431
11
565.022316
21
75.008472
0
LINE
8
Layer 1
10
565.022316
20
75.008472
11
564.487155
21
75.992046
0
LINE
8
Layer 1
10
564.487155
20
75.992046
11
532.013977
21
149.922105
0
LINE
8
Layer 1
10
532.013977
20
149.922105
11
531.393739
21
150.905386
0
LINE
8
Layer 1
10
531.393739
20
150.905386
11
530.557804
21
151.607858
0
LINE
8
Layer 1
10
530.557804
20
151.607858
11
529.505449
21
152.029417
0
LINE
8
Layer 1
10
529.505449
20
152.029417
11
528.235949
21
152.169959
0
LINE
8
Layer 1
10
528.235949
20
152.169959
11
526.965519
21
152.029417
0
LINE
8
Layer 1
10
526.965519
20
152.029417
11
525.912440
21
151.607858
0
LINE
8
Layer 1
10
525.912440
20
151.607858
11
525.076609
21
150.905386
0
LINE
8
Layer 1
10
525.076609
20
150.905386
11
524.457921
21
149.922105
0
LINE
8
Layer 1
10
524.457921
20
149.922105
11
517.270078
21
133.603936
0
LINE
8
Layer 1
10
517.270078
20
133.603936
11
511.299928
21
117.854461
0
LINE
8
Layer 1
10
511.299928
20
117.854461
11
505.645987
21
103.885627
0
LINE
8
Layer 1
10
505.645987
20
103.885627
11
500.134156
21
91.511371
0
LINE
8
Layer 1
10
500.134156
20
91.511371
11
497.377126
21
85.864066
0
LINE
8
Layer 1
10
497.377126
20
85.864066
11
494.590337
21
80.545633
0
LINE
8
Layer 1
10
494.590337
20
80.545633
11
491.752026
21
75.532815
0
LINE
8
Layer 1
10
491.752026
20
75.532815
11
488.840432
21
70.802353
0
LINE
8
Layer 1
10
488.840432
20
70.802353
11
485.833792
21
66.330990
0
LINE
8
Layer 1
10
485.833792
20
66.330990
11
482.710344
21
62.095468
0
LINE
8
Layer 1
10
482.710344
20
62.095468
11
479.448326
21
58.072531
0
LINE
8
Layer 1
10
479.448326
20
58.072531
11
476.025975
21
54.238919
0
LINE
8
Layer 1
10
476.025975
20
54.238919
11
472.421530
21
50.571376
0
LINE
8
Layer 1
10
472.421530
20
50.571376
11
468.613227
21
47.046644
0
LINE
8
Layer 1
10
468.613227
20
47.046644
11
482.795989
21
5.941439
0
LINE
8
Layer 1
10
482.795989
20
5.941439
11
483.400603
21
4.868155
0
LINE
8
Layer 1
10
483.400603
20
4.868155
11
484.197453
21
4.102035
0
LINE
8
Layer 1
10
484.197453
20
4.102035
11
485.186540
21
3.642666
0
LINE
8
Layer 1
10
485.186540
20
3.642666
11
486.367863
21
3.489635
0
LINE
8
Layer 1
10
486.367863
20
3.489635
11
487.561570
21
3.630023
0
LINE
8
Layer 1
10
487.561570
20
3.630023
11
488.589397
21
4.051323
0
LINE
8
Layer 1
10
488.589397
20
4.051323
11
489.451239
21
4.753743
0
LINE
8
Layer 1
10
489.451239
20
4.753743
11
490.146993
21
5.737490
0
LINE
8
Layer 1
10
490.146993
20
5.737490
11
525.683824
21
84.365002
0
LINE
8
Layer 1
10
525.683824
20
84.365002
11
526.231921
21
85.437994
0
LINE
8
Layer 1
10
526.231921
20
85.437994
11
526.856396
21
86.204544
0
LINE
8
Layer 1
10
526.856396
20
86.204544
11
527.557972
21
86.664551
0
LINE
8
Layer 1
10
527.557972
20
86.664551
11
528.337373
21
86.817909
0
LINE
8
Layer 1
10
528.337373
20
86.817909
11
529.115860
21
86.664551
0
LINE
8
Layer 1
10
529.115860
20
86.664551
11
529.817661
21
86.204544
0
LINE
8
Layer 1
10
529.817661
20
86.204544
11
530.442979
21
85.437994
0
LINE
8
Layer 1
10
530.442979
20
85.437994
11
530.992024
21
84.365002
0
LINE
8
Layer 1
10
530.992024
20
84.365002
11
566.324906
21
5.124539
0
LINE
8
Layer 1
10
566.324906
20
5.124539
11
566.937202
21
4.140499
0
LINE
8
Layer 1
10
566.937202
20
4.140499
11
567.753930
21
3.438510
0
LINE
8
Layer 1
10
567.753930
20
3.438510
11
568.775297
21
3.017847
0
LINE
8
Layer 1
10
568.775297
20
3.017847
11
570.001510
21
2.877786
0
LINE
8
Layer 1
10
570.001510
20
2.877786
11
571.224759
21
3.030800
0
LINE
8
Layer 1
10
571.224759
20
3.030800
11
572.245230
21
3.490048
0
LINE
8
Layer 1
10
572.245230
20
3.490048
11
573.062717
21
4.255841
0
LINE
8
Layer 1
10
573.062717
20
4.255841
11
573.677011
21
5.328488
0
LINE
8
Layer 1
10
573.677011
20
5.328488
11
625.143956
21
146.451655
0
LINE
8
Layer 1
10
625.143956
20
146.451655
11
625.513752
21
147.632357
0
LINE
8
Layer 1
10
625.513752
20
147.632357
11
625.602842
21
148.723763
0
LINE
8
Layer 1
10
625.602842
20
148.723763
11
625.411226
21
149.725872
0
LINE
8
Layer 1
10
625.411226
20
149.725872
11
624.938904
21
150.638684
0
LINE
8
Layer 1
10
624.938904
20
150.638684
11
624.938904
21
150.638684
0
LINE
8
Layer 1
10
350.296030
20
50.285584
11
346.620804
21
51.297477
0
LINE
8
Layer 1
10
346.620804
20
51.297477
11
342.762023
21
52.645886
0
LINE
8
Layer 1
10
342.762023
20
52.645886
11
355.174283
21
77.292914
0
LINE
8
Layer 1
10
355.174283
20
77.292914
11
361.689644
21
90.902412
0
LINE
8
Layer 1
10
361.689644
20
90.902412
11
362.237914
21
91.973319
0
LINE
8
Layer 1
10
362.237914
20
91.973319
11
362.862767
21
92.738509
0
LINE
8
Layer 1
10
362.862767
20
92.738509
11
363.564723
21
93.197775
0
LINE
8
Layer 1
10
363.564723
20
93.197775
11
364.344296
21
93.350909
0
LINE
8
Layer 1
10
364.344296
20
93.350909
11
365.122163
21
93.197775
0
LINE
8
Layer 1
10
365.122163
20
93.197775
11
365.823757
21
92.738509
0
LINE
8
Layer 1
10
365.823757
20
92.738509
11
366.449282
21
91.973319
0
LINE
8
Layer 1
10
366.449282
20
91.973319
11
366.998947
21
90.902412
0
LINE
8
Layer 1
10
366.998947
20
90.902412
11
375.432537
21
73.060685
0
LINE
8
Layer 1
10
375.432537
20
73.060685
11
386.901116
21
51.156503
0
LINE
8
Layer 1
10
386.901116
20
51.156503
11
382.218994
21
50.185127
0
LINE
8
Layer 1
10
382.218994
20
50.185127
11
377.448002
21
49.454782
0
LINE
8
Layer 1
10
377.448002
20
49.454782
11
372.647788
21
48.968169
0
LINE
8
Layer 1
10
372.647788
20
48.968169
11
367.877997
21
48.727988
0
LINE
8
Layer 1
10
367.877997
20
48.727988
11
363.198279
21
48.736939
0
LINE
8
Layer 1
10
363.198279
20
48.736939
11
358.668280
21
48.997721
0
LINE
8
Layer 1
10
358.668280
20
48.997721
11
354.347648
21
49.513036
0
LINE
8
Layer 1
10
354.347648
20
49.513036
11
350.296030
21
50.285584
0
LINE
8
Layer 1
10
350.296030
20
50.285584
11
350.296030
21
50.285584
0
LINE
8
Layer 1
10
347.883913
20
371.508330
11
337.674404
21
374.374463
0
LINE
8
Layer 1
10
337.674404
20
374.374463
11
326.768865
21
377.188841
0
LINE
8
Layer 1
10
326.768865
20
377.188841
11
315.040741
21
379.764837
0
LINE
8
Layer 1
10
315.040741
20
379.764837
11
308.828661
21
380.905120
0
LINE
8
Layer 1
10
308.828661
20
380.905120
11
302.363476
21
381.915820
0
LINE
8
Layer 1
10
302.363476
20
381.915820
11
295.629367
21
382.773610
0
LINE
8
Layer 1
10
295.629367
20
382.773610
11
288.610515
21
383.455161
0
LINE
8
Layer 1
10
288.610515
20
383.455161
11
281.291100
21
383.937144
0
LINE
8
Layer 1
10
281.291100
20
383.937144
11
273.655303
21
384.196231
0
LINE
8
Layer 1
10
273.655303
20
384.196231
11
265.687304
21
384.209093
0
LINE
8
Layer 1
10
265.687304
20
384.209093
11
257.371284
21
383.952400
0
LINE
8
Layer 1
10
257.371284
20
383.952400
11
248.691423
21
383.402825
0
LINE
8
Layer 1
10
248.691423
20
383.402825
11
239.631902
21
382.537039
0
LINE
8
Layer 1
10
239.631902
20
382.537039
11
233.261853
21
381.752241
0
LINE
8
Layer 1
10
233.261853
20
381.752241
11
227.293595
21
380.868989
0
LINE
8
Layer 1
10
227.293595
20
380.868989
11
221.714040
21
379.895375
0
LINE
8
Layer 1
10
221.714040
20
379.895375
11
216.510099
21
378.839487
0
LINE
8
Layer 1
10
216.510099
20
378.839487
11
211.668686
21
377.709417
0
LINE
8
Layer 1
10
211.668686
20
377.709417
11
207.176714
21
376.513256
0
LINE
8
Layer 1
10
207.176714
20
376.513256
11
203.021095
21
375.259092
0
LINE
8
Layer 1
10
203.021095
20
375.259092
11
199.188740
21
373.955018
0
LINE
8
Layer 1
10
199.188740
20
373.955018
11
192.441479
21
371.229498
0
LINE
8
Layer 1
10
192.441479
20
371.229498
11
186.830229
21
368.401417
0
LINE
8
Layer 1
10
186.830229
20
368.401417
11
182.250292
21
365.535500
0
LINE
8
Layer 1
10
182.250292
20
365.535500
11
178.596967
21
362.696469
0
LINE
8
Layer 1
10
178.596967
20
362.696469
11
175.765556
21
359.949047
0
LINE
8
Layer 1
10
175.765556
20
359.949047
11
173.651359
21
357.357958
0
LINE
8
Layer 1
10
173.651359
20
357.357958
11
172.149675
21
354.987924
0
LINE
8
Layer 1
10
172.149675
20
354.987924
11
171.155806
21
352.903669
0
LINE
8
Layer 1
10
171.155806
20
352.903669
11
170.565051
21
351.169916
0
LINE
8
Layer 1
10
170.565051
20
351.169916
11
170.272712
21
349.851387
0
LINE
8
Layer 1
10
170.272712
20
349.851387
11
170.164480
21
348.718897
0
LINE
8
Layer 1
10
170.164480
20
348.718897
11
169.529274
21
349.867095
0
LINE
8
Layer 1
10
169.529274
20
349.867095
11
168.896651
21
351.563664
0
LINE
8
Layer 1
10
168.896651
20
351.563664
11
168.197469
21
354.240831
0
LINE
8
Layer 1
10
168.197469
20
354.240831
11
167.539319
21
358.072811
0
LINE
8
Layer 1
10
167.539319
20
358.072811
11
167.029789
21
363.233817
0
LINE
8
Layer 1
10
167.029789
20
363.233817
11
166.776472
21
369.898065
0
LINE
8
Layer 1
10
166.776472
20
369.898065
11
166.886956
21
378.239767
0
LINE
8
Layer 1
10
166.886956
20
378.239767
11
160.161930
21
377.991249
0
LINE
8
Layer 1
10
160.161930
20
377.991249
11
153.511138
21
377.267166
0
LINE
8
Layer 1
10
153.511138
20
377.267166
11
146.941943
21
376.099725
0
LINE
8
Layer 1
10
146.941943
20
376.099725
11
140.461709
21
374.521133
0
LINE
8
Layer 1
10
140.461709
20
374.521133
11
134.077799
21
372.563599
0
LINE
8
Layer 1
10
134.077799
20
372.563599
11
127.797579
21
370.259328
0
LINE
8
Layer 1
10
127.797579
20
370.259328
11
121.628410
21
367.640529
0
LINE
8
Layer 1
10
121.628410
20
367.640529
11
115.577659
21
364.739409
0
LINE
8
Layer 1
10
115.577659
20
364.739409
11
109.888920
21
361.726029
0
LINE
8
Layer 1
10
109.888920
20
361.726029
11
104.396383
21
358.539688
0
LINE
8
Layer 1
10
104.396383
20
358.539688
11
99.083654
21
355.167828
0
LINE
8
Layer 1
10
99.083654
20
355.167828
11
93.934340
21
351.597893
0
LINE
8
Layer 1
10
93.934340
20
351.597893
11
88.932044
21
347.817324
0
LINE
8
Layer 1
10
88.932044
20
347.817324
11
84.060374
21
343.813566
0
LINE
8
Layer 1
10
84.060374
20
343.813566
11
79.302934
21
339.574059
0
LINE
8
Layer 1
10
79.302934
20
339.574059
11
74.643330
21
335.086247
0
LINE
8
Layer 1
10
74.643330
20
335.086247
11
70.334169
21
330.509705
0
LINE
8
Layer 1
10
70.334169
20
330.509705
11
66.222234
21
325.620872
0
LINE
8
Layer 1
10
66.222234
20
325.620872
11
62.308096
21
320.458182
0
LINE
8
Layer 1
10
62.308096
20
320.458182
11
58.592329
21
315.060072
0
LINE
8
Layer 1
10
58.592329
20
315.060072
11
55.075502
21
309.464979
0
LINE
8
Layer 1
10
55.075502
20
309.464979
11
51.758188
21
303.711337
0
LINE
8
Layer 1
10
51.758188
20
303.711337
11
48.640959
21
297.837583
0
LINE
8
Layer 1
10
48.640959
20
297.837583
11
45.724387
21
291.882153
0
LINE
8
Layer 1
10
45.724387
20
291.882153
11
43.009042
21
285.883483
0
LINE
8
Layer 1
10
43.009042
20
285.883483
11
40.495497
21
279.880009
0
LINE
8
Layer 1
10
40.495497
20
279.880009
11
38.184323
21
273.910166
0
LINE
8
Layer 1
10
38.184323
20
273.910166
11
36.076092
21
268.012391
0
LINE
8
Layer 1
10
36.076092
20
268.012391
11
34.171375
21
262.225119
0
LINE
8
Layer 1
10
34.171375
20
262.225119
11
32.470745
21
256.586787
0
LINE
8
Layer 1
10
32.470745
20
256.586787
11
29.684030
21
245.910685
0
LINE
8
Layer 1
10
29.684030
20
245.910685
11
28.366243
21
239.709815
0
LINE
8
Layer 1
10
28.366243
20
239.709815
11
27.051117
21
232.248597
0
LINE
8
Layer 1
10
27.051117
20
232.248597
11
25.913293
21
224.004455
0
LINE
8
Layer 1
10
25.913293
20
224.004455
11
25.127411
21
215.454816
0
LINE
8
Layer 1
10
25.127411
20
215.454816
11
24.921024
21
211.214630
0
LINE
8
Layer 1
10
24.921024
20
211.214630
11
24.868112
21
207.077103
0
LINE
8
Layer 1
10
24.868112
20
207.077103
11
24.990506
21
203.101916
0
LINE
8
Layer 1
10
24.990506
20
203.101916
11
25.310036
21
199.348744
0
LINE
8
Layer 1
10
25.310036
20
199.348744
11
25.848531
21
195.877267
0
LINE
8
Layer 1
10
25.848531
20
195.877267
11
26.627823
21
192.747163
0
LINE
8
Layer 1
10
26.627823
20
192.747163
11
27.669740
21
190.018109
0
LINE
8
Layer 1
10
27.669740
20
190.018109
11
28.996114
21
187.749785
0
LINE
8
Layer 1
10
28.996114
20
187.749785
11
30.693367
21
185.637376
0
LINE
8
Layer 1
10
30.693367
20
185.637376
11
32.470370
21
183.807855
0
LINE
8
Layer 1
10
32.470370
20
183.807855
11
34.316542
21
182.239322
0
LINE
8
Layer 1
10
34.316542
20
182.239322
11
36.221302
21
180.909879
0
LINE
8
Layer 1
10
36.221302
20
180.909879
11
38.174070
21
179.797625
0
LINE
8
Layer 1
10
38.174070
20
179.797625
11
40.164264
21
178.880660
0
LINE
8
Layer 1
10
40.164264
20
178.880660
11
42.181304
21
178.137087
0
LINE
8
Layer 1
10
42.181304
20
178.137087
11
44.214609
21
177.545004
0
LINE
8
Layer 1
10
44.214609
20
177.545004
11
48.287691
21
176.727714
0
LINE
8
Layer 1
10
48.287691
20
176.727714
11
52.298866
21
176.253593
0
LINE
8
Layer 1
10
52.298866
20
176.253593
11
59.796906
21
175.634079
0
LINE
8
Layer 1
10
59.796906
20
175.634079
11
67.509652
21
175.073287
0
LINE
8
Layer 1
10
67.509652
20
175.073287
11
76.411008
21
174.931694
0
LINE
8
Layer 1
10
76.411008
20
174.931694
11
86.514874
21
175.221082
0
LINE
8
Layer 1
10
86.514874
20
175.221082
11
97.835150
21
175.953233
0
LINE
8
Layer 1
10
97.835150
20
175.953233
11
110.385739
21
177.139930
0
LINE
8
Layer 1
10
110.385739
20
177.139930
11
124.180540
21
178.792955
0
LINE
8
Layer 1
10
124.180540
20
178.792955
11
139.233455
21
180.924090
0
LINE
8
Layer 1
10
139.233455
20
180.924090
11
155.558385
21
183.545117
0
LINE
8
Layer 1
10
155.558385
20
183.545117
11
174.555648
21
186.789155
0
LINE
8
Layer 1
10
174.555648
20
186.789155
11
188.045087
21
188.921375
0
LINE
8
Layer 1
10
188.045087
20
188.921375
11
203.738848
21
191.150230
0
LINE
8
Layer 1
10
203.738848
20
191.150230
11
221.294768
21
193.293096
0
LINE
8
Layer 1
10
221.294768
20
193.293096
11
240.370685
21
195.167348
0
LINE
8
Layer 1
10
240.370685
20
195.167348
11
250.371716
21
195.946673
0
LINE
8
Layer 1
10
250.371716
20
195.946673
11
260.624436
21
196.590361
0
LINE
8
Layer 1
10
260.624436
20
196.590361
11
271.086074
21
197.075583
0
LINE
8
Layer 1
10
271.086074
20
197.075583
11
281.713860
21
197.379511
0
LINE
8
Layer 1
10
281.713860
20
197.379511
11
287.541039
21
197.410167
0
LINE
8
Layer 1
10
287.541039
20
197.410167
11
293.668725
21
197.285243
0
LINE
8
Layer 1
10
293.668725
20
197.285243
11
306.612741
21
196.572033
0
LINE
8
Layer 1
10
306.612741
20
196.572033
11
320.120159
21
195.246639
0
LINE
8
Layer 1
10
320.120159
20
195.246639
11
326.952097
21
194.356484
0
LINE
8
Layer 1
10
326.952097
20
194.356484
11
333.765230
21
193.315816
0
LINE
8
Layer 1
10
333.765230
20
193.315816
11
340.506339
21
192.125481
0
LINE
8
Layer 1
10
340.506339
20
192.125481
11
347.122205
21
190.786323
0
LINE
8
Layer 1
10
347.122205
20
190.786323
11
353.559610
21
189.299186
0
LINE
8
Layer 1
10
353.559610
20
189.299186
11
359.765335
21
187.664915
0
LINE
8
Layer 1
10
359.765335
20
187.664915
11
365.686162
21
185.884355
0
LINE
8
Layer 1
10
365.686162
20
185.884355
11
371.268872
21
183.958350
0
LINE
8
Layer 1
10
371.268872
20
183.958350
11
376.460245
21
181.887744
0
LINE
8
Layer 1
10
376.460245
20
181.887744
11
381.207065
21
179.673383
0
LINE
8
Layer 1
10
381.207065
20
179.673383
11
385.253573
21
177.557858
0
LINE
8
Layer 1
10
385.253573
20
177.557858
11
389.378866
21
175.244795
0
LINE
8
Layer 1
10
389.378866
20
175.244795
11
393.536049
21
172.711038
0
LINE
8
Layer 1
10
393.536049
20
172.711038
11
397.678230
21
169.933431
0
LINE
8
Layer 1
10
397.678230
20
169.933431
11
401.758516
21
166.888819
0
LINE
8
Layer 1
10
401.758516
20
166.888819
11
405.730013
21
163.554046
0
LINE
8
Layer 1
10
405.730013
20
163.554046
11
409.545828
21
159.905955
0
LINE
8
Layer 1
10
409.545828
20
159.905955
11
413.159069
21
155.921391
0
LINE
8
Layer 1
10
413.159069
20
155.921391
11
416.522842
21
151.577198
0
LINE
8
Layer 1
10
416.522842
20
151.577198
11
419.590254
21
146.850220
0
LINE
8
Layer 1
10
419.590254
20
146.850220
11
422.314412
21
141.717301
0
LINE
8
Layer 1
10
422.314412
20
141.717301
11
424.648422
21
136.155286
0
LINE
8
Layer 1
10
424.648422
20
136.155286
11
426.545393
21
130.141018
0
LINE
8
Layer 1
10
426.545393
20
130.141018
11
427.315334
21
126.957053
0
LINE
8
Layer 1
10
427.315334
20
126.957053
11
427.958430
21
123.651342
0
LINE
8
Layer 1
10
427.958430
20
123.651342
11
428.468819
21
120.220989
0
LINE
8
Layer 1
10
428.468819
20
120.220989
11
428.840640
21
116.663101
0
LINE
8
Layer 1
10
428.840640
20
116.663101
11
429.068031
21
112.974783
0
LINE
8
Layer 1
10
429.068031
20
112.974783
11
429.145131
21
109.153141
0
LINE
8
Layer 1
10
429.145131
20
109.153141
11
429.062902
21
105.899479
0
LINE
8
Layer 1
10
429.062902
20
105.899479
11
428.819938
21
102.652931
0
LINE
8
Layer 1
10
428.819938
20
102.652931
11
428.421825
21
99.423892
0
LINE
8
Layer 1
10
428.421825
20
99.423892
11
427.874150
21
96.222756
0
LINE
8
Layer 1
10
427.874150
20
96.222756
11
426.352454
21
89.945776
0
LINE
8
Layer 1
10
426.352454
20
89.945776
11
424.299538
21
83.905151
0
LINE
8
Layer 1
10
424.299538
20
83.905151
11
421.760088
21
78.184041
0
LINE
8
Layer 1
10
421.760088
20
78.184041
11
418.778792
21
72.865607
0
LINE
8
Layer 1
10
418.778792
20
72.865607
11
417.136417
21
70.383380
0
LINE
8
Layer 1
10
417.136417
20
70.383380
11
415.400337
21
68.033008
0
LINE
8
Layer 1
10
415.400337
20
68.033008
11
413.576140
21
65.824884
0
LINE
8
Layer 1
10
413.576140
20
65.824884
11
411.669411
21
63.769405
0
LINE
8
Layer 1
10
411.669411
20
63.769405
11
368.428799
21
150.128259
0
LINE
8
Layer 1
10
368.428799
20
150.128259
11
367.714166
21
151.200441
0
LINE
8
Layer 1
10
367.714166
20
151.200441
11
366.794584
21
151.966285
0
LINE
8
Layer 1
10
366.794584
20
151.966285
11
365.670984
21
152.425792
0
LINE
8
Layer 1
10
365.670984
20
152.425792
11
364.344296
21
152.578961
0
LINE
8
Layer 1
10
364.344296
20
152.578961
11
363.016057
21
152.425792
0
LINE
8
Layer 1
10
363.016057
20
152.425792
11
361.893180
21
151.966285
0
LINE
8
Layer 1
10
361.893180
20
151.966285
11
360.974735
21
151.200441
0
LINE
8
Layer 1
10
360.974735
20
151.200441
11
360.259792
21
150.128259
0
LINE
8
Layer 1
10
360.259792
20
150.128259
11
318.355326
21
66.438388
0
LINE
8
Layer 1
10
318.355326
20
66.438388
11
314.325565
21
69.621982
0
LINE
8
Layer 1
10
314.325565
20
69.621982
11
310.497756
21
72.965463
0
LINE
8
Layer 1
10
310.497756
20
72.965463
11
306.926262
21
76.444749
0
LINE
8
Layer 1
10
306.926262
20
76.444749
11
303.665446
21
80.035760
0
LINE
8
Layer 1
10
303.665446
20
80.035760
11
299.337506
21
85.294859
0
LINE
8
Layer 1
10
299.337506
20
85.294859
11
295.489084
21
90.354849
0
LINE
8
Layer 1
10
295.489084
20
90.354849
11
292.110014
21
95.302494
0
LINE
8
Layer 1
10
292.110014
20
95.302494
11
289.190127
21
100.224560
0
LINE
8
Layer 1
10
289.190127
20
100.224560
11
286.719256
21
105.207811
0
LINE
8
Layer 1
10
286.719256
20
105.207811
11
284.687234
21
110.339011
0
LINE
8
Layer 1
10
284.687234
20
110.339011
11
283.083894
21
115.704925
0
LINE
8
Layer 1
10
283.083894
20
115.704925
11
281.899068
21
121.392319
0
LINE
8
Layer 1
10
281.899068
20
121.392319
11
280.914052
21
120.137163
0
LINE
8
Layer 1
10
280.914052
20
120.137163
11
280.029295
21
118.740850
0
LINE
8
Layer 1
10
280.029295
20
118.740850
11
278.566319
21
115.551408
0
LINE
8
Layer 1
10
278.566319
20
115.551408
11
277.521663
21
111.877299
0
LINE
8
Layer 1
10
277.521663
20
111.877299
11
276.906852
21
107.771830
0
LINE
8
Layer 1
10
276.906852
20
107.771830
11
276.733408
21
103.288311
0
LINE
8
Layer 1
10
276.733408
20
103.288311
11
277.012857
21
98.480047
0
LINE
8
Layer 1
10
277.012857
20
98.480047
11
277.756722
21
93.400346
0
LINE
8
Layer 1
10
277.756722
20
93.400346
11
278.976526
21
88.102515
0
LINE
8
Layer 1
10
278.976526
20
88.102515
11
280.683794
21
82.639863
0
LINE
8
Layer 1
10
280.683794
20
82.639863
11
282.890049
21
77.065697
0
LINE
8
Layer 1
10
282.890049
20
77.065697
11
285.606816
21
71.433323
0
LINE
8
Layer 1
10
285.606816
20
71.433323
11
288.845617
21
65.796050
0
LINE
8
Layer 1
10
288.845617
20
65.796050
11
292.617978
21
60.207185
0
LINE
8
Layer 1
10
292.617978
20
60.207185
11
296.935421
21
54.720035
0
LINE
8
Layer 1
10
296.935421
20
54.720035
11
301.809471
21
49.387908
0
LINE
8
Layer 1
10
301.809471
20
49.387908
11
307.251651
21
44.264111
0
LINE
8
Layer 1
10
307.251651
20
44.264111
11
289.392285
21
8.594988
0
LINE
8
Layer 1
10
289.392285
20
8.594988
11
289.001249
21
7.508716
0
LINE
8
Layer 1
10
289.001249
20
7.508716
11
288.854437
21
6.500371
0
LINE
8
Layer 1
10
288.854437
20
6.500371
11
288.950917
21
5.569748
0
LINE
8
Layer 1
10
288.950917
20
5.569748
11
289.289759
21
4.716640
0
LINE
8
Layer 1
10
289.289759
20
4.716640
11
289.857200
21
4.000284
0
LINE
8
Layer 1
10
289.857200
20
4.000284
11
290.641889
21
3.489497
0
LINE
8
Layer 1
10
290.641889
20
3.489497
11
291.644032
21
3.183556
0
LINE
8
Layer 1
10
291.644032
20
3.183556
11
292.863837
21
3.081736
0
LINE
8
Layer 1
10
292.863837
20
3.081736
11
311.448602
21
3.081736
0
LINE
8
Layer 1
10
311.448602
20
3.081736
11
312.768676
21
3.183556
0
LINE
8
Layer 1
10
312.768676
20
3.183556
11
314.076657
21
3.489497
0
LINE
8
Layer 1
10
314.076657
20
3.489497
11
315.372856
21
4.000284
0
LINE
8
Layer 1
10
315.372856
20
4.000284
11
316.657583
21
4.716640
0
LINE
8
Layer 1
10
316.657583
20
4.716640
11
317.850017
21
5.583046
0
LINE
8
Layer 1
10
317.850017
20
5.583046
11
318.877188
21
6.553012
0
LINE
8
Layer 1
10
318.877188
20
6.553012
11
319.738789
21
7.625918
0
LINE
8
Layer 1
10
319.738789
20
7.625918
11
320.434509
21
8.801143
0
LINE
8
Layer 1
10
320.434509
20
8.801143
11
326.356763
21
20.849600
0
LINE
8
Layer 1
10
326.356763
20
20.849600
11
327.040407
21
22.119048
0
LINE
8
Layer 1
10
327.040407
20
22.119048
11
327.966310
21
23.266127
0
LINE
8
Layer 1
10
327.966310
20
23.266127
11
330.837038
21
28.967895
0
LINE
8
Layer 1
10
330.837038
20
28.967895
11
335.023123
21
27.175384
0
LINE
8
Layer 1
10
335.023123
20
27.175384
11
339.261940
21
25.598042
0
LINE
8
Layer 1
10
339.261940
20
25.598042
11
343.547978
21
24.232314
0
LINE
8
Layer 1
10
343.547978
20
24.232314
11
347.875731
21
23.074648
0
LINE
8
Layer 1
10
347.875731
20
23.074648
11
352.239690
21
22.121492
0
LINE
8
Layer 1
10
352.239690
20
22.121492
11
356.634346
21
21.369293
0
LINE
8
Layer 1
10
356.634346
20
21.369293
11
361.054191
21
20.814497
0
LINE
8
Layer 1
10
361.054191
20
20.814497
11
365.493717
21
20.453552
0
LINE
8
Layer 1
10
365.493717
20
20.453552
11
369.947415
21
20.282906
0
LINE
8
Layer 1
10
369.947415
20
20.282906
11
374.409776
21
20.299005
0
LINE
8
Layer 1
10
374.409776
20
20.299005
11
378.875294
21
20.498297
0
LINE
8
Layer 1
10
378.875294
20
20.498297
11
383.338458
21
20.877230
0
LINE
8
Layer 1
10
383.338458
20
20.877230
11
387.793761
21
21.432249
0
LINE
8
Layer 1
10
387.793761
20
21.432249
11
392.235695
21
22.159804
0
LINE
8
Layer 1
10
392.235695
20
22.159804
11
396.658750
21
23.056340
0
LINE
8
Layer 1
10
396.658750
20
23.056340
11
401.057419
21
24.118305
0
LINE
8
Layer 1
10
401.057419
20
24.118305
11
410.617692
21
5.858757
0
LINE
8
Layer 1
10
410.617692
20
5.858757
11
412.134636
21
4.716640
0
LINE
8
Layer 1
10
412.134636
20
4.716640
11
413.460756
21
4.000284
0
LINE
8
Layer 1
10
413.460756
20
4.000284
11
414.787909
21
3.489497
0
LINE
8
Layer 1
10
414.787909
20
3.489497
11
416.115476
21
3.183556
0
LINE
8
Layer 1
10
416.115476
20
3.183556
11
417.442837
21
3.081736
0
LINE
8
Layer 1
10
417.442837
20
3.081736
11
436.030909
21
3.081736
0
LINE
8
Layer 1
10
436.030909
20
3.081736
11
437.247888
21
3.183556
0
LINE
8
Layer 1
10
437.247888
20
3.183556
11
438.249274
21
3.489497
0
LINE
8
Layer 1
10
438.249274
20
3.489497
11
439.034445
21
4.000284
0
LINE
8
Layer 1
10
439.034445
20
4.000284
11
439.602782
21
4.716640
0
LINE
8
Layer 1
10
439.602782
20
4.716640
11
439.929153
21
5.569748
0
LINE
8
Layer 1
10
439.929153
20
5.569748
11
439.987117
21
6.500371
0
LINE
8
Layer 1
10
439.987117
20
6.500371
11
439.776570
21
7.508716
0
LINE
8
Layer 1
10
439.776570
20
7.508716
11
439.297409
21
8.594988
0
LINE
8
Layer 1
10
439.297409
20
8.594988
11
426.677893
21
33.795436
0
LINE
8
Layer 1
10
426.677893
20
33.795436
11
432.228903
21
36.724385
0
LINE
8
Layer 1
10
432.228903
20
36.724385
11
437.648449
21
39.902622
0
LINE
8
Layer 1
10
437.648449
20
39.902622
11
442.921234
21
43.323531
0
LINE
8
Layer 1
10
442.921234
20
43.323531
11
448.031962
21
46.980498
0
LINE
8
Layer 1
10
448.031962
20
46.980498
11
451.681443
21
49.838405
0
LINE
8
Layer 1
10
451.681443
20
49.838405
11
455.181677
21
52.814000
0
LINE
8
Layer 1
10
455.181677
20
52.814000
11
458.534852
21
55.901206
0
LINE
8
Layer 1
10
458.534852
20
55.901206
11
461.743159
21
59.093945
0
LINE
8
Layer 1
10
461.743159
20
59.093945
11
464.808788
21
62.386142
0
LINE
8
Layer 1
10
464.808788
20
62.386142
11
467.733927
21
65.771718
0
LINE
8
Layer 1
10
467.733927
20
65.771718
11
470.520768
21
69.244598
0
LINE
8
Layer 1
10
470.520768
20
69.244598
11
473.171500
21
72.798703
0
LINE
8
Layer 1
10
473.171500
20
72.798703
11
478.073395
21
80.126282
0
LINE
8
Layer 1
10
478.073395
20
80.126282
11
482.457130
21
87.705841
0
LINE
8
Layer 1
10
482.457130
20
87.705841
11
486.340224
21
95.488762
0
LINE
8
Layer 1
10
486.340224
20
95.488762
11
489.740196
21
103.426430
0
LINE
8
Layer 1
10
489.740196
20
103.426430
11
492.674563
21
111.470229
0
LINE
8
Layer 1
10
492.674563
20
111.470229
11
495.160844
21
119.571541
0
LINE
8
Layer 1
10
495.160844
20
119.571541
11
497.216557
21
127.681752
0
LINE
8
Layer 1
10
497.216557
20
127.681752
11
498.859221
21
135.752244
0
LINE
8
Layer 1
10
498.859221
20
135.752244
11
500.106354
21
143.734403
0
LINE
8
Layer 1
10
500.106354
20
143.734403
11
500.975473
21
151.579610
0
LINE
8
Layer 1
10
500.975473
20
151.579610
11
501.484098
21
159.239251
0
LINE
8
Layer 1
10
501.484098
20
159.239251
11
501.649747
21
166.664709
0
LINE
8
Layer 1
10
501.649747
20
166.664709
11
501.481735
21
174.437332
0
LINE
8
Layer 1
10
501.481735
20
174.437332
11
500.980002
21
182.267166
0
LINE
8
Layer 1
10
500.980002
20
182.267166
11
500.148004
21
190.139643
0
LINE
8
Layer 1
10
500.148004
20
190.139643
11
498.989194
21
198.040194
0
LINE
8
Layer 1
10
498.989194
20
198.040194
11
497.507028
21
205.954252
0
LINE
8
Layer 1
10
497.507028
20
205.954252
11
495.704960
21
213.867250
0
LINE
8
Layer 1
10
495.704960
20
213.867250
11
493.586447
21
221.764618
0
LINE
8
Layer 1
10
493.586447
20
221.764618
11
491.154941
21
229.631790
0
LINE
8
Layer 1
10
491.154941
20
229.631790
11
488.413898
21
237.454197
0
LINE
8
Layer 1
10
488.413898
20
237.454197
11
485.366774
21
245.217271
0
LINE
8
Layer 1
10
485.366774
20
245.217271
11
482.017022
21
252.906445
0
LINE
8
Layer 1
10
482.017022
20
252.906445
11
478.368099
21
260.507151
0
LINE
8
Layer 1
10
478.368099
20
260.507151
11
474.423457
21
268.004820
0
LINE
8
Layer 1
10
474.423457
20
268.004820
11
470.186554
21
275.384885
0
LINE
8
Layer 1
10
470.186554
20
275.384885
11
465.660842
21
282.632778
0
LINE
8
Layer 1
10
465.660842
20
282.632778
11
460.849778
21
289.733931
0
LINE
8
Layer 1
10
460.849778
20
289.733931
11
455.756815
21
296.673776
0
LINE
8
Layer 1
10
455.756815
20
296.673776
11
450.385409
21
303.437745
0
LINE
8
Layer 1
10
450.385409
20
303.437745
11
444.739015
21
310.011271
0
LINE
8
Layer 1
10
444.739015
20
310.011271
11
438.821088
21
316.379784
0
LINE
8
Layer 1
10
438.821088
20
316.379784
11
432.635082
21
322.528719
0
LINE
8
Layer 1
10
432.635082
20
322.528719
11
426.184452
21
328.443506
0
LINE
8
Layer 1
10
426.184452
20
328.443506
11
419.472653
21
334.109578
0
LINE
8
Layer 1
10
419.472653
20
334.109578
11
412.503141
21
339.512366
0
LINE
8
Layer 1
10
412.503141
20
339.512366
11
405.279368
21
344.637303
0
LINE
8
Layer 1
10
405.279368
20
344.637303
11
397.804792
21
349.469822
0
LINE
8
Layer 1
10
397.804792
20
349.469822
11
390.082866
21
353.995353
0
LINE
8
Layer 1
10
390.082866
20
353.995353
11
382.117045
21
358.199330
0
LINE
8
Layer 1
10
382.117045
20
358.199330
11
373.910785
21
362.067184
0
LINE
8
Layer 1
10
373.910785
20
362.067184
11
365.467540
21
365.584347
0
LINE
8
Layer 1
10
365.467540
20
365.584347
11
356.790764
21
368.736251
0
LINE
8
Layer 1
10
356.790764
20
368.736251
11
347.883913
21
371.508330
0
LINE
8
Layer 1
10
347.883913
20
371.508330
11
347.883913
21
371.508330
0
LINE
8
Layer 1
10
131.224448
20
266.878903
11
131.702364
21
270.729888
0
LINE
8
Layer 1
10
131.702364
20
270.729888
11
131.818419
21
274.529289
0
LINE
8
Layer 1
10
131.818419
20
274.529289
11
131.586642
21
278.255369
0
LINE
8
Layer 1
10
131.586642
20
278.255369
11
131.021067
21
281.886386
0
LINE
8
Layer 1
10
131.021067
20
281.886386
11
130.135724
21
285.400602
0
LINE
8
Layer 1
10
130.135724
20
285.400602
11
128.944646
21
288.776277
0
LINE
8
Layer 1
10
128.944646
20
288.776277
11
127.461865
21
291.991670
0
LINE
8
Layer 1
10
127.461865
20
291.991670
11
125.701411
21
295.025044
0
LINE
8
Layer 1
10
125.701411
20
295.025044
11
123.677318
21
297.854657
0
LINE
8
Layer 1
10
123.677318
20
297.854657
11
121.403616
21
300.458770
0
LINE
8
Layer 1
10
121.403616
20
300.458770
11
118.894337
21
302.815645
0
LINE
8
Layer 1
10
118.894337
20
302.815645
11
116.163514
21
304.903540
0
LINE
8
Layer 1
10
116.163514
20
304.903540
11
113.225178
21
306.700717
0
LINE
8
Layer 1
10
113.225178
20
306.700717
11
110.093360
21
308.185435
0
LINE
8
Layer 1
10
110.093360
20
308.185435
11
106.782093
21
309.335956
0
LINE
8
Layer 1
10
106.782093
20
309.335956
11
103.305408
21
310.130539
0
LINE
8
Layer 1
10
103.305408
20
310.130539
11
99.762760
21
310.539289
0
LINE
8
Layer 1
10
99.762760
20
310.539289
11
96.257485
21
310.557348
0
LINE
8
Layer 1
10
96.257485
20
310.557348
11
92.810058
21
310.200540
0
LINE
8
Layer 1
10
92.810058
20
310.200540
11
89.440955
21
309.484688
0
LINE
8
Layer 1
10
89.440955
20
309.484688
11
86.170652
21
308.425614
0
LINE
8
Layer 1
10
86.170652
20
308.425614
11
83.019622
21
307.039141
0
LINE
8
Layer 1
10
83.019622
20
307.039141
11
80.008341
21
305.341091
0
LINE
8
Layer 1
10
80.008341
20
305.341091
11
77.157284
21
303.347288
0
LINE
8
Layer 1
10
77.157284
20
303.347288
11
74.486927
21
301.073553
0
LINE
8
Layer 1
10
74.486927
20
301.073553
11
72.017745
21
298.535710
0
LINE
8
Layer 1
10
72.017745
20
298.535710
11
69.770212
21
295.749582
0
LINE
8
Layer 1
10
69.770212
20
295.749582
11
67.764805
21
292.730990
0
LINE
8
Layer 1
10
67.764805
20
292.730990
11
66.021997
21
289.495758
0
LINE
8
Layer 1
10
66.021997
20
289.495758
11
64.562265
21
286.059708
0
LINE
8
Layer 1
10
64.562265
20
286.059708
11
63.406083
21
282.438663
0
LINE
8
Layer 1
10
63.406083
20
282.438663
11
62.573927
21
278.648446
0
LINE
8
Layer 1
10
62.573927
20
278.648446
11
62.096192
21
274.797461
0
LINE
8
Layer 1
10
62.096192
20
274.797461
11
61.980273
21
270.998060
0
LINE
8
Layer 1
10
61.980273
20
270.998060
11
62.212142
21
267.271980
0
LINE
8
Layer 1
10
62.212142
20
267.271980
11
62.777773
21
263.640963
0
LINE
8
Layer 1
10
62.777773
20
263.640963
11
63.663139
21
260.126747
0
LINE
8
Layer 1
10
63.663139
20
260.126747
11
64.854213
21
256.751073
0
LINE
8
Layer 1
10
64.854213
20
256.751073
11
66.336968
21
253.535679
0
LINE
8
Layer 1
10
66.336968
20
253.535679
11
68.097377
21
250.502306
0
LINE
8
Layer 1
10
68.097377
20
250.502306
11
70.121413
21
247.672692
0
LINE
8
Layer 1
10
70.121413
20
247.672692
11
72.395049
21
245.068579
0
LINE
8
Layer 1
10
72.395049
20
245.068579
11
74.904259
21
242.711705
0
LINE
8
Layer 1
10
74.904259
20
242.711705
11
77.635015
21
240.623809
0
LINE
8
Layer 1
10
77.635015
20
240.623809
11
80.573291
21
238.826633
0
LINE
8
Layer 1
10
80.573291
20
238.826633
11
83.705060
21
237.341914
0
LINE
8
Layer 1
10
83.705060
20
237.341914
11
87.016294
21
236.191393
0
LINE
8
Layer 1
10
87.016294
20
236.191393
11
90.492967
21
235.396810
0
LINE
8
Layer 1
10
90.492967
20
235.396810
11
94.035433
21
234.987879
0
LINE
8
Layer 1
10
94.035433
20
234.987879
11
97.540573
21
234.969685
0
LINE
8
Layer 1
10
97.540573
20
234.969685
11
100.987907
21
235.326400
0
LINE
8
Layer 1
10
100.987907
20
235.326400
11
104.356954
21
236.042196
0
LINE
8
Layer 1
10
104.356954
20
236.042196
11
107.627235
21
237.101247
0
LINE
8
Layer 1
10
107.627235
20
237.101247
11
110.778269
21
238.487724
0
LINE
8
Layer 1
10
110.778269
20
238.487724
11
113.789576
21
240.185800
0
LINE
8
Layer 1
10
113.789576
20
240.185800
11
116.640677
21
242.179648
0
LINE
8
Layer 1
10
116.640677
20
242.179648
11
119.311091
21
244.453440
0
LINE
8
Layer 1
10
119.311091
20
244.453440
11
121.780339
21
246.991348
0
LINE
8
Layer 1
10
121.780339
20
246.991348
11
124.027940
21
249.777545
0
LINE
8
Layer 1
10
124.027940
20
249.777545
11
126.033415
21
252.796204
0
LINE
8
Layer 1
10
126.033415
20
252.796204
11
127.776283
21
256.031497
0
LINE
8
Layer 1
10
127.776283
20
256.031497
11
129.236065
21
259.467596
0
LINE
8
Layer 1
10
129.236065
20
259.467596
11
130.392279
21
263.088674
0
LINE
8
Layer 1
10
130.392279
20
263.088674
11
131.224448
21
266.878903
0
LINE
8
Layer 1
10
131.224448
20
266.878903
11
131.224448
21
266.878903
0
LINE
8
Layer 1
10
127.304207
20
266.660622
11
127.055925
21
263.605646
0
LINE
8
Layer 1
10
127.055925
20
263.605646
11
126.343835
21
260.760245
0
LINE
8
Layer 1
10
126.343835
20
260.760245
11
125.217068
21
258.185369
0
LINE
8
Layer 1
10
125.217068
20
258.185369
11
123.724754
21
255.941971
0
LINE
8
Layer 1
10
123.724754
20
255.941971
11
121.916026
21
254.091004
0
LINE
8
Layer 1
10
121.916026
20
254.091004
11
119.840015
21
252.693420
0
LINE
8
Layer 1
10
119.840015
20
252.693420
11
117.545852
21
251.810171
0
LINE
8
Layer 1
10
117.545852
20
251.810171
11
116.332317
21
251.580470
0
LINE
8
Layer 1
10
116.332317
20
251.580470
11
115.082668
21
251.502210
0
LINE
8
Layer 1
10
115.082668
20
251.502210
11
113.833007
21
251.580470
0
LINE
8
Layer 1
10
113.833007
20
251.580470
11
112.619436
21
251.810171
0
LINE
8
Layer 1
10
112.619436
20
251.810171
11
110.325148
21
252.693420
0
LINE
8
Layer 1
10
110.325148
20
252.693420
11
108.248960
21
254.091004
0
LINE
8
Layer 1
10
108.248960
20
254.091004
11
106.440030
21
255.941971
0
LINE
8
Layer 1
10
106.440030
20
255.941971
11
104.947514
21
258.185369
0
LINE
8
Layer 1
10
104.947514
20
258.185369
11
103.820570
21
260.760245
0
LINE
8
Layer 1
10
103.820570
20
260.760245
11
103.108355
21
263.605646
0
LINE
8
Layer 1
10
103.108355
20
263.605646
11
102.860026
21
266.660622
0
LINE
8
Layer 1
10
102.860026
20
266.660622
11
103.108355
21
269.715281
0
LINE
8
Layer 1
10
103.108355
20
269.715281
11
103.820570
21
272.560535
0
LINE
8
Layer 1
10
103.820570
20
272.560535
11
104.947514
21
275.135391
0
LINE
8
Layer 1
10
104.947514
20
275.135391
11
106.440030
21
277.378860
0
LINE
8
Layer 1
10
106.440030
20
277.378860
11
108.248960
21
279.229950
0
LINE
8
Layer 1
10
108.248960
20
279.229950
11
110.325148
21
280.627670
0
LINE
8
Layer 1
10
110.325148
20
280.627670
11
112.619436
21
281.511028
0
LINE
8
Layer 1
10
112.619436
20
281.511028
11
113.833007
21
281.740762
0
LINE
8
Layer 1
10
113.833007
20
281.740762
11
115.082668
21
281.819035
0
LINE
8
Layer 1
10
115.082668
20
281.819035
11
116.332317
21
281.740762
0
LINE
8
Layer 1
10
116.332317
20
281.740762
11
117.545852
21
281.511028
0
LINE
8
Layer 1
10
117.545852
20
281.511028
11
119.840015
21
280.627670
0
LINE
8
Layer 1
10
119.840015
20
280.627670
11
121.916026
21
279.229950
0
LINE
8
Layer 1
10
121.916026
20
279.229950
11
123.724754
21
277.378860
0
LINE
8
Layer 1
10
123.724754
20
277.378860
11
125.217068
21
275.135391
0
LINE
8
Layer 1
10
125.217068
20
275.135391
11
126.343835
21
272.560535
0
LINE
8
Layer 1
10
126.343835
20
272.560535
11
127.055925
21
269.715281
0
LINE
8
Layer 1
10
127.055925
20
269.715281
11
127.304207
21
266.660622
0
LINE
8
Layer 1
10
127.304207
20
266.660622
11
127.304207
21
266.660622
 0 
ENDSEC
 0 
EOF