999
"DXF R12 Output" (www.mydxf.blogspot.com)
 0 
SECTION
 2 
HEADER
 9 
$ACADVER
 1 
AC1009
 9 
$EXTMIN
 10 
 0 
 20 
 0 
 9 
$EXTMAX
 10 
 8.5 
 20 
 11 
 0 
ENDSEC
 0 
SECTION
 2 
ENTITIES
0
LINE
8
Layer 1
10
0.505820
20
1.021291
11
0.701433
21
1.310022
0
LINE
8
Layer 1
10
0.701433
20
1.310022
11
0.789925
21
1.370584
0
LINE
8
Layer 1
10
0.789925
20
1.370584
11
0.897020
21
1.347329
0
LINE
8
Layer 1
10
0.897020
20
1.347329
11
1.306874
21
1.123736
0
LINE
8
Layer 1
10
1.306874
20
1.123736
11
1.879735
21
0.993361
0
LINE
8
Layer 1
10
1.879735
20
0.993361
11
2.159164
21
1.035244
0
LINE
8
Layer 1
10
2.159164
20
1.035244
11
2.364053
21
1.137714
0
LINE
8
Layer 1
10
2.364053
20
1.137714
11
2.489828
21
1.282092
0
LINE
8
Layer 1
10
2.489828
20
1.282092
11
2.531736
21
1.440472
0
LINE
8
Layer 1
10
2.531736
20
1.440472
11
2.466498
21
1.617406
0
LINE
8
Layer 1
10
2.466498
20
1.617406
11
2.298891
21
1.733854
0
LINE
8
Layer 1
10
2.298891
20
1.733854
11
2.187094
21
1.775737
0
LINE
8
Layer 1
10
2.187094
20
1.775737
11
2.052018
21
1.813044
0
LINE
8
Layer 1
10
2.052018
20
1.813044
11
1.909978
21
1.845625
0
LINE
8
Layer 1
10
1.909978
20
1.845625
11
1.758612
21
1.873581
0
LINE
8
Layer 1
10
1.758612
20
1.873581
11
1.646865
21
1.894522
0
LINE
8
Layer 1
10
1.646865
20
1.894522
11
1.521116
21
1.920165
0
LINE
8
Layer 1
10
1.521116
20
1.920165
11
1.241662
21
1.990028
0
LINE
8
Layer 1
10
1.241662
20
1.990028
11
0.957582
21
2.106451
0
LINE
8
Layer 1
10
0.957582
20
2.106451
11
0.706084
21
2.288086
0
LINE
8
Layer 1
10
0.706084
20
2.288086
11
0.524423
21
2.548886
0
LINE
8
Layer 1
10
0.524423
20
2.548886
11
0.459261
21
2.902829
0
LINE
8
Layer 1
10
0.459261
20
2.902829
11
0.580309
21
3.401176
0
LINE
8
Layer 1
10
0.580309
20
3.401176
11
0.887719
21
3.713161
0
LINE
8
Layer 1
10
0.887719
20
3.713161
11
1.306874
21
3.871541
0
LINE
8
Layer 1
10
1.306874
20
3.871541
11
1.753961
21
3.918125
0
LINE
8
Layer 1
10
1.753961
20
3.918125
11
2.135859
21
3.890145
0
LINE
8
Layer 1
10
2.135859
20
3.890145
11
2.296553
21
3.855251
0
LINE
8
Layer 1
10
2.296553
20
3.855251
11
2.447895
21
3.811005
0
LINE
8
Layer 1
10
2.447895
20
3.811005
11
2.592272
21
3.748155
0
LINE
8
Layer 1
10
2.592272
20
3.748155
11
2.727323
21
3.675954
0
LINE
8
Layer 1
10
2.727323
20
3.675954
11
2.815841
21
3.620018
0
LINE
8
Layer 1
10
2.815841
20
3.620018
11
2.908984
21
3.564182
0
LINE
8
Layer 1
10
2.908984
20
3.564182
11
2.969495
21
3.471039
0
LINE
8
Layer 1
10
2.969495
20
3.471039
11
2.941590
21
3.363893
0
LINE
8
Layer 1
10
2.941590
20
3.363893
11
2.746002
21
3.084464
0
LINE
8
Layer 1
10
2.746002
20
3.084464
11
2.650471
21
3.023928
0
LINE
8
Layer 1
10
2.650471
20
3.023928
11
2.541038
21
3.047207
0
LINE
8
Layer 1
10
2.541038
20
3.047207
11
2.196421
21
3.224191
0
LINE
8
Layer 1
10
2.196421
20
3.224191
11
1.726005
21
3.312684
0
LINE
8
Layer 1
10
1.726005
20
3.312684
11
1.635200
21
3.308033
0
LINE
8
Layer 1
10
1.635200
20
3.308033
11
1.535068
21
3.294055
0
LINE
8
Layer 1
10
1.535068
20
3.294055
11
1.330154
21
3.224191
0
LINE
8
Layer 1
10
1.330154
20
3.224191
11
1.244000
21
3.172957
0
LINE
8
Layer 1
10
1.244000
20
3.172957
11
1.171798
21
3.107769
0
LINE
8
Layer 1
10
1.171798
20
3.107769
11
1.111262
21
2.930785
0
LINE
8
Layer 1
10
1.111262
20
2.930785
11
1.185801
21
2.758452
0
LINE
8
Layer 1
10
1.185801
20
2.758452
11
1.376738
21
2.642004
0
LINE
8
Layer 1
10
1.376738
20
2.642004
11
1.500124
21
2.600071
0
LINE
8
Layer 1
10
1.500124
20
2.600071
11
1.632862
21
2.562864
0
LINE
8
Layer 1
10
1.632862
20
2.562864
11
1.770251
21
2.530258
0
LINE
8
Layer 1
10
1.770251
20
2.530258
11
1.902989
21
2.497626
0
LINE
8
Layer 1
10
1.902989
20
2.497626
11
2.010135
21
2.474372
0
LINE
8
Layer 1
10
2.010135
20
2.474372
11
2.131209
21
2.451092
0
LINE
8
Layer 1
10
2.131209
20
2.451092
11
2.266260
21
2.425425
0
LINE
8
Layer 1
10
2.266260
20
2.425425
11
2.405987
21
2.385880
0
LINE
8
Layer 1
10
2.405987
20
2.385880
11
2.482839
21
2.362625
0
LINE
8
Layer 1
10
2.482839
20
2.362625
11
2.559666
21
2.334645
0
LINE
8
Layer 1
10
2.559666
20
2.334645
11
2.687753
21
2.274133
0
LINE
8
Layer 1
10
2.687753
20
2.274133
11
2.811165
21
2.199594
0
LINE
8
Layer 1
10
2.811165
20
2.199594
11
2.878690
21
2.150672
0
LINE
8
Layer 1
10
2.878690
20
2.150672
11
2.936939
21
2.097149
0
LINE
8
Layer 1
10
2.936939
20
2.097149
11
3.113923
21
1.826997
0
LINE
8
Layer 1
10
3.113923
20
1.826997
11
3.183762
21
1.435771
0
LINE
8
Layer 1
10
3.183762
20
1.435771
11
3.090619
21
0.974707
0
LINE
8
Layer 1
10
3.090619
20
0.974707
11
2.825142
21
0.653345
0
LINE
8
Layer 1
10
2.825142
20
0.653345
11
2.415288
21
0.457758
0
LINE
8
Layer 1
10
2.415288
20
0.457758
11
1.889037
21
0.392520
0
LINE
8
Layer 1
10
1.889037
20
0.392520
11
1.418646
21
0.434478
0
LINE
8
Layer 1
10
1.418646
20
0.434478
11
1.050725
21
0.541599
0
LINE
8
Layer 1
10
1.050725
20
0.541599
11
0.887719
21
0.613800
0
LINE
8
Layer 1
10
0.887719
20
0.613800
11
0.734039
21
0.699954
0
LINE
8
Layer 1
10
0.734039
20
0.699954
11
0.640896
21
0.758128
0
LINE
8
Layer 1
10
0.640896
20
0.758128
11
0.543077
21
0.825679
0
LINE
8
Layer 1
10
0.543077
20
0.825679
11
0.482515
21
0.914171
0
LINE
8
Layer 1
10
0.482515
20
0.914171
11
0.505820
21
1.021291
0
LINE
8
Layer 1
10
0.505820
20
1.021291
11
0.505820
21
1.021291
0
LINE
8
Layer 1
10
5.805793
20
0.564853
11
4.566928
21
1.906187
0
LINE
8
Layer 1
10
4.566928
20
1.906187
11
4.501741
21
1.936430
0
LINE
8
Layer 1
10
4.501741
20
1.936430
11
4.473785
21
1.864229
0
LINE
8
Layer 1
10
4.473785
20
1.864229
11
4.473785
21
0.602135
0
LINE
8
Layer 1
10
4.473785
20
0.602135
11
4.431877
21
0.499691
0
LINE
8
Layer 1
10
4.431877
20
0.499691
11
4.329408
21
0.457758
0
LINE
8
Layer 1
10
4.329408
20
0.457758
11
3.961487
21
0.457758
0
LINE
8
Layer 1
10
3.961487
20
0.457758
11
3.861380
21
0.499691
0
LINE
8
Layer 1
10
3.861380
20
0.499691
11
3.821785
21
0.602135
0
LINE
8
Layer 1
10
3.821785
20
0.602135
11
3.821785
21
3.722513
0
LINE
8
Layer 1
10
3.821785
20
3.722513
11
3.861380
21
3.824982
0
LINE
8
Layer 1
10
3.861380
20
3.824982
11
3.961487
21
3.866890
0
LINE
8
Layer 1
10
3.961487
20
3.866890
11
4.329408
21
3.866890
0
LINE
8
Layer 1
10
4.329408
20
3.866890
11
4.431877
21
3.824982
0
LINE
8
Layer 1
10
4.431877
20
3.824982
11
4.473785
21
3.722513
0
LINE
8
Layer 1
10
4.473785
20
3.722513
11
4.473785
21
2.278784
0
LINE
8
Layer 1
10
4.473785
20
2.278784
11
4.499428
21
2.208895
0
LINE
8
Layer 1
10
4.499428
20
2.208895
11
4.562277
21
2.246153
0
LINE
8
Layer 1
10
4.562277
20
2.246153
11
5.740605
21
3.750468
0
LINE
8
Layer 1
10
5.740605
20
3.750468
11
5.843050
21
3.829633
0
LINE
8
Layer 1
10
5.843050
20
3.829633
11
5.968799
21
3.862240
0
LINE
8
Layer 1
10
5.968799
20
3.862240
11
6.485749
21
3.862240
0
LINE
8
Layer 1
10
6.485749
20
3.862240
11
6.562626
21
3.829633
0
LINE
8
Layer 1
10
6.562626
20
3.829633
11
6.541634
21
3.750468
0
LINE
8
Layer 1
10
6.541634
20
3.750468
11
5.316773
21
2.213546
0
LINE
8
Layer 1
10
5.316773
20
2.213546
11
5.281854
21
2.104113
0
LINE
8
Layer 1
10
5.281854
20
2.104113
11
5.326100
21
1.999330
0
LINE
8
Layer 1
10
5.326100
20
1.999330
11
6.667384
21
0.560202
0
LINE
8
Layer 1
10
6.667384
20
0.560202
11
6.692976
21
0.488001
0
LINE
8
Layer 1
10
6.692976
20
0.488001
11
6.620800
21
0.457758
0
LINE
8
Layer 1
10
6.620800
20
0.457758
11
6.043288
21
0.457758
0
LINE
8
Layer 1
10
6.043288
20
0.457758
11
5.912913
21
0.488001
0
LINE
8
Layer 1
10
5.912913
20
0.488001
11
5.805793
21
0.564853
0
LINE
8
Layer 1
10
5.805793
20
0.564853
11
5.805793
21
0.564853
0
LINE
8
Layer 1
10
15.778852
20
1.561520
11
16.468135
21
1.561520
0
LINE
8
Layer 1
10
16.468135
20
1.561520
11
16.549588
21
1.601141
0
LINE
8
Layer 1
10
16.549588
20
1.601141
11
16.547300
21
1.691946
0
LINE
8
Layer 1
10
16.547300
20
1.691946
11
16.184005
21
2.460419
0
LINE
8
Layer 1
10
16.184005
20
2.460419
11
16.123468
21
2.516255
0
LINE
8
Layer 1
10
16.123468
20
2.516255
11
16.062932
21
2.460419
0
LINE
8
Layer 1
10
16.062932
20
2.460419
11
15.695011
21
1.691946
0
LINE
8
Layer 1
10
15.695011
20
1.691946
11
15.695011
21
1.598803
0
LINE
8
Layer 1
10
15.695011
20
1.598803
11
15.778852
21
1.561521
0
LINE
8
Layer 1
10
15.778852
20
1.561521
11
15.778852
21
1.561520
0
LINE
8
Layer 1
10
14.374543
20
0.583482
11
15.990604
21
3.811005
0
LINE
8
Layer 1
10
15.990604
20
3.811005
11
16.083747
21
3.866890
0
LINE
8
Layer 1
10
16.083747
20
3.866890
11
16.176890
21
3.811005
0
LINE
8
Layer 1
10
16.176890
20
3.811005
11
17.792977
21
0.583482
0
LINE
8
Layer 1
10
17.792977
20
0.583482
11
17.799966
21
0.495015
0
LINE
8
Layer 1
10
17.799966
20
0.495015
11
17.718463
21
0.457758
0
LINE
8
Layer 1
10
17.718463
20
0.457758
11
17.294631
21
0.457758
0
LINE
8
Layer 1
10
17.294631
20
0.457758
11
17.173583
21
0.495015
0
LINE
8
Layer 1
10
17.173583
20
0.495015
11
17.089741
21
0.588158
0
LINE
8
Layer 1
10
17.089741
20
0.588158
11
16.950014
21
0.867587
0
LINE
8
Layer 1
10
16.950014
20
0.867587
11
16.863860
21
0.956079
0
LINE
8
Layer 1
10
16.863860
20
0.956079
11
16.745125
21
0.993361
0
LINE
8
Layer 1
10
16.745125
20
0.993361
11
15.422420
21
0.993361
0
LINE
8
Layer 1
10
15.422420
20
0.993361
11
15.301346
21
0.956079
0
LINE
8
Layer 1
10
15.301346
20
0.956079
11
15.217505
21
0.862936
0
LINE
8
Layer 1
10
15.217505
20
0.862936
11
15.082429
21
0.588158
0
LINE
8
Layer 1
10
15.082429
20
0.588158
11
14.996300
21
0.495015
0
LINE
8
Layer 1
10
14.996300
20
0.495015
11
14.877540
21
0.457758
0
LINE
8
Layer 1
10
14.877540
20
0.457758
11
14.453733
21
0.457758
0
LINE
8
Layer 1
10
14.453733
20
0.457758
11
14.372205
21
0.495015
0
LINE
8
Layer 1
10
14.372205
20
0.495015
11
14.374543
21
0.583482
0
LINE
8
Layer 1
10
14.374543
20
0.583482
11
14.374543
21
0.583482
0
LINE
8
Layer 1
10
14.710360
20
3.822644
11
14.621893
21
3.862240
0
LINE
8
Layer 1
10
14.621893
20
3.862240
11
14.216690
21
3.862240
0
LINE
8
Layer 1
10
14.216690
20
3.862240
11
14.100292
21
3.822644
0
LINE
8
Layer 1
10
14.100292
20
3.822644
11
14.025753
21
3.727163
0
LINE
8
Layer 1
10
14.025753
20
3.727163
11
13.438915
21
2.125054
0
LINE
8
Layer 1
10
13.438915
20
2.125054
11
13.387705
21
2.069168
0
LINE
8
Layer 1
10
13.387705
20
2.069168
11
13.331819
21
2.120403
0
LINE
8
Layer 1
10
13.331819
20
2.120403
11
12.591301
21
3.806304
0
LINE
8
Layer 1
10
12.591301
20
3.806304
11
12.505147
21
3.857564
0
LINE
8
Layer 1
10
12.505147
20
3.857564
11
12.418993
21
3.806304
0
LINE
8
Layer 1
10
12.418993
20
3.806304
11
12.255081
21
3.434184
0
LINE
8
Layer 1
10
12.255081
20
3.434184
11
11.737893
21
2.224243
0
LINE
8
Layer 1
10
11.737893
20
2.224243
11
11.145511
21
1.460333
0
LINE
8
Layer 1
10
11.145511
20
1.460333
11
11.468935
21
0.522970
0
LINE
8
Layer 1
10
11.468935
20
0.522970
11
11.550388
21
0.467059
0
LINE
8
Layer 1
10
11.550388
20
0.467059
11
11.636567
21
0.518319
0
LINE
8
Layer 1
10
11.636567
20
0.518319
11
12.446948
21
2.311340
0
LINE
8
Layer 1
10
12.446948
20
2.311340
11
12.507460
21
2.367276
0
LINE
8
Layer 1
10
12.507460
20
2.367276
11
12.567997
21
2.311340
0
LINE
8
Layer 1
10
12.567997
20
2.311340
11
13.373727
21
0.504342
0
LINE
8
Layer 1
10
13.373727
20
0.504342
11
13.457568
21
0.453107
0
LINE
8
Layer 1
10
13.457568
20
0.453107
11
13.541384
21
0.508992
0
LINE
8
Layer 1
10
13.541384
20
0.508992
11
14.715036
21
3.727163
0
LINE
8
Layer 1
10
14.715036
20
3.727163
11
14.710360
21
3.822644
0
LINE
8
Layer 1
10
14.710360
20
3.822644
11
14.710360
21
3.822644
0
LINE
8
Layer 1
10
8.447407
20
1.534194
11
8.275602
21
1.588018
0
LINE
8
Layer 1
10
8.275602
20
1.588018
11
8.558651
21
2.150068
0
LINE
8
Layer 1
10
8.558651
20
2.150068
11
8.707227
21
2.460419
0
LINE
8
Layer 1
10
8.707227
20
2.460419
11
8.767764
21
2.516255
0
LINE
8
Layer 1
10
8.767764
20
2.516255
11
8.828300
21
2.460419
0
LINE
8
Layer 1
10
8.828300
20
2.460419
11
9.020620
21
2.053557
0
LINE
8
Layer 1
10
9.020620
20
2.053557
11
9.282149
21
1.554054
0
LINE
8
Layer 1
10
9.282149
20
1.554054
11
8.447407
21
1.534194
0
LINE
8
Layer 1
10
8.447407
20
1.534194
11
8.447407
21
1.534194
0
LINE
8
Layer 1
10
8.392401
20
8.859353
11
7.354354
21
9.096685
0
LINE
8
Layer 1
10
7.354354
20
9.096685
11
5.923824
21
9.110852
0
LINE
8
Layer 1
10
5.923824
20
9.110852
11
5.001559
21
8.915147
0
LINE
8
Layer 1
10
5.001559
20
8.915147
11
4.531984
21
8.658407
0
LINE
8
Layer 1
10
4.531984
20
8.658407
11
4.339690
21
8.339663
0
LINE
8
Layer 1
10
4.339690
20
8.339663
11
4.264949
21
9.012857
0
LINE
8
Layer 1
10
4.264949
20
9.012857
11
3.662348
21
8.928057
0
LINE
8
Layer 1
10
3.662348
20
8.928057
11
3.094892
21
8.704995
0
LINE
8
Layer 1
10
3.094892
20
8.704995
11
2.161427
21
8.028784
0
LINE
8
Layer 1
10
2.161427
20
8.028784
11
1.501959
21
7.043559
0
LINE
8
Layer 1
10
1.501959
20
7.043559
11
1.136175
21
5.995226
0
LINE
8
Layer 1
10
1.136175
20
5.995226
11
1.032266
21
5.300711
0
LINE
8
Layer 1
10
1.032266
20
5.300711
11
1.120488
21
4.668925
0
LINE
8
Layer 1
10
1.120488
20
4.668925
11
1.467530
21
4.436216
0
LINE
8
Layer 1
10
1.467530
20
4.436216
11
1.822869
21
4.392639
0
LINE
8
Layer 1
10
1.822869
20
4.392639
11
4.006612
21
4.573042
0
LINE
8
Layer 1
10
4.006612
20
4.573042
11
5.105319
21
4.746469
0
LINE
8
Layer 1
10
5.105319
20
4.746469
11
6.883460
21
4.888522
0
LINE
8
Layer 1
10
6.883460
20
4.888522
11
8.070439
21
4.795853
0
LINE
8
Layer 1
10
8.070439
20
4.795853
11
9.152302
21
4.484751
0
LINE
8
Layer 1
10
9.152302
20
4.484751
11
9.880935
21
3.943111
0
LINE
8
Layer 1
10
9.880935
20
3.943111
11
10.142938
21
3.492365
0
LINE
8
Layer 1
10
10.142938
20
3.492365
11
10.245481
21
2.876609
0
LINE
8
Layer 1
10
10.245481
20
2.876609
11
10.134982
21
2.300854
0
LINE
8
Layer 1
10
10.134982
20
2.300854
11
9.846965
21
1.841678
0
LINE
8
Layer 1
10
9.846965
20
1.841678
11
8.860907
21
3.811005
0
LINE
8
Layer 1
10
8.860907
20
3.811005
11
8.767764
21
3.866890
0
LINE
8
Layer 1
10
8.767764
20
3.866890
11
8.674621
21
3.811005
0
LINE
8
Layer 1
10
8.674621
20
3.811005
11
7.719032
21
1.902542
0
LINE
8
Layer 1
10
7.719032
20
1.902542
11
7.384044
21
2.212616
0
LINE
8
Layer 1
10
7.384044
20
2.212616
11
7.053949
21
2.673001
0
LINE
8
Layer 1
10
7.053949
20
2.673001
11
6.887684
21
3.155711
0
LINE
8
Layer 1
10
6.887684
20
3.155711
11
6.773841
21
2.845109
0
LINE
8
Layer 1
10
6.773841
20
2.845109
11
6.821038
21
2.396570
0
LINE
8
Layer 1
10
6.821038
20
2.396570
11
7.046093
21
1.887894
0
LINE
8
Layer 1
10
7.046093
20
1.887894
11
7.465824
21
1.396880
0
LINE
8
Layer 1
10
7.465824
20
1.396880
11
7.058559
21
0.583482
0
LINE
8
Layer 1
10
7.058559
20
0.583482
11
7.056221
21
0.495040
0
LINE
8
Layer 1
10
7.056221
20
0.495040
11
7.137724
21
0.457758
0
LINE
8
Layer 1
10
7.137724
20
0.457758
11
7.561531
21
0.457758
0
LINE
8
Layer 1
10
7.561531
20
0.457758
11
7.680317
21
0.495040
0
LINE
8
Layer 1
10
7.680317
20
0.495040
11
7.766446
21
0.588183
0
LINE
8
Layer 1
10
7.766446
20
0.588183
11
7.901497
21
0.862936
0
LINE
8
Layer 1
10
7.901497
20
0.862936
11
7.938201
21
0.918042
0
LINE
8
Layer 1
10
7.938201
20
0.918042
11
8.003665
21
1.048065
0
LINE
8
Layer 1
10
8.003665
20
1.048065
11
8.793975
21
0.853904
0
LINE
8
Layer 1
10
8.793975
20
0.853904
11
9.604969
21
0.937475
0
LINE
8
Layer 1
10
9.604969
20
0.937475
11
9.822982
21
0.521085
0
LINE
8
Layer 1
10
9.822982
20
0.521085
11
9.857574
21
0.495040
0
LINE
8
Layer 1
10
9.857574
20
0.495040
11
9.978622
21
0.457758
0
LINE
8
Layer 1
10
9.978622
20
0.457758
11
10.402504
21
0.457758
0
LINE
8
Layer 1
10
10.402504
20
0.457758
11
10.483957
21
0.495040
0
LINE
8
Layer 1
10
10.483957
20
0.495040
11
10.476994
21
0.583482
0
LINE
8
Layer 1
10
10.476994
20
0.583482
11
10.189218
21
1.158152
0
LINE
8
Layer 1
10
10.189218
20
1.158152
11
10.676176
21
1.458824
0
LINE
8
Layer 1
10
10.676176
20
1.458824
11
11.249458
21
2.047582
0
LINE
8
Layer 1
10
11.249458
20
2.047582
11
11.627290
21
2.746017
0
LINE
8
Layer 1
10
11.627290
20
2.746017
11
11.898876
21
4.188102
0
LINE
8
Layer 1
10
11.898876
20
4.188102
11
11.659552
21
5.624002
0
LINE
8
Layer 1
10
11.659552
20
5.624002
11
10.968474
21
6.994571
0
LINE
8
Layer 1
10
10.968474
20
6.994571
11
9.865977
21
8.129717
0
LINE
8
Layer 1
10
9.865977
20
8.129717
11
9.173053
21
8.555855
0
LINE
8
Layer 1
10
9.173053
20
8.555855
11
8.392401
21
8.859353
0
LINE
8
Layer 1
10
8.392401
20
8.859353
11
8.392401
21
8.859353
0
LINE
8
Layer 1
10
3.451702
20
6.473385
11
3.325754
21
7.115229
0
LINE
8
Layer 1
10
3.325754
20
7.115229
11
2.815036
21
7.459695
0
LINE
8
Layer 1
10
2.815036
20
7.459695
11
2.218755
21
7.305009
0
LINE
8
Layer 1
10
2.218755
20
7.305009
11
1.886196
21
6.741777
0
LINE
8
Layer 1
10
1.886196
20
6.741777
11
2.012153
21
6.099933
0
LINE
8
Layer 1
10
2.012153
20
6.099933
11
2.522861
21
5.755468
0
LINE
8
Layer 1
10
2.522861
20
5.755468
11
3.119134
21
5.910143
0
LINE
8
Layer 1
10
3.119134
20
5.910143
11
3.451702
21
6.473385
0
LINE
8
Layer 1
10
3.451702
20
6.473385
11
3.451702
21
6.473385
0
LINE
8
Layer 1
10
3.362305
20
6.468407
11
3.280679
21
6.223979
0
LINE
8
Layer 1
10
3.280679
20
6.223979
11
3.083605
21
6.122735
0
LINE
8
Layer 1
10
3.083605
20
6.122735
11
2.886518
21
6.223979
0
LINE
8
Layer 1
10
2.886518
20
6.223979
11
2.804880
21
6.468407
0
LINE
8
Layer 1
10
2.804880
20
6.468407
11
2.886518
21
6.712826
0
LINE
8
Layer 1
10
2.886518
20
6.712826
11
3.083605
21
6.814079
0
LINE
8
Layer 1
10
3.083605
20
6.814079
11
3.280679
21
6.712826
0
LINE
8
Layer 1
10
3.280679
20
6.712826
11
3.362305
21
6.468407
0
LINE
8
Layer 1
10
3.362305
20
6.468407
11
3.362305
21
6.468407
 0 
ENDSEC
 0 
EOF