<?xml version="1.0" encoding="UTF-8" standalone="no"?>
<svg
   width="75mm"
   height="38mm"
   viewBox="0 0 283.46457 143.62205"
   version="1.1"
   xml:space="preserve"
   style="clip-rule:evenodd;fill-rule:evenodd;stroke-linejoin:round;stroke-miterlimit:2"
   id="svg7"
   sodipodi:docname="Skawa_logo_kek (1).svg"
   inkscape:version="1.3.1 (9b9bdc1480, 2023-11-25, custom)"
   xmlns:inkscape="http://www.inkscape.org/namespaces/inkscape"
   xmlns:sodipodi="http://sodipodi.sourceforge.net/DTD/sodipodi-0.dtd"
   xmlns="http://www.w3.org/2000/svg"
   xmlns:svg="http://www.w3.org/2000/svg"><defs
   id="defs7">
        
        
        
        
        
        
        
    </defs><sodipodi:namedview
   id="namedview7"
   pagecolor="#ffffff"
   bordercolor="#000000"
   borderopacity="0.25"
   inkscape:showpageshadow="2"
   inkscape:pageopacity="0.0"
   inkscape:pagecheckerboard="0"
   inkscape:deskcolor="#d1d1d1"
   showgrid="false"
   inkscape:zoom="0.28775318"
   inkscape:cx="785.39533"
   inkscape:cy="1237.1714"
   inkscape:window-width="1854"
   inkscape:window-height="1043"
   inkscape:window-x="0"
   inkscape:window-y="0"
   inkscape:window-maximized="1"
   inkscape:current-layer="svg7"
   inkscape:document-units="mm" />
    <path
   d="M 7.7166728,1349.9552 40.137532,1302.101 c 3.59167,-5.6541 8.487507,-8.9958 14.666679,-10.0375 6.175004,-1.0291 12.079176,0.2667 17.750014,3.8542 23.154185,14.4167 45.800035,26.7709 67.929225,37.0584 29.33335,14.4125 60.97921,21.6083 94.94591,21.6083 17.48751,0 32.92502,-2.3125 46.31253,-6.9417 12.34585,-3.6 23.66669,-9.2666 33.95836,-16.9833 9.26251,-7.2 16.20835,-15.1792 20.84585,-23.9292 4.63334,-8.2292 6.94584,-16.9792 6.94584,-26.25 0,-10.8042 -3.60417,-20.5709 -10.81251,-29.325 -6.6875,-7.2084 -15.95001,-13.6334 -27.77919,-19.3 -5.67083,-2.575 -11.84584,-4.8876 -18.52918,-6.9417 -6.69167,-2.0584 -14.16251,-4.1167 -22.38752,-6.1834 -7.71667,-2.0458 -15.56667,-3.8583 -23.54168,-5.4 -7.98334,-1.5416 -16.33751,-3.0833 -25.08752,-4.6333 -5.66667,-1.0208 -11.84168,-2.1792 -18.52085,-3.4708 -6.69584,-1.2792 -13.64584,-2.7042 -20.84168,-4.25 -14.92918,-2.05 -30.37086,-5.9084 -46.31671,-11.5792 -16.47501,-4.6292 -32.166689,-11.0542 -47.083367,-19.2959 -15.437513,-7.7166 -29.333357,-17.75 -41.683367,-30.1042 -12.35001,-11.3125 -22.387518,-25.7208 -30.108357,-43.225 C 3.5916695,1079.7925 0,1060.2383 0,1038.1092 c 0,-32.4251 6.6750053,-59.94592 20.062516,-82.59594 12.86251,-21.09168 29.841691,-38.32919 50.950041,-51.70837 20.070849,-11.84168 43.225033,-20.57918 69.470893,-26.25002 24.18335,-5.14167 48.8792,-7.72084 74.10005,-7.72084 23.66669,0 44.77087,1.54167 63.29589,4.6375 9.26667,1.54167 18.14168,3.47084 26.63335,5.78334 8.49168,2.3125 16.84585,4.76667 25.08336,7.33334 8.22917,3.09167 16.20834,6.56251 23.92918,10.41668 7.71668,3.8625 15.17501,7.85417 22.38335,11.96667 5.14167,3.0875 10.03335,6.17917 14.67085,9.27084 4.63334,3.08334 9.76667,6.16667 15.43751,9.25418 5.65417,4.125 8.99584,9.26667 10.02918,15.43751 1.03333,6.18334 -0.5125,12.10001 -4.62501,17.75835 l -32.41669,46.31256 c -4.12917,5.6666 -9.40001,9.0041 -15.83335,10.0333 -6.4375,1.0417 -12.47917,-0.25 -18.13751,-3.8583 -20.07085,-12.8542 -39.11253,-22.63337 -57.11671,-29.33338 -24.19586,-9.76667 -50.17504,-14.66668 -77.96673,-14.66668 -4.62501,0 -9.64584,0.27084 -15.05001,0.77084 -5.40001,0.52083 -10.93751,1.29166 -16.59585,2.31667 -11.84584,2.58333 -23.15419,6.4375 -33.96253,11.57917 -5.15417,2.58334 -9.91667,5.40001 -14.27918,8.49167 -4.375,3.09167 -8.36667,6.69171 -11.96667,10.80421 -6.69167,8.2375 -10.03334,18.0208 -10.03334,29.3333 0,11.325 4.1125,20.8417 12.35417,28.5625 8.22084,7.7167 18.77085,14.1626 31.64586,19.3001 6.67501,2.575 13.51251,4.8916 20.45002,6.95 6.95,2.0541 14.28334,4.1166 22.00002,6.1666 7.72084,2.0625 15.30834,3.8625 22.77085,5.4042 7.45834,1.5458 14.78751,3.35 22.00001,5.4084 5.65418,1.0333 11.58335,2.3125 17.75835,3.8541 6.17084,1.5417 12.85418,2.8334 20.06669,3.8584 7.20417,1.0375 14.66667,2.4541 22.38335,4.2541 7.72084,1.7959 15.43751,3.9834 23.15835,6.5542 4.1125,1.0417 8.3625,2.3125 12.73751,3.8542 4.3625,1.55 8.61251,3.0958 12.73334,4.6375 6.17501,2.5833 13.24585,5.9208 21.22919,10.0291 7.975,4.1292 14.78751,8.2417 20.45418,12.3542 4.11667,2.5834 7.84167,5.2834 11.19167,8.1084 3.34167,2.8333 6.56251,5.7875 9.65418,8.8708 12.85418,12.8708 22.63752,27.7917 29.33336,44.775 7.71667,18.0209 11.575,39.6292 11.575,64.8418 0,28.825 -5.14583,54.2958 -15.43751,76.4167 -10.30417,21.6125 -24.96668,39.3667 -44.00003,53.2625 -19.56669,14.9292 -42.20004,25.7334 -67.92922,32.4167 -27.27919,7.1959 -56.34588,10.8125 -87.22091,10.8125 -29.85419,0 -55.84588,-2.325 -77.96256,-6.9541 -21.10418,-3.6 -41.4292,-9.5167 -60.979215,-17.7542 -9.262507,-3.5917 -18.270848,-7.5834 -27.016688,-11.9667 -8.754174,-4.3583 -17.245847,-9.125 -25.470854,-14.2792 -5.150004,-3.0875 -10.304175,-6.2958 -15.437512,-9.6417 -5.150004,-3.3416 -10.554175,-7.0708 -16.212513,-11.1958 -5.6666714,-3.5917 -9.0083408,-8.4917 -10.0375083,-14.6667 -1.0375008,-6.1708 0.2583336,-12.0833 3.8625031,-17.7542 z"
   style="fill:#3d87c7;fill-rule:nonzero;stroke-width:4.16667"
   id="path1" /><path
   d="M 886.13404,1425.6053 680.80471,1203.2926 c -4.125,-4.6291 -7.71667,-6.2916 -10.80417,-5.0125 -3.09167,1.2834 -4.63334,5.2834 -4.63334,11.9667 v 209.1793 c 0,6.6917 -2.3125,12.35 -6.94584,16.9792 -4.62917,4.6375 -10.29584,6.95 -16.98335,6.95 H 580.4588 c -6.68751,0 -12.22918,-2.3125 -16.59168,-6.95 -4.37917,-4.6292 -6.56251,-10.2875 -6.56251,-16.9792 V 902.25489 c 0,-6.67917 2.18334,-12.34584 6.56251,-16.98335 4.3625,-4.62917 9.90417,-6.94584 16.59168,-6.94584 h 60.97921 c 6.68751,0 12.35418,2.31667 16.98335,6.94584 4.63334,4.63751 6.94584,10.30418 6.94584,16.98335 v 239.28351 c 0,6.7 1.41667,10.5542 4.25,11.5834 2.82084,1.0416 6.29167,-1.0292 10.41668,-6.175 L 875.32987,897.62155 c 4.1125,-5.1375 9.76667,-9.51251 16.97918,-13.12084 7.2,-3.59167 14.14584,-5.40417 20.84168,-5.40417 h 85.67924 c 6.68333,0 10.92503,1.8125 12.74163,5.40417 1.7917,3.60833 0.6334,7.98334 -3.4791,13.12084 L 805.08398,1152.3509 c -4.12501,5.1459 -6.05001,11.1959 -5.78751,18.1375 0.25,6.9459 2.7,12.7375 7.33334,17.3667 l 222.30439,238.521 c 4.1125,4.6292 5.5208,8.625 4.2416,11.9667 -1.2833,3.3459 -5.275,5.0125 -11.9625,5.0125 h -95.71673 c -6.69167,0 -13.88751,-1.6666 -21.60835,-5.0125 -7.71667,-3.3417 -13.64167,-7.5917 -17.75418,-12.7375 z"
   style="fill:#3d87c7;fill-rule:nonzero;stroke-width:4.16667"
   id="path2" /><path
   d="m 2539.0687,1260.4177 h 114.2418 c 6.6791,0 11.1916,-2.1875 13.5,-6.5667 2.325,-4.3625 2.1875,-9.3833 -0.3792,-15.05 l -60.2125,-127.3668 c -2.5792,-6.1666 -5.9209,-9.2542 -10.0334,-9.2542 -4.125,0 -7.4625,3.0876 -10.0333,9.2542 l -60.9792,127.3668 c -2.5834,6.1792 -2.5834,11.3292 0,15.4375 2.5708,4.125 7.2,6.1792 13.8958,6.1792 z m -232.7502,162.1001 267.8461,-534.92959 c 3.0916,-6.175 8.2291,-9.26251 15.4375,-9.26251 7.2,0 12.3541,3.08751 15.4375,9.26251 l 267.8502,534.92959 c 3.0917,5.6708 3.475,10.5542 1.1583,14.6625 -2.3166,4.125 -6.825,6.175 -13.5083,6.175 h -70.2459 c -6.6875,0 -13.3875,-2.05 -20.0625,-6.175 -6.7,-4.1083 -11.325,-9.2625 -13.8959,-15.4375 l -23.1583,-46.3125 c -3.0833,-5.6584 -7.8542,-10.5417 -14.2792,-14.6667 -6.4417,-4.1083 -13.0042,-6.1792 -19.6792,-6.1792 h -219.2251 c -6.6917,0 -13.3834,2.0709 -20.0667,6.1792 -6.6917,4.125 -11.3292,9.2583 -13.8959,15.4375 l -22.3875,45.5417 c -3.0833,6.175 -7.8458,11.3292 -14.275,15.4375 -6.4458,4.125 -13,6.175 -19.6834,6.175 h -70.2417 c -6.6958,0 -11.1958,-2.05 -13.5125,-6.175 -2.3125,-4.1083 -2.1958,-8.9917 0.3875,-14.6625 z"
   style="fill:#3d87c7;fill-rule:nonzero;stroke-width:4.16667"
   id="path3" /><path
   d="m 2361.9769,885.65904 c -3.0833,-4.3625 -7.9792,-6.5625 -14.6625,-6.5625 h -67.1584 c -6.6917,0 -13.1167,2.2 -19.2917,6.5625 -6.1792,4.37501 -10.3042,9.65001 -12.3542,15.82501 l -97.2625,265.53355 c -2.0542,6.1708 -4.8917,9.2625 -8.4876,9.2625 -3.6083,0 -6.6958,-2.825 -9.2625,-8.4917 L 2010.7641,888.36738 c -2.5833,-5.66251 -7.3333,-8.49584 -14.2792,-8.49584 -6.95,0 -11.7083,2.83333 -14.2791,8.49584 l -27.1667,61.67505 c -62.3501,168.33347 -104.9335,257.37937 -183.9002,327.14607 l 53.6042,155.3585 c 2.5625,6.1833 7.0625,9.2667 13.5,9.2667 6.4334,0 11.1959,-2.8292 14.2834,-8.4959 l 134.3126,-297.1752 c 2.5708,-6.1792 5.9042,-9.2709 10.0292,-9.2709 4.1166,0 7.4583,3.0917 10.0333,9.2709 l 133.5418,299.4919 c 2.5708,5.6708 7.2,8.4917 13.8958,8.4917 6.675,0 11.3084,-3.0834 13.8917,-9.2626 l 194.521,-533.37955 c 2.5708,-6.175 2.3125,-11.45 -0.775,-15.82501 z"
   style="fill:#3d87c7;fill-rule:nonzero;stroke-width:4.16667"
   id="path4" /><path
   id="path5"
   style="fill:#3d87c7;fill-rule:nonzero;stroke-width:4.16667"
   d="M 1034.2891 2.9199219 C 994.98569 2.2151043 952.33475 3.9924489 905.69727 9.1914062 C 640.61398 38.737234 643.14258 137.00781 643.14258 137.00781 C 643.14258 137.00781 627.44558 118.54608 630.75391 25.433594 C 562.62475 25.433594 497.19256 45.904824 436.83008 76.458984 C 378.45092 106.00064 328.64218 142.00822 282.11719 188.5332 C 193.27138 277.37902 136.13723 422.78452 112.19141 525.57617 C 99.483072 580.11783 79.841808 704.71733 109.5918 745.39648 C 142.92929 790.97564 190.83308 787.40417 226.00391 791.1875 C 297.79555 798.9125 416.94587 790.21405 587.9375 761.28906 C 653.40832 750.20989 849.12946 713.14583 1064.7461 709 C 1178.8211 706.80833 1349.9393 729.84272 1440.7852 775.92188 C 1521.2435 816.7302 1621.9688 885.65927 1621.9688 1042.4551 C 1621.9688 1108.0426 1595.1471 1174.1594 1555.918 1213.9844 L 1392.4883 887.58789 C 1389.405 881.4129 1384.2466 878.32617 1377.0508 878.32617 C 1369.8383 878.32617 1364.705 881.4129 1361.6133 887.58789 L 1203.2344 1203.8965 C 1182.5094 1188.2965 1163.2713 1170.8433 1147.7129 1152.5059 C 1101.642 1098.2058 1075.314 1055.4306 1065.4473 996.19727 C 1023.7348 1043.8639 1045.7634 1186.8801 1161.2676 1287.7051 L 1093.7676 1422.5176 C 1091.1801 1428.1884 1091.0643 1433.0717 1093.3809 1437.1758 C 1095.6934 1441.305 1100.1928 1443.3555 1106.8887 1443.3555 L 1177.1309 1443.3555 C 1183.8142 1443.3555 1190.3726 1441.305 1196.8184 1437.1758 C 1203.2434 1433.0717 1208.0043 1427.9175 1211.0918 1421.7383 L 1233.4766 1376.2012 C 1234.8766 1372.8387 1236.9378 1369.8142 1239.5586 1367.0684 L 1250.4102 1345.5176 C 1334.2227 1383.8426 1427.4253 1386.8976 1515.8086 1363.8477 L 1551.9434 1432.8594 C 1553.6684 1434.3927 1555.5258 1435.8592 1557.6758 1437.1758 C 1564.355 1441.305 1571.0508 1443.3555 1577.7383 1443.3555 L 1647.9922 1443.3555 C 1654.6672 1443.3555 1659.1755 1441.305 1661.4922 1437.1758 C 1663.813 1433.0717 1663.4296 1428.1884 1660.3379 1422.5176 L 1612.6426 1327.2715 C 1640.9216 1313.1507 1668.0307 1296.4519 1693.3516 1277.4395 C 1843.5181 1164.677 1896.002 972.07952 1896.002 825.08789 C 1896.002 513.08378 1678.5086 154.77915 1314.8379 50.875 C 1239.9754 29.484379 1152.1992 5.0343747 1034.2891 2.9199219 z M 370.41016 281.09375 C 377.03591 281.12663 383.72813 281.70195 390.44531 282.85352 C 462.09946 295.13685 509.34179 368.32618 495.9668 446.32617 C 482.59597 524.32615 413.6673 577.6 342.02148 565.3125 C 270.36733 553.02917 223.12917 479.84178 236.5 401.8418 C 248.61731 331.15431 306.36118 280.77589 370.41016 281.09375 z M 1377.0508 1102.1797 C 1381.1633 1102.1797 1384.5049 1105.267 1387.084 1111.4336 L 1418.959 1178.8672 L 1462.3047 1261.6543 C 1415.763 1272.6501 1363.2342 1274.039 1323.9551 1264.9473 C 1314.976 1262.8682 1305.3847 1259.8004 1295.4805 1256.0254 L 1342.3926 1162.8711 L 1367.0176 1111.4336 C 1369.5884 1105.267 1372.9258 1102.1797 1377.0508 1102.1797 z " /><path
   d="m 481.15038,447.15036 c 0,31.64169 -20.67918,57.29171 -46.1917,57.29171 -25.51252,0 -46.19587,-25.65002 -46.19587,-57.29171 0,-31.63753 20.68335,-57.29171 46.19587,-57.29171 25.51252,0 46.1917,25.65418 46.1917,57.29171 z"
   style="fill:#3d87c7;fill-rule:nonzero;stroke-width:4.16667"
   id="path7" />
</svg>
