999
"DXF R12 Output" (www.mydxf.blogspot.com)
 0 
SECTION
 2 
HEADER
 9 
$ACADVER
 1 
AC1009
 9 
$EXTMIN
 10 
 0 
 20 
 0 
 9 
$EXTMAX
 10 
 8.5 
 20 
 11 
 0 
ENDSEC
 0 
SECTION
 2 
ENTITIES
0
LINE
8
Layer 1
10
28.010677
20
35.456719
11
25.295552
21
35.324801
0
LINE
8
Layer 1
10
25.295552
20
35.324801
11
23.450079
21
35.029680
0
LINE
8
Layer 1
10
23.450079
20
35.029680
11
22.067571
21
34.639825
0
LINE
8
Layer 1
10
22.067571
20
34.639825
11
21.081176
21
34.196562
0
LINE
8
Layer 1
10
21.081176
20
34.196562
11
20.424040
21
33.741220
0
LINE
8
Layer 1
10
20.424040
20
33.741220
11
19.830129
21
32.959605
0
LINE
8
Layer 1
10
19.830129
20
32.959605
11
19.751009
21
32.625596
0
LINE
8
Layer 1
10
19.751009
20
32.625596
11
19.593744
21
33.066104
0
LINE
8
Layer 1
10
19.593744
20
33.066104
11
19.488878
21
34.981359
0
LINE
8
Layer 1
10
19.488878
20
34.981359
11
18.421302
21
34.903733
0
LINE
8
Layer 1
10
18.421302
20
34.903733
11
17.379798
21
34.684562
0
LINE
8
Layer 1
10
17.379798
20
34.684562
11
15.393729
21
33.903838
0
LINE
8
Layer 1
10
15.393729
20
33.903838
11
13.666230
21
32.855049
0
LINE
8
Layer 1
10
13.666230
20
32.855049
11
12.126481
21
31.537272
0
LINE
8
Layer 1
10
12.126481
20
31.537272
11
10.845353
21
29.938826
0
LINE
8
Layer 1
10
10.845353
20
29.938826
11
9.818269
21
28.088764
0
LINE
8
Layer 1
10
9.818269
20
28.088764
11
9.048162
21
26.183482
0
LINE
8
Layer 1
10
9.048162
20
26.183482
11
8.537966
21
24.419377
0
LINE
8
Layer 1
10
8.537966
20
24.419377
11
8.174437
21
21.988805
0
LINE
8
Layer 1
10
8.174437
20
21.988805
11
8.189123
21
20.703481
0
LINE
8
Layer 1
10
8.189123
20
20.703481
11
8.483379
21
19.777792
0
LINE
8
Layer 1
10
8.483379
20
19.777792
11
9.060019
21
19.231833
0
LINE
8
Layer 1
10
9.060019
20
19.231833
11
9.697917
21
18.963198
0
LINE
8
Layer 1
10
9.697917
20
18.963198
11
10.941492
21
18.810581
0
LINE
8
Layer 1
10
10.941492
20
18.810581
11
13.977556
21
18.835924
0
LINE
8
Layer 1
10
13.977556
20
18.835924
11
18.584784
21
19.441741
0
LINE
8
Layer 1
10
18.584784
20
19.441741
11
22.430535
21
20.048771
0
LINE
8
Layer 1
10
22.430535
20
20.048771
11
25.354462
21
20.369415
0
LINE
8
Layer 1
10
25.354462
20
20.369415
11
28.654347
21
20.545988
0
LINE
8
Layer 1
10
28.654347
20
20.545988
11
30.641595
21
20.481572
0
LINE
8
Layer 1
10
30.641595
20
20.481572
11
32.808640
21
20.221751
0
LINE
8
Layer 1
10
32.808640
20
20.221751
11
34.883708
21
19.770798
0
LINE
8
Layer 1
10
34.883708
20
19.770798
11
36.595025
21
19.132985
0
LINE
8
Layer 1
10
36.595025
20
19.132985
11
37.909676
21
18.355571
0
LINE
8
Layer 1
10
37.909676
20
18.355571
11
39.145285
21
17.237161
0
LINE
8
Layer 1
10
39.145285
20
17.237161
11
39.658593
21
16.513124
0
LINE
8
Layer 1
10
39.658593
20
16.513124
11
40.062313
21
15.659488
0
LINE
8
Layer 1
10
40.062313
20
15.659488
11
40.326503
21
14.661470
0
LINE
8
Layer 1
10
40.326503
20
14.661470
11
40.421221
21
13.504287
0
LINE
8
Layer 1
10
40.421221
20
13.504287
11
40.319780
21
12.472284
0
LINE
8
Layer 1
10
40.319780
20
12.472284
11
40.034479
21
11.489238
0
LINE
8
Layer 1
10
40.034479
20
11.489238
11
39.593847
21
10.608200
0
LINE
8
Layer 1
10
39.593847
20
10.608200
11
39.026413
21
9.882225
0
LINE
8
Layer 1
10
39.026413
20
9.882225
11
35.575499
21
16.774948
0
LINE
8
Layer 1
10
35.575499
20
16.774948
11
35.249118
21
16.970551
0
LINE
8
Layer 1
10
35.249118
20
16.970551
11
34.923302
21
16.774948
0
LINE
8
Layer 1
10
34.923302
20
16.774948
11
31.578725
21
10.094886
0
LINE
8
Layer 1
10
31.578725
20
10.094886
11
30.406241
21
11.180367
0
LINE
8
Layer 1
10
30.406241
20
11.180367
11
29.250979
21
12.791699
0
LINE
8
Layer 1
10
29.250979
20
12.791699
11
28.891642
21
13.598955
0
LINE
8
Layer 1
10
28.891642
20
13.598955
11
28.669132
21
14.481164
0
LINE
8
Layer 1
10
28.669132
20
14.481164
11
28.403110
21
14.014979
0
LINE
8
Layer 1
10
28.403110
20
14.014979
11
28.270614
21
13.394074
0
LINE
8
Layer 1
10
28.270614
20
13.394074
11
28.435668
21
11.824234
0
LINE
8
Layer 1
10
28.435668
20
11.824234
11
29.223235
21
10.043909
0
LINE
8
Layer 1
10
29.223235
20
10.043909
11
29.868881
21
9.159897
0
LINE
8
Layer 1
10
29.868881
20
9.159897
11
30.692258
21
8.325363
0
LINE
8
Layer 1
10
30.692258
20
8.325363
11
29.266743
21
5.478318
0
LINE
8
Layer 1
10
29.266743
20
5.478318
11
29.258779
21
5.168425
0
LINE
8
Layer 1
10
29.258779
20
5.168425
11
29.544221
21
5.038210
0
LINE
8
Layer 1
10
29.544221
20
5.038210
11
31.027164
21
5.038210
0
LINE
8
Layer 1
10
31.027164
20
5.038210
11
31.443385
21
5.168425
0
LINE
8
Layer 1
10
31.443385
20
5.168425
11
31.744753
21
5.494806
0
LINE
8
Layer 1
10
31.744753
20
5.494806
11
32.217269
21
6.456333
0
LINE
8
Layer 1
10
32.217269
20
6.456333
11
32.345774
21
6.649092
0
LINE
8
Layer 1
10
32.345774
20
6.649092
11
32.574927
21
7.104550
0
LINE
8
Layer 1
10
32.574927
20
7.104550
11
33.934900
21
6.634155
0
LINE
8
Layer 1
10
33.934900
20
6.634155
11
35.341138
21
6.424899
0
LINE
8
Layer 1
10
35.341138
20
6.424899
11
36.765474
21
6.458662
0
LINE
8
Layer 1
10
36.765474
20
6.458662
11
38.179742
21
6.717325
0
LINE
8
Layer 1
10
38.179742
20
6.717325
11
38.942821
21
5.259970
0
LINE
8
Layer 1
10
38.942821
20
5.259970
11
39.063936
21
5.168425
0
LINE
8
Layer 1
10
39.063936
20
5.168425
11
39.487550
21
5.038210
0
LINE
8
Layer 1
10
39.487550
20
5.038210
11
40.971064
21
5.038210
0
LINE
8
Layer 1
10
40.971064
20
5.038210
11
41.255938
21
5.168425
0
LINE
8
Layer 1
10
41.255938
20
5.168425
11
41.231490
21
5.478318
0
LINE
8
Layer 1
10
41.231490
20
5.478318
11
40.224474
21
7.489500
0
LINE
8
Layer 1
10
40.224474
20
7.489500
11
41.928608
21
8.542003
0
LINE
8
Layer 1
10
41.928608
20
8.542003
11
43.022989
21
9.508845
0
LINE
8
Layer 1
10
43.022989
20
9.508845
11
43.935194
21
10.602701
0
LINE
8
Layer 1
10
43.935194
20
10.602701
11
44.676398
21
11.792529
0
LINE
8
Layer 1
10
44.676398
20
11.792529
11
45.257777
21
13.047284
0
LINE
8
Layer 1
10
45.257777
20
13.047284
11
45.985762
21
15.627400
0
LINE
8
Layer 1
10
45.985762
20
15.627400
11
46.208556
21
18.094698
0
LINE
8
Layer 1
10
46.208556
20
18.094698
11
45.996200
21
20.598928
0
LINE
8
Layer 1
10
45.996200
20
20.598928
11
45.370898
21
23.120382
0
LINE
8
Layer 1
10
45.370898
20
23.120382
11
44.350300
21
25.584655
0
LINE
8
Layer 1
10
44.350300
20
25.584655
11
42.952057
21
27.917338
0
LINE
8
Layer 1
10
42.952057
20
27.917338
11
41.193817
21
30.044024
0
LINE
8
Layer 1
10
41.193817
20
30.044024
11
39.093231
21
31.890305
0
LINE
8
Layer 1
10
39.093231
20
31.890305
11
36.667949
21
33.381773
0
LINE
8
Layer 1
10
36.667949
20
33.381773
11
33.935619
21
34.444020
0
LINE
8
Layer 1
10
33.935619
20
34.444020
11
31.314038
21
35.103021
0
LINE
8
Layer 1
10
31.314038
20
35.103021
11
29.764594
21
35.343171
0
LINE
8
Layer 1
10
29.764594
20
35.343171
11
28.010675
21
35.456719
0
LINE
8
Layer 1
10
28.010675
20
35.456719
11
28.010677
21
35.456719
0
LINE
8
Layer 1
10
13.990962
20
29.582381
11
14.414578
21
29.545421
0
LINE
8
Layer 1
10
14.414578
20
29.545421
11
15.440856
21
29.128241
0
LINE
8
Layer 1
10
15.440856
20
29.128241
11
16.202135
21
28.339819
0
LINE
8
Layer 1
10
16.202135
20
28.339819
11
16.626734
21
27.291185
0
LINE
8
Layer 1
10
16.626734
20
27.291185
11
16.642972
21
26.093373
0
LINE
8
Layer 1
10
16.642972
20
26.093373
11
16.228596
21
24.969367
0
LINE
8
Layer 1
10
16.228596
20
24.969367
11
15.478798
21
24.122022
0
LINE
8
Layer 1
10
15.478798
20
24.122022
11
14.498254
21
23.632177
0
LINE
8
Layer 1
10
14.498254
20
23.632177
11
13.391644
21
23.580674
0
LINE
8
Layer 1
10
13.391644
20
23.580674
11
12.365378
21
23.997853
0
LINE
8
Layer 1
10
12.365378
20
23.997853
11
11.604120
21
24.786276
0
LINE
8
Layer 1
10
11.604120
20
24.786276
11
11.179525
21
25.834910
0
LINE
8
Layer 1
10
11.179525
20
25.834910
11
11.163251
21
27.032722
0
LINE
8
Layer 1
10
11.163251
20
27.032722
11
11.522829
21
28.061809
0
LINE
8
Layer 1
10
11.522829
20
28.061809
11
12.165850
21
28.869855
0
LINE
8
Layer 1
10
12.165850
20
28.869855
11
13.014500
21
29.396748
0
LINE
8
Layer 1
10
13.014500
20
29.396748
11
13.990962
21
29.582381
0
LINE
8
Layer 1
10
13.990962
20
29.582381
11
13.990962
21
29.582381
0
LINE
8
Layer 1
10
15.354495
20
27.285754
11
14.974743
21
27.190644
0
LINE
8
Layer 1
10
14.974743
20
27.190644
11
14.664587
21
26.931293
0
LINE
8
Layer 1
10
14.664587
20
26.931293
11
14.455451
21
26.546671
0
LINE
8
Layer 1
10
14.455451
20
26.546671
11
14.378756
21
26.075746
0
LINE
8
Layer 1
10
14.378756
20
26.075746
11
14.455451
21
25.604784
0
LINE
8
Layer 1
10
14.455451
20
25.604784
11
14.664587
21
25.220166
0
LINE
8
Layer 1
10
14.664587
20
25.220166
11
14.974743
21
24.960836
0
LINE
8
Layer 1
10
14.974743
20
24.960836
11
15.354495
21
24.865738
0
LINE
8
Layer 1
10
15.354495
20
24.865738
11
15.734159
21
24.960836
0
LINE
8
Layer 1
10
15.734159
20
24.960836
11
16.044119
21
25.220166
0
LINE
8
Layer 1
10
16.044119
20
25.220166
11
16.253060
21
25.604784
0
LINE
8
Layer 1
10
16.253060
20
25.604784
11
16.329666
21
26.075746
0
LINE
8
Layer 1
10
16.329666
20
26.075746
11
16.253060
21
26.546671
0
LINE
8
Layer 1
10
16.253060
20
26.546671
11
16.044119
21
26.931293
0
LINE
8
Layer 1
10
16.044119
20
26.931293
11
15.734159
21
27.190644
0
LINE
8
Layer 1
10
15.734159
20
27.190644
11
15.354495
21
27.285754
0
LINE
8
Layer 1
10
15.354495
20
27.285754
11
15.354495
21
27.285754
0
LINE
8
Layer 1
10
10.700400
20
17.149664
11
9.135578
21
16.986472
0
LINE
8
Layer 1
10
9.135578
20
16.986472
11
7.668557
21
16.432074
0
LINE
8
Layer 1
10
7.668557
20
16.432074
11
7.065349
21
15.947283
0
LINE
8
Layer 1
10
7.065349
20
15.947283
11
6.592741
21
15.340338
0
LINE
8
Layer 1
10
6.592741
20
15.340338
11
6.274915
21
14.545497
0
LINE
8
Layer 1
10
6.274915
20
14.545497
11
6.169125
21
13.595834
0
LINE
8
Layer 1
10
6.169125
20
13.595834
11
6.397139
21
12.357396
0
LINE
8
Layer 1
10
6.397139
20
12.357396
11
7.032848
21
11.444204
0
LINE
8
Layer 1
10
7.032848
20
11.444204
11
7.913060
21
10.808496
0
LINE
8
Layer 1
10
7.913060
20
10.808496
11
8.907564
21
10.401368
0
LINE
8
Layer 1
10
8.907564
20
10.401368
11
9.885578
21
10.156865
0
LINE
8
Layer 1
10
9.885578
20
10.156865
11
10.325684
21
10.067023
0
LINE
8
Layer 1
10
10.325684
20
10.067023
11
10.716889
21
9.993672
0
LINE
8
Layer 1
10
10.716889
20
9.993672
11
11.246837
21
9.895872
0
LINE
8
Layer 1
10
11.246837
20
9.895872
11
11.743804
21
9.781580
0
LINE
8
Layer 1
10
11.743804
20
9.781580
11
12.216321
21
9.651368
0
LINE
8
Layer 1
10
12.216321
20
9.651368
11
12.607527
21
9.504665
0
LINE
8
Layer 1
10
12.607527
20
9.504665
11
13.194335
21
9.096969
0
LINE
8
Layer 1
10
13.194335
20
9.096969
11
13.422918
21
8.477752
0
LINE
8
Layer 1
10
13.422918
20
8.477752
11
13.276215
21
7.923353
0
LINE
8
Layer 1
10
13.276215
20
7.923353
11
12.836109
21
7.417856
0
LINE
8
Layer 1
10
12.836109
20
7.417856
11
12.118520
21
7.059630
0
LINE
8
Layer 1
10
12.118520
20
7.059630
11
11.140506
21
6.912929
0
LINE
8
Layer 1
10
11.140506
20
6.912929
11
10.101349
21
7.026806
0
LINE
8
Layer 1
10
10.101349
20
7.026806
11
9.135578
21
7.368956
0
LINE
8
Layer 1
10
9.135578
20
7.368956
11
7.700968
21
8.151937
0
LINE
8
Layer 1
10
7.700968
20
8.151937
11
7.326252
21
8.233246
0
LINE
8
Layer 1
10
7.326252
20
8.233246
11
7.016358
21
8.021156
0
LINE
8
Layer 1
10
7.016358
20
8.021156
11
6.331748
21
7.010729
0
LINE
8
Layer 1
10
6.331748
20
7.010729
11
6.250437
21
6.635445
0
LINE
8
Layer 1
10
6.250437
20
6.635445
11
6.462529
21
6.326121
0
LINE
8
Layer 1
10
6.462529
20
6.326121
11
6.804834
21
6.089576
0
LINE
8
Layer 1
10
6.804834
20
6.089576
11
7.130649
21
5.886013
0
LINE
8
Layer 1
10
7.130649
20
5.886013
11
7.668557
21
5.584079
0
LINE
8
Layer 1
10
7.668557
20
5.584079
11
8.238875
21
5.331617
0
LINE
8
Layer 1
10
8.238875
20
5.331617
11
9.526783
21
4.956901
0
LINE
8
Layer 1
10
9.526783
20
4.956901
11
11.173486
21
4.809632
0
LINE
8
Layer 1
10
11.173486
20
4.809632
11
13.015222
21
5.038210
0
LINE
8
Layer 1
10
13.015222
20
5.038210
11
13.781329
21
5.315217
0
LINE
8
Layer 1
10
13.781329
20
5.315217
11
14.449833
21
5.722824
0
LINE
8
Layer 1
10
14.449833
20
5.722824
11
14.983517
21
6.224071
0
LINE
8
Layer 1
10
14.983517
20
6.224071
11
15.378946
21
6.847540
0
LINE
8
Layer 1
10
15.378946
20
6.847540
11
15.623355
21
7.601310
0
LINE
8
Layer 1
10
15.623355
20
7.601310
11
15.704761
21
8.461263
0
LINE
8
Layer 1
10
15.704761
20
8.461263
11
15.460257
21
9.830480
0
LINE
8
Layer 1
10
15.460257
20
9.830480
11
14.841038
21
10.776084
0
LINE
8
Layer 1
10
14.841038
20
10.776084
11
14.636906
21
10.963726
0
LINE
8
Layer 1
10
14.636906
20
10.963726
11
14.400932
21
11.134877
0
LINE
8
Layer 1
10
14.400932
20
11.134877
11
13.968786
21
11.395304
0
LINE
8
Layer 1
10
13.968786
20
11.395304
11
13.520719
21
11.607395
0
LINE
8
Layer 1
10
13.520719
20
11.607395
11
13.251765
21
11.705197
0
LINE
8
Layer 1
10
13.251765
20
11.705197
11
12.982811
21
11.786508
0
LINE
8
Layer 1
10
12.982811
20
11.786508
11
12.493804
21
11.925250
0
LINE
8
Layer 1
10
12.493804
20
11.925250
11
12.020718
21
12.015091
0
LINE
8
Layer 1
10
12.020718
20
12.015091
11
11.597102
21
12.096402
0
LINE
8
Layer 1
10
11.597102
20
12.096402
11
11.222386
21
12.177714
0
LINE
8
Layer 1
10
11.222386
20
12.177714
11
10.757261
21
12.292005
0
LINE
8
Layer 1
10
10.757261
20
12.292005
11
10.276783
21
12.406296
0
LINE
8
Layer 1
10
10.276783
20
12.406296
11
9.812227
21
12.536509
0
LINE
8
Layer 1
10
9.812227
20
12.536509
11
9.380081
21
12.683211
0
LINE
8
Layer 1
10
9.380081
20
12.683211
11
8.711961
21
13.090906
0
LINE
8
Layer 1
10
8.711961
20
13.090906
11
8.450968
21
13.693635
0
LINE
8
Layer 1
10
8.450968
20
13.693635
11
8.663060
21
14.313423
0
LINE
8
Layer 1
10
8.663060
20
14.313423
11
8.915524
21
14.541437
0
LINE
8
Layer 1
10
8.915524
20
14.541437
11
9.216889
21
14.721119
0
LINE
8
Layer 1
10
9.216889
20
14.721119
11
9.934478
21
14.965622
0
LINE
8
Layer 1
10
9.934478
20
14.965622
11
10.284744
21
15.014523
0
LINE
8
Layer 1
10
10.284744
20
15.014523
11
10.602598
21
15.030445
0
LINE
8
Layer 1
10
10.602598
20
15.030445
11
11.454426
21
14.953127
0
LINE
8
Layer 1
10
11.454426
20
14.953127
11
12.249301
21
14.721120
0
LINE
8
Layer 1
10
12.249301
20
14.721120
11
13.455329
21
14.101332
0
LINE
8
Layer 1
10
13.455329
20
14.101332
11
13.838574
21
14.020020
0
LINE
8
Layer 1
10
13.838574
20
14.020020
11
14.172918
21
14.231544
0
LINE
8
Layer 1
10
14.172918
20
14.231544
11
14.857528
21
15.209558
0
LINE
8
Layer 1
10
14.857528
20
15.209558
11
14.954761
21
15.584843
0
LINE
8
Layer 1
10
14.954761
20
15.584843
11
14.743237
21
15.910658
0
LINE
8
Layer 1
10
14.743237
20
15.910658
11
14.417421
21
16.106261
0
LINE
8
Layer 1
10
14.417421
20
16.106261
11
14.107527
21
16.301862
0
LINE
8
Layer 1
10
14.107527
20
16.301862
11
13.634441
21
16.554895
0
LINE
8
Layer 1
10
13.634441
20
16.554895
11
13.129513
21
16.774948
0
LINE
8
Layer 1
10
13.129513
20
16.774948
11
12.599567
21
16.929610
0
LINE
8
Layer 1
10
12.599567
20
16.929610
11
12.037208
21
17.051862
0
LINE
8
Layer 1
10
12.037208
20
17.051862
11
10.700400
21
17.149664
0
LINE
8
Layer 1
10
10.700400
20
17.149664
11
10.700400
21
17.149664
0
LINE
8
Layer 1
10
18.427278
20
16.970551
11
18.076444
21
16.823849
0
LINE
8
Layer 1
10
18.076444
20
16.823849
11
17.938272
21
16.465054
0
LINE
8
Layer 1
10
17.938272
20
16.465054
11
17.938272
21
5.543709
0
LINE
8
Layer 1
10
17.938272
20
5.543709
11
18.076444
21
5.184914
0
LINE
8
Layer 1
10
18.076444
20
5.184914
11
18.427278
21
5.038210
0
LINE
8
Layer 1
10
18.427278
20
5.038210
11
19.714618
21
5.038210
0
LINE
8
Layer 1
10
19.714618
20
5.038210
11
20.073412
21
5.184914
0
LINE
8
Layer 1
10
20.073412
20
5.184914
11
20.220114
21
5.543709
0
LINE
8
Layer 1
10
20.220114
20
5.543709
11
20.220114
21
9.960692
0
LINE
8
Layer 1
10
20.220114
20
9.960692
11
20.317916
21
10.213726
0
LINE
8
Layer 1
10
20.317916
20
10.213726
11
20.545929
21
10.107964
0
LINE
8
Layer 1
10
20.545929
20
10.107964
11
24.882170
21
5.412928
0
LINE
8
Layer 1
10
24.882170
20
5.412928
11
25.256886
21
5.143972
0
LINE
8
Layer 1
10
25.256886
20
5.143972
11
25.713482
21
5.038210
0
LINE
8
Layer 1
10
25.713482
20
5.038210
11
27.734900
21
5.038210
0
LINE
8
Layer 1
10
27.734900
20
5.038210
11
27.987365
21
5.143972
0
LINE
8
Layer 1
10
27.987365
20
5.143972
11
27.898092
21
5.396437
0
LINE
8
Layer 1
10
27.898092
20
5.396437
11
23.203057
21
10.433777
0
LINE
8
Layer 1
10
23.203057
20
10.433777
11
23.048394
21
10.800534
0
LINE
8
Layer 1
10
23.048394
20
10.800534
11
23.170646
21
11.183777
0
LINE
8
Layer 1
10
23.170646
20
11.183777
11
27.457418
21
16.562855
0
LINE
8
Layer 1
10
27.457418
20
16.562855
11
27.531338
21
16.839770
0
LINE
8
Layer 1
10
27.531338
20
16.839770
11
27.261815
21
16.954061
0
LINE
8
Layer 1
10
27.261815
20
16.954061
11
25.452489
21
16.954061
0
LINE
8
Layer 1
10
25.452489
20
16.954061
11
25.012382
21
16.839770
0
LINE
8
Layer 1
10
25.012382
20
16.839770
11
24.654156
21
16.562855
0
LINE
8
Layer 1
10
24.654156
20
16.562855
11
20.530008
21
11.297500
0
LINE
8
Layer 1
10
20.530008
20
11.297500
11
20.309955
21
11.167289
0
LINE
8
Layer 1
10
20.309955
20
11.167289
11
20.220114
21
11.411792
0
LINE
8
Layer 1
10
20.220114
20
11.411792
11
20.220114
21
16.465054
0
LINE
8
Layer 1
10
20.220114
20
16.465054
11
20.073412
21
16.823849
0
LINE
8
Layer 1
10
20.073412
20
16.823849
11
19.714618
21
16.970551
0
LINE
8
Layer 1
10
19.714618
20
16.970551
11
18.427278
21
16.970551
0
LINE
8
Layer 1
10
60.855455
20
16.970551
11
60.529640
21
16.774948
0
LINE
8
Layer 1
10
60.529640
20
16.774948
11
54.873652
21
5.478318
0
LINE
8
Layer 1
10
54.873652
20
5.478318
11
54.865132
21
5.168425
0
LINE
8
Layer 1
10
54.865132
20
5.168425
11
55.150575
21
5.038210
0
LINE
8
Layer 1
10
55.150575
20
5.038210
11
56.634084
21
5.038210
0
LINE
8
Layer 1
10
56.634084
20
5.038210
11
57.049738
21
5.168425
0
LINE
8
Layer 1
10
57.049738
20
5.168425
11
57.351106
21
5.494806
0
LINE
8
Layer 1
10
57.351106
20
5.494806
11
57.823622
21
6.456333
0
LINE
8
Layer 1
10
57.823622
20
6.456333
11
58.117026
21
6.782148
0
LINE
8
Layer 1
10
58.117026
20
6.782148
11
58.541211
21
6.912929
0
LINE
8
Layer 1
10
58.541211
20
6.912929
11
63.170858
21
6.912929
0
LINE
8
Layer 1
10
63.170858
20
6.912929
11
63.585944
21
6.782148
0
LINE
8
Layer 1
10
63.585944
20
6.782148
11
63.887878
21
6.472824
0
LINE
8
Layer 1
10
63.887878
20
6.472824
11
64.376883
21
5.494806
0
LINE
8
Layer 1
10
64.376883
20
5.494806
11
64.670290
21
5.168425
0
LINE
8
Layer 1
10
64.670290
20
5.168425
11
65.093906
21
5.038210
0
LINE
8
Layer 1
10
65.093906
20
5.038210
11
66.577417
21
5.038210
0
LINE
8
Layer 1
10
66.577417
20
5.038210
11
66.862860
21
5.168425
0
LINE
8
Layer 1
10
66.862860
20
5.168425
11
66.838412
21
5.478318
0
LINE
8
Layer 1
10
66.838412
20
5.478318
11
61.181837
21
16.774948
0
LINE
8
Layer 1
10
61.181837
20
16.774948
11
60.855455
21
16.970551
0
LINE
8
Layer 1
10
60.855455
20
16.970551
11
60.855455
21
16.970551
0
LINE
8
Layer 1
10
54.320959
20
16.954062
11
53.913263
21
16.815320
0
LINE
8
Layer 1
10
53.913263
20
16.815320
11
53.652839
21
16.481545
0
LINE
8
Layer 1
10
53.652839
20
16.481545
11
51.598440
21
10.873885
0
LINE
8
Layer 1
10
51.598440
20
10.873885
11
51.419327
21
10.678281
0
LINE
8
Layer 1
10
51.419327
20
10.678281
11
51.223727
21
10.857396
0
LINE
8
Layer 1
10
51.223727
20
10.857396
11
48.631988
21
16.758459
0
LINE
8
Layer 1
10
48.631988
20
16.758459
11
48.330620
21
16.937572
0
LINE
8
Layer 1
10
48.330620
20
16.937572
11
48.028691
21
16.758459
0
LINE
8
Layer 1
10
48.028691
20
16.758459
11
47.454959
21
15.455767
0
LINE
8
Layer 1
10
47.454959
20
15.455767
11
46.527168
21
13.083782
0
LINE
8
Layer 1
10
46.527168
20
13.083782
11
45.644736
21
11.220876
0
LINE
8
Layer 1
10
45.644736
20
11.220876
11
44.696509
21
9.748255
0
LINE
8
Layer 1
10
44.696509
20
9.748255
11
43.571335
21
8.547123
0
LINE
8
Layer 1
10
43.571335
20
8.547123
11
44.703441
21
5.266228
0
LINE
8
Layer 1
10
44.703441
20
5.266228
11
44.988886
21
5.070624
0
LINE
8
Layer 1
10
44.988886
20
5.070624
11
45.290252
21
5.250305
0
LINE
8
Layer 1
10
45.290252
20
5.250305
11
48.126489
21
11.526084
0
LINE
8
Layer 1
10
48.126489
20
11.526084
11
48.338584
21
11.721687
0
LINE
8
Layer 1
10
48.338584
20
11.721687
11
48.550107
21
11.526084
0
LINE
8
Layer 1
10
48.550107
20
11.526084
11
51.370425
21
5.201405
0
LINE
8
Layer 1
10
51.370425
20
5.201405
11
51.663829
21
5.021721
0
LINE
8
Layer 1
10
51.663829
20
5.021721
11
51.957235
21
5.217325
0
LINE
8
Layer 1
10
51.957235
20
5.217325
11
56.064892
21
16.481545
0
LINE
8
Layer 1
10
56.064892
20
16.481545
11
56.048964
21
16.815320
0
LINE
8
Layer 1
10
56.048964
20
16.815320
11
55.739071
21
16.954062
0
LINE
8
Layer 1
10
55.739071
20
16.954062
11
54.320959
21
16.954062
0
LINE
8
Layer 1
10
35.249118
20
12.243104
11
35.461213
21
12.047501
0
LINE
8
Layer 1
10
35.461213
20
12.047501
11
36.134450
21
10.623695
0
LINE
8
Layer 1
10
36.134450
20
10.623695
11
37.049915
21
8.875211
0
LINE
8
Layer 1
10
37.049915
20
8.875211
11
35.531350
21
8.681449
0
LINE
8
Layer 1
10
35.531350
20
8.681449
11
34.127815
21
8.805840
0
LINE
8
Layer 1
10
34.127815
20
8.805840
11
33.526788
21
8.994049
0
LINE
8
Layer 1
10
33.526788
20
8.994049
11
34.517313
21
10.961451
0
LINE
8
Layer 1
10
34.517313
20
10.961451
11
35.037594
21
12.047501
0
LINE
8
Layer 1
10
35.037594
20
12.047501
11
35.249118
21
12.243104
0
LINE
8
Layer 1
10
35.249118
20
12.243104
11
35.249118
21
12.243104
0
LINE
8
Layer 1
10
60.994766
20
12.243104
11
61.206856
21
12.047501
0
LINE
8
Layer 1
10
61.206856
20
12.047501
11
62.478275
21
9.357964
0
LINE
8
Layer 1
10
62.478275
20
9.357964
11
62.486239
21
9.040110
0
LINE
8
Layer 1
10
62.486239
20
9.040110
11
62.201365
21
8.901365
0
LINE
8
Layer 1
10
62.201365
20
8.901365
11
59.788741
21
8.901365
0
LINE
8
Layer 1
10
59.788741
20
8.901365
11
59.495337
21
9.032146
0
LINE
8
Layer 1
10
59.495337
20
9.032146
11
59.495337
21
9.357964
0
LINE
8
Layer 1
10
59.495337
20
9.357964
11
60.782674
21
12.047501
0
LINE
8
Layer 1
10
60.782674
20
12.047501
11
60.994769
21
12.243104
0
LINE
8
Layer 1
10
60.994769
20
12.243104
11
60.994766
21
12.243104
 0 
ENDSEC
 0 
EOF